<?xml version="1.0" standalone="no"?>
<!DOCTYPE svg PUBLIC "-//W3C//DTD SVG 1.1//EN" "http://www.w3.org/Graphics/SVG/1.1/DTD/svg11.dtd" >
<svg xmlns="http://www.w3.org/2000/svg" xmlns:xlink="http://www.w3.org/1999/xlink" version="1.1">
<metadata>
Created by FontForge 20170731 at Wed Jul  5 16:49:39 2017
 By Aleksey,,,
Copyright (c) 2016 by Zetafonts. All rights reserved.
</metadata>
<defs>
<font id="KittenSwash-Fat" horiz-adv-x="553" >
  <font-face 
    font-family="Kitten Swash"
    font-weight="950"
    font-stretch="normal"
    units-per-em="1000"
    panose-1="2 0 0 0 0 0 0 0 0 0"
    ascent="800"
    descent="-200"
    x-height="411"
    cap-height="734"
    bbox="-2996 -855 2500.63 1230"
    underline-thickness="50"
    underline-position="-200"
    unicode-range="U+000D-FB06"
  />
<missing-glyph horiz-adv-x="628" 
d="M141 125h281q-65 -53 -141 -53q-79 0 -140 53zM397 415l-273 -274q-52 58 -52 141q0 77 47 133h278zM420 438h-280q61 54 141 54t139 -54zM490 282q0 -74 -47 -134h-279l273 275q53 -68 53 -141zM349 38q-33 -9 -68 -9q-107 0 -180 74.5t-73 178.5q0 107 75 180.5
t178 73.5q106 0 179.5 -76.5t73.5 -177.5q0 -88 -52.5 -154.5t-132.5 -89.5zM342 506q-27 9 -61 9q-99 0 -165.5 -69t-66.5 -164t67 -164.5t165 -69.5q97 0 165 68t68 166q0 82 -49.5 143t-122.5 81z" />
    <glyph glyph-name="ffi" unicode="ffi" horiz-adv-x="1083" 
d="M1130 184q1 -3 1 -13q0 -36 -46 -82.5t-106.5 -78t-99.5 -31.5q-74 0 -102 47t-28 156q0 34 4 62q-43 -5 -109 -7q48 -36 76 -85.5t28 -100.5q0 -76 -52.5 -131t-136.5 -55q-103 0 -140 97q-4 -77 -63 -131t-151 -54q-19 0 -40 3q-25 3 -44.5 18t-32.5 35.5t-22.5 52
t-14.5 59t-8 66.5t-3.5 63.5t-1.5 60.5t-1 48q-38 13 -56.5 39.5t-18.5 56.5q0 14 33.5 27.5t64.5 13.5q12 71 28.5 143t44.5 162.5t67 147t82 56.5q23 0 71 -15.5t92 -43.5t44 -55q0 -10 -38.5 -85t-84 -166t-57.5 -130q36 2 66.5 6t41.5 4q2 8 14 48.5t17 57t18 56
t21.5 59.5t23 52.5t27 50t28.5 36.5t33.5 27t35.5 8q37 0 111.5 -36.5t74.5 -71.5q0 -15 -66 -112t-80 -144q72 10 126.5 26.5t76.5 16.5q47 0 78.5 -11.5t43 -29.5t14.5 -29.5t3 -22.5q0 -10 -18 -62.5t-27 -128.5q24 11 111 98q4 4 10 4q12 0 22.5 -14.5t14.5 -37.5z
M986 455q-26 0 -45 3.5t-39.5 14.5t-31 35.5t-10.5 61.5q0 59 35 106t74 47q43 0 106.5 -35t63.5 -67q0 -13 -18 -24q-13 -7 -27 -31.5t-25.5 -48t-33 -43t-49.5 -19.5zM259 134q-3 -15 -3 -73q0 -166 34 -166q13 0 25 25t12 62q0 65 -68 152zM612 -43q57 4 57 85
q0 78 -56 123q-9 -40 -9 -104q0 -53 8 -104zM279 217q79 -51 118 -146q-1 12 -1 34q0 23 2 63.5t2 54.5q-83 0 -121 -6z" />
    <glyph glyph-name="a_a" unicode="aa" horiz-adv-x="1063" 
d="M1133 211q0 -1 0.5 -3.5t0.5 -4.5q0 -52 -94 -134.5t-149 -82.5q-51 0 -79 12.5t-34 47.5q-19 -28 -56 -49.5t-68 -23.5q-106 0 -140 84q-83 -71 -148 -71q-101 0 -119 58q-17 -27 -54 -48t-67 -23q-69 0 -114.5 39t-45.5 128q0 94 84 181t177 87q14 0 29 -3l1 7
q1 8 1.5 10t2.5 9.5t3.5 10t5 8t7.5 7.5t10 4t13 2q46 0 106.5 -34t60.5 -63q0 -97 -42 -238q13 0 28 12t58 55q34 95 125 166t175 57q20 43 49 43q40 0 95.5 -19.5t57.5 -48.5q-8 -123 -55 -262q6 1 11.5 4t13 9t13.5 11.5t17.5 17t20.5 19.5l39 42q16 17 33 17t27 -40z
M732 197q-1 -3 -1 -12q0 -39 25 -39q18 0 22 21q9 88 24 142q-62 -34 -70 -112zM189 186q0 -24 8 -36.5t19 -12.5q9 0 15.5 6.5t6.5 17.5q0 95 8 144q-57 -42 -57 -119z" />
    <glyph glyph-name="b_r" unicode="br" horiz-adv-x="985" 
d="M470 104q-50 0 -88 22q-47 -65 -115.5 -106t-147.5 -41q-73 0 -113.5 54.5t-40.5 138.5q0 50 8 127.5t26 177t57.5 168.5t93.5 69q48 0 113.5 -46t65.5 -104q0 -16 -19 -30q-41 -22 -80 -144.5t-39 -231.5q0 -28 1 -43q27 4 53.5 26t38.5 53q12 -19 31 -17
q-69 66 -77 132q-8 56 10.5 74t67.5 25q50 7 78 -21t30 -73t-4 -93q3 -18 23.5 -22t40.5 5q21 30 28 48t7 54q-18 18 -27.5 49.5t-9.5 55.5q0 50 27.5 84.5t63.5 34.5q42 0 101.5 -27t59.5 -61q0 -11 -31.5 -41.5t-41.5 -59.5l13 13q12 13 13 13q26 -9 77 -9q16 0 43 7.5
t33 7.5q25 0 54 -20.5t32 -34.5q2 -14 2 -17q0 -32 -24 -96.5t-24 -80.5q42 7 111 101q1 0 5 4l4 4q15 -3 28.5 -13.5t16.5 -26.5q0 -37 -41 -86.5t-101 -86t-108 -36.5q-53 0 -93.5 25t-40.5 69q0 31 31.5 87.5t31.5 74.5q0 17 -13 27q-12 0 -31.5 -3t-34 -6t-15.5 -4
q-3 -68 -59 -110.5t-101 -39.5z" />
    <glyph glyph-name="c_c" unicode="cc" horiz-adv-x="833" 
d="M573 237q-2 2 -2 11q0 7 2 13l6 12t3.5 5t5 4.5t10.5 10t19 20.5q-1 -1 -2 -1q-57 0 -57 -76q0 -113 78 -118q50 2 109.5 41t95.5 93q5 12 16 12q15 0 32 -15.5t17 -26.5q0 -83 -98.5 -161.5t-212.5 -78.5q-78 0 -124.5 20t-73.5 66q-110 -86 -201 -86q-107 0 -160 43
t-71 142q-4 17 -4 38q0 98 85.5 166t190.5 68q18 0 35 -3.5t43.5 -16t43 -44.5t16.5 -81q26 62 87.5 99t138.5 37q187 0 187 -128q0 -54 -29.5 -87.5t-67.5 -33.5q-105 0 -118 56zM364 168q-5 27 -5 46v8q-23 -41 -67 -41q-40 0 -83 20.5t-43 55.5q0 8 26 24t28 32
q-1 -1 -3 -1h-1q-27 0 -42 -13.5t-15 -52.5q0 -59 21 -92.5t57 -35.5q61 0 127 50z" />
    <glyph glyph-name="d_d" unicode="dd" horiz-adv-x="1061" 
d="M157 215q0 -29 14.5 -63.5t37.5 -34.5q27 0 45 36t18 95q0 112 -47 216q-63 48 -91 113t-28 111q0 43 63 75.5t117 37.5q46 0 86 -67.5t71 -173.5q49 -39 96.5 -64t83.5 -38t42 -16q25 23 53 23q32 0 57 -28q-19 38 -49 76t-48 62t-18 43q0 43 63 75.5t117 37.5
q52 0 96 -71t67 -168.5t23 -188.5q0 -58 -18 -115.5t-53 -107.5t-94 -81.5t-132 -31.5q-103 0 -162 62.5t-59 153.5q0 95 63 173q-75 30 -95 34q6 -46 6 -87q0 -58 -16.5 -113.5t-49.5 -104.5t-90.5 -78.5t-130.5 -29.5q-113 0 -176 96q-56 83 -43 184q13 103 93 146
q43 23 99 23q46 0 46 -49q0 -20 -28.5 -70t-28.5 -92zM691 215q0 -31 14.5 -69.5t37.5 -38.5q27 0 50 41t23 100q0 73 -19 132q0 -2 0.5 -5t0.5 -4q0 -30 -12.5 -59.5t-36.5 -29.5q-4 0 -14.5 6t-17.5 7q-26 -31 -26 -80z" />
    <glyph glyph-name="e_e" unicode="ee" horiz-adv-x="855" 
d="M855 237q2 5 15 5q29 0 41.5 -6.5t12.5 -25.5q0 -48 -47.5 -101.5t-121 -90t-142.5 -36.5q-110 0 -170 57q-108 -57 -243 -57q-112 0 -173 60t-61 163q0 98 71 158t195 60q77 0 122 -32.5t47 -88.5q28 57 90.5 89t153.5 32q78 0 123.5 -33.5t45.5 -91.5
q0 -51 -53.5 -98.5t-135.5 -79.5q20 -29 98 10.5t132 106.5zM202 126q34 -51 186 6q-9 33 -9 73q0 24 2 31q-49 -74 -179 -110zM624 302q-25 6 -47 -30.5t-5 -64.5q23 14 36.5 29t16.5 26.5t2.5 20.5t-2.5 14t-1 5zM160 217q26 9 39.5 30.5t13.5 37.5q0 20 -6 20
q-17 0 -33 -22t-16 -50q0 -2 2 -16z" />
    <glyph glyph-name="f_f" unicode="ff" horiz-adv-x="783" 
d="M910 321q84 -15 42 -77q-26 -39 -72 -64q-9 -5 -15 -7q-39 -11 -103 16t-90 30q56 -42 75 -104t2 -116.5t-68 -94t-122 -39.5q-73 0 -107 41q-31 40 -44 85q-2 -100 -64 -163t-179 -48q-38 4 -59 22q-17 16 -30 45.5t-19.5 58t-11 74t-5.5 70t-2 70.5t-1 53
q-26 -4 -44.5 13.5t-18.5 38.5q0 41 26.5 68.5t69.5 32.5q13 68 34.5 144t54 161t77 135.5t91.5 40.5q23 -3 49 -10.5t53.5 -19.5t44.5 -29t15 -36q-2 -17 -82 -168.5t-94 -195.5q43 2 106 2q3 9 9 29q12 38 18.5 59.5t20.5 62t25 65t27 58t31.5 53t33.5 37.5t38.5 23
t41.5 0q58 -18 109 -47.5t48 -62.5q-2 -16 -77.5 -129.5t-88.5 -157.5q118 -2 155.5 -5t99.5 -14zM261 159q-5 -24 -6 -85.5t7.5 -120t27.5 -58.5q12 0 23 20t14 54.5t-11 80.5q-4 8 -13.5 33.5t-20 46.5t-21.5 29zM612 -33q49 4 62 41.5t-6 83t-55 73.5q-18 -96 -1 -198z
M313 226q53 -50 79 -129q-2 14 -0.5 69t1.5 57q-20 4 -51 4q-20 0 -29 -1z" />
    <glyph glyph-name="f_s" unicode="fs" horiz-adv-x="861" 
d="M609 161q-6 14 -22.5 29t-44.5 35.5t-41 31.5q-111 -11 -199 -17l30 -39q35 -45 35 -125q0 -98 -65 -171.5t-166 -73.5q-19 0 -37.5 3.5t-42.5 17.5t-41.5 37.5t-29.5 67t-12 102.5q0 50 17 159q-38 6 -56 17t-18 37q0 24 21.5 36.5t68.5 21.5q47 204 81 282
q47 106 103 106q156 0 209 -148v-2q0 -6 -15.5 -22.5t-36 -37t-43.5 -63t-35 -93.5q89 4 179 21q8 105 101 130q77 20 161 -19q71 -33 81 -82q12 -56 -67 -101q76 -41 114.5 -76t38.5 -76q0 -70 -82 -125t-225 -55q-170 0 -199 151q-3 12 -3 24q0 40 25.5 67.5t45.5 30.5
q1 0 5 0.5t5 0.5q33 0 66.5 -15t33.5 -41q0 -21 -29 -52v-1q0 -2 3.5 -5.5t13 -7.5t22.5 -4q53 0 53 28q0 7 -3 16zM256 89q-9 66 -36 90q-7 -11 -14.5 -47.5t-15.5 -84.5t-14 -71q4 -19 14 -19q21 0 43.5 35.5t22.5 96.5z" />
    <glyph glyph-name="g_g" unicode="gg" horiz-adv-x="1041" 
d="M140 -24q16 0 29 -18q31 -93 40 -93q8 0 8 58v53q0 46 2 57q-48 -45 -103 -50q-69 0 -114.5 39t-45.5 128q0 94 84 181t177 87q11 0 14 -1q9 52 27.5 72.5t51.5 20.5q20 0 65 -17t86 -46.5t41 -55.5q0 -8 -2 -32l-11 -70q35 56 90.5 93.5t110.5 37.5h4q1 10 2.5 27t2 22
t3 14.5t5.5 11.5t9.5 6t15 4.5t21.5 0.5q53 0 121 -20.5t77 -55.5l4 -32v-224q1 1 13 7.5t17.5 10.5l16.5 12t20 18t18 23q13 17 30 19q18 0 28 -19.5t10 -31.5q0 -40 -54 -98.5t-114 -92.5q-7 -54 -32 -110t-62.5 -105t-91.5 -80.5t-113 -31.5q-70 0 -147 36t-77 83
q0 40 54.5 89t100.5 49q18 0 29.5 -16t17 -36t23 -36t45.5 -16q10 0 16 11t8 29.5t2.5 43t0 51t0.5 53.5q-16 -28 -51 -53.5t-80 -25.5q-97 0 -130 110l-10 -67q-9 -44 -21.5 -79t-32.5 -69.5t-46 -57t-63.5 -36.5t-84.5 -14q-65 0 -145.5 42.5t-80.5 91.5q0 38 59 68
t112 30zM656 166q0 -24 8 -36.5t19 -12.5q9 0 15.5 6.5t6.5 17.5v45q0 57 5 97q-54 -42 -54 -117zM159 186q0 -24 8 -36.5t19 -12.5q9 0 15.5 6.5t6.5 17.5v45q0 57 5 97q-54 -42 -54 -117z" />
    <glyph glyph-name="i_i" unicode="ii" horiz-adv-x="559" 
d="M625 184q1 -3 1 -13q0 -36 -46 -82.5t-106.5 -78t-99.5 -31.5q-51 0 -79 20.5t-40 65.5l1 -8q-99 -78 -161 -78q-81 0 -107 53t-26 179q0 47 6 88.5t19 79.5t39 60.5t61 22.5q48 0 80 -11.5t44.5 -30.5t16.5 -32.5t4 -28.5q0 -16 -15 -60t-26 -111v-4q0 -4 0.5 -8t0.5 -8
q0 -3 -2 -17q12 8 54 51q3 87 35.5 151.5t93.5 64.5q47 0 78.5 -11.5t43 -29.5t14.5 -29.5t3 -22.5t-3 -21t-10.5 -30t-13.5 -38q-2 -6 -18 -102q24 11 111 98q4 4 10 4q12 0 22.5 -14.5t14.5 -37.5zM199 537h-11q-55 0 -89.5 28.5t-34.5 106.5q0 59 25.5 91.5t66.5 32.5
q47 0 108.5 -28t61.5 -62q0 -14 -20 -29q-12 -5 -25.5 -39.5t-29 -66t-35.5 -32.5q-3 0 -9 -1t-8 -1zM457 467q-26 0 -45 3.5t-39.5 14.5t-31 35.5t-10.5 61.5q0 58 30 95.5t69 37.5q46 0 103 -25.5t57 -56.5q0 -13 -18 -24q-12 -3 -28.5 -37.5t-34.5 -67.5t-35 -34
q-2 0 -17 -3z" />
    <glyph glyph-name="k_k" unicode="kk" horiz-adv-x="1010" 
d="M848 -23q-66 0 -102.5 37t-64.5 119q-4 -7 -1.5 -50.5t2.5 -45.5q0 -69 -74 -69q-33 0 -65.5 19.5t-50.5 46.5q-72 -56 -119 -56q-67 0 -105 36.5t-73 119.5q-1 -16 0 -32t4 -36.5t4 -27.5q3 -28 -13 -48.5t-57 -20.5q-42 0 -83 30t-49 64q-7 26 -8 41q0 79 -2 98
q0 27 8.5 110.5t26.5 203t58 208t92 88.5t117.5 -48t67.5 -85q1 -9 -13 -19q-29 -15 -76.5 -143.5t-53.5 -203.5q2 5 11 30t17 39.5t31 28.5t56 14q39 0 65.5 -10t38 -28.5t15.5 -32.5t6 -32q5 -91 -143 -134q18 -5 36 0q69 -61 85 -61q4 0 10 3q15 10 32 27q2 32 2 44
q0 24 8.5 97.5t27.5 176.5t58.5 179.5t91.5 76.5q53 0 115 -47.5t62 -85.5q0 -9 -15 -19q-29 -14 -71 -104.5t-52 -162.5q3 5 11.5 23.5t16.5 30.5t22 27t35 23t48 8q39 0 65 -10.5t36 -28.5t13.5 -32t3.5 -32q0 -92 -152 -134q18 -5 36 0q37 -35 54 -48t27 -13q4 0 10 3
q27 18 50 43.5t35 41t20 15.5q17 0 35.5 -13t18.5 -29q-2 -35 -45.5 -85.5t-100.5 -87.5t-96 -37z" />
    <glyph glyph-name="l_l" unicode="ll" horiz-adv-x="620" 
d="M656 186q0 -73 -86.5 -140.5t-174.5 -67.5h-6q-75 6 -107 58q-97 -68 -166 -68q-47 0 -77.5 20.5t-43.5 61t-17 77t-4 91.5q0 532 187 532q56 0 112.5 -35t56.5 -78q0 -8 -9 -14q-41 -30 -83.5 -211.5t-42.5 -268.5l1 -8q1 -8 3 -14t4 -6q11 0 66 55q0 70 9.5 154t28 168
t51.5 139.5t75 55.5q62 0 122.5 -38.5t60.5 -84.5q0 -15 -20 -30q-46 -24 -82 -164t-36 -224q0 -32 11 -32q20 0 48.5 28t52.5 56t33 28q16 0 24.5 -11.5t8.5 -28.5z" />
    <glyph glyph-name="m_m" unicode="mm" horiz-adv-x="1473" 
d="M779 451q50 0 107 -12.5t64 -43.5q0 -7 -14.5 -29t-14.5 -33q91 82 163 82q39 0 66.5 -15.5t27.5 -38.5q26 22 66 38t67 16q43 0 72.5 -22t29.5 -55q0 -27 -24 -107t-24 -106v-5q27 14 93 100q10 14 38 14q18 0 33.5 -12.5t15.5 -29.5q0 -31 -42.5 -81t-106.5 -90.5
t-116 -40.5q-64 0 -100.5 25.5t-36.5 75.5q0 11 1.5 24t4 25t6 24.5t7.5 23.5t7.5 21t7 18.5t6 14t3.5 8.5l2 3q-57 -50 -57 -136q0 -34 6 -80q0 -26 -17 -35.5t-53 -9.5q-118 0 -141 70q0 8 1 23.5t1 24.5q2 36 16.5 87.5t14.5 54.5v2q-17 -14 -28.5 -49t-14.5 -62.5
t-6 -75.5t-3 -53q-22 -34 -79 -34q-85 0 -121 86q-97 -76 -161 -76q-137 0 -137 109q0 73 32 164l2 5q-55 -48 -55 -115q0 -14 2.5 -31.5t5 -28.5t7.5 -30.5t7 -25.5q-5 -26 -23.5 -35.5t-52.5 -9.5q-119 0 -142 70q6 116 12 158l13 65q-54 -73 -54 -155q0 -29 5 -74l3 -35
q-12 -26 -79 -26q-47 0 -75.5 27t-52.5 77q-8 26 -8 90q0 292 85 292q47 0 98.5 -17t51.5 -42q0 -10 -12.5 -39t-13.5 -35q102 92 168 92q39 0 66.5 -15.5t27.5 -38.5q25 23 67 38.5t70 15.5q49 0 73.5 -20t24.5 -53q0 -28 -15.5 -117.5t-15.5 -113.5v-6q22 5 35.5 41
t21 83.5t16 94t27 79t48.5 33.5zM1366 114q0 3 -1 3q0 -2 1 -3zM632 114v1q-1 1 -1 2q0 -2 1 -3z" />
    <glyph glyph-name="n_n" unicode="nn" horiz-adv-x="1020" 
d="M1070 181q0 -54 -86 -127.5t-156 -73.5q-140 0 -140 104q0 30 11.5 70t22.5 64l10 24q-32 -25 -50.5 -67t-18.5 -77q0 -34 15 -75q0 -1 0.5 -3t0.5 -4q0 -32 -95 -32q-23 0 -36 2.5t-33 19t-36 49.5q-80 -80 -149 -80q-145 0 -145 120q0 32 8.5 71t17.5 65t9 28v1
q-60 -52 -60 -151q0 -43 17 -87q1 -3 1 -9q0 -33 -78 -33q-19 0 -48 11.5t-51 38.5q-56 49 -56 195q0 100 30 178.5t71 78.5q51 0 103 -17.5t52 -48.5q0 -10 -10 -23.5t-10 -27.5q37 38 79 59t77 21q121 0 121 -107q0 -32 -9 -71t-22.5 -80.5t-16.5 -55.5q23 18 44.5 50
t23.5 68q-1 9 -1 26q0 76 30.5 126t70.5 50q50 0 98.5 -16t48.5 -46q0 -10 -11.5 -19t-13.5 -22q79 68 156 68q38 0 65.5 -18.5t27.5 -58.5q0 -33 -20 -118.5t-21 -99.5q45 18 109 101q4 4 9 4q15 -2 28 -15t16 -30zM909 113q0 1 -1 4q0 -3 1 -4z" />
    <glyph glyph-name="p_p" unicode="pp" horiz-adv-x="1002" 
d="M1073 190q0 -10 -2.5 -18.5t-5.5 -13t-10.5 -15.5t-11.5 -17q-39 -53 -102 -96.5t-134 -43.5q-69 0 -102.5 31.5t-33.5 82.5q0 41 37 42q14 62 14 73q0 22 -11 28q-53 0 -53 -118q0 -70 16.5 -158t31.5 -129q7 -20 27.5 -40t20.5 -32q0 -50 -116 -50q-97 0 -133 43
q-44 51 -59 233q-53 -29 -104 -29q-71 0 -109 36t-38 92q0 32 34 36q6 49 6 63q0 31 -7 38q-2 2 -5 4q-45 0 -45 -87q0 -73 27 -181t49 -156q9 -21 32 -42.5t23 -36.5q0 -17 -10 -27.5t-29.5 -15t-34.5 -5.5t-37 -1q-30 0 -50 2t-46.5 12.5t-42.5 30.5q-47 50 -71 191.5
t-24 244.5q0 124 22.5 215t54.5 91h5q71 0 100 -21t29 -82v-5q0 -5 1 -6q22 24 54.5 39t54.5 15q42 0 71.5 -17t44 -45.5t20 -56.5t5.5 -61q0 -35 -13 -104l-39 -18q2 0 5 -0.5t5 -0.5q33 0 60 27q8 132 40 234t67 102h5q16 0 33.5 -2t43 -7t43.5 -18.5t23 -32.5
q0 -5 -12 -16.5t-12 -24.5q0 -6 1 -8q24 24 56.5 38t55.5 14q126 0 126 -146q0 -21 -3 -43t-6.5 -34.5t-8.5 -29t-5 -18.5l-41 -18q2 0 5 -0.5t4 -0.5q34 0 59.5 20.5t50.5 60t32 47.5t19 8q53 0 53 -66z" />
    <glyph glyph-name="q_q" unicode="qq" horiz-adv-x="1001" 
d="M448 -63q-10 -23 -22.5 -62t-22.5 -65.5t-25.5 -54t-37.5 -41.5t-52 -14q-39 0 -89.5 31.5t-50.5 70.5l2 14q0 14 30.5 97t30.5 119q0 2 -0.5 6t-0.5 6q-12 -23 -41 -41t-57 -18q-81 0 -116 41t-35 105q0 72 49 147t123 117q20 11 69 24q-3 15 -3 27q0 40 41 40
q55 0 126 -57q31 -52 50.5 -136t22.5 -141q0 -3 -9.5 -19t-9.5 -18q6 0 29 27q0 72 48.5 146.5t123.5 116.5q20 11 69 24q-3 15 -3 27q0 40 41 40q55 0 126 -57q31 -52 50.5 -136t22.5 -141q0 -3 -9.5 -19t-9.5 -18q10 2 44.5 46.5t47.5 64.5q17 29 32.5 39.5t36.5 10.5
q18 0 34 -16t20 -26q1 -3 1 -12q0 -31 -19.5 -60t-46 -52t-62 -69.5t-60.5 -103.5q-10 -22 -27 -70.5t-32 -86.5t-35.5 -78.5t-47 -63t-56.5 -22.5q-39 0 -89.5 31.5t-50.5 70.5q0 1 0.5 3t1 5t0.5 6q0 14 49.5 139t49.5 161q0 2 -0.5 6t-0.5 6q-12 -23 -41 -41t-57 -18
q-67 0 -104 29q-27 -38 -48 -87zM695 167l4 160q-22 -15 -36 -52t-14 -71q0 -47 24 -47q9 0 22 10zM207 157l4 160q-22 -15 -36 -52t-14 -71q0 -47 24 -47q9 0 22 10z" />
    <glyph glyph-name="r_r" unicode="rr" horiz-adv-x="982" 
d="M1030 184q0 -29 -40.5 -76.5t-99.5 -85.5t-104 -38q-106 0 -133 81q-6 26 12 61t37.5 67t17.5 50q0 16 -12 22.5t-26 5.5t-31.5 -4t-20.5 -3q-44 -113 -140.5 -196.5t-188.5 -83.5q-50 0 -85.5 20.5t-47.5 60.5q-7 33 32 114t37 100q-1 21 -18.5 25.5t-43 0t-30.5 -3.5
q-16 -67 -59.5 -130t-95.5 -96q-5 -3 -12.5 -3t-11.5 -1q-24 -2 -34 50q-6 1 2 9q38 49 56 76.5t32.5 67t13.5 78.5q-17 17 -28 64q-9 47 -2 94.5t29.5 82t48.5 33.5q43 0 103 -26q51 -26 55 -57q2 -12 -6.5 -35t-22.5 -52.5t-18 -41.5q20 -10 86 -10q17 0 44 7.5t31 7.5
q25 0 55.5 -20.5t32.5 -34.5q6 -32 -26 -127t-32 -113q47 6 93 80.5t39 111.5q-22 22 -33 68q-15 64 17 108.5t77 42.5q49 -2 103 -27q50 -24 57 -57q2 -14 -26.5 -34t-34.5 -39q21 -10 85 -10q16 0 43 7.5t33 7.5q25 0 55 -20.5t32 -34.5q6 -33 -24.5 -110.5t-30.5 -93.5
q35 7 74 54l40 45q39 -6 45 -39z" />
    <glyph glyph-name="s_s" unicode="ss" horiz-adv-x="965" 
d="M670 149q-5 21 -38.5 51t-63.5 64t-30 67q0 53 51.5 85t140.5 32q93 0 158.5 -29t65.5 -76q0 -31 -20.5 -61t-43.5 -30q-37 0 -74.5 25t-37.5 49q0 2 1 7t1 7q0 13 -12 19.5t-24 6.5q-27 0 -27 -13q0 -19 34.5 -49.5t76 -57t78.5 -56.5t41 -48q2 -14 2 -21
q0 -61 -70.5 -104t-194.5 -43q-168 0 -230 62q-74 -62 -221 -62q-38 0 -68.5 2.5t-70.5 12.5t-66.5 27t-45.5 50t-19 78q0 49 34.5 91.5t54.5 42.5q27 0 62.5 -30t35.5 -63q0 -27 -29 -48v-1q0 -2 4.5 -7t18 -10t32.5 -5q44 0 44 25q0 19 -21 43t-45.5 44t-45.5 48.5
t-21 55.5q0 59 57.5 103.5t144.5 44.5q89 0 146.5 -29t57.5 -76q0 -31 -20.5 -61t-43.5 -30q-37 0 -74.5 25t-37.5 49q0 4 1.5 11.5t1.5 9.5q0 19 -17 19q-27 0 -27 -13q0 -17 25 -44t73.5 -68.5t63.5 -56.5q36 44 65 44q28 0 63 -24t35 -52q0 -24 -29 -45v-1q0 -2 4.5 -7
t18 -10t32.5 -5q44 0 44 25q0 7 -1 10z" />
    <glyph glyph-name="t_t" unicode="tt" horiz-adv-x="679" 
d="M683 415q2 -10 2 -16q0 -28 -22 -50t-59 -27q-20 0 -47 0.5t-44 0.5q-21 -24 -12 -109q7 -72 25 -74q1 0 3 1q13 0 81 48t79 48q16 -2 28 -17.5t12 -38.5q0 -30 -25 -64.5t-63.5 -64t-87 -50t-93.5 -27t-84 10t-58 56.5q-39 -21 -91.5 -35t-89.5 -14q-50 0 -84.5 28.5
t-43.5 113.5q-19 70 -19 196q-29 6 -36.5 16.5t-7.5 33.5q0 43 50 58q19 134 38 177t68 43q58 0 116 -30.5t58 -73.5q0 -4 -4 -12.5t-13 -28.5t-17 -47l47 3q23 129 58.5 190.5t108.5 61.5q52 0 109.5 -34t57.5 -74q0 -6 -10.5 -23t-27 -48t-27.5 -64l44 2h3q26 0 49 -23
t29 -43zM295 143q0 7 -4 36t-7 67.5t-1 73.5q-2 -1 -61 -1q-4 -37 -2.5 -80t7 -78t10.5 -35q27 0 58 17z" />
    <glyph glyph-name="u_u" unicode="uu" horiz-adv-x="1062" 
d="M1123 184q0 -34 -48 -83t-111.5 -84.5t-104.5 -35.5q-53 0 -70 13t-26 49q-6 -4 -21.5 -13.5t-22 -13t-19.5 -11t-20.5 -11t-17.5 -8t-17.5 -6t-14.5 -1.5q-96 0 -122 86q-41 -36 -92 -60t-86 -24q-53 0 -70 13t-26 49q-6 -4 -21.5 -13.5t-22 -13t-19.5 -11t-20.5 -11
t-17.5 -8t-17.5 -6t-14.5 -1.5q-42 0 -69.5 15t-41 45t-18 63t-4.5 82q0 68 10.5 124t40 98.5t75.5 42.5q50 0 82 -12t43 -32t13.5 -30t2.5 -23t-17.5 -56t-29.5 -103q-4 -21 -15 -61q17 4 44 78q11 33 21.5 70.5t16.5 59t14 44t17 33.5t23.5 18t35.5 7q54 0 100 -18t46 -58
q0 -27 -11 -77.5t-18 -68.5q-9 -30 -38 -92q27 2 71 46q0 257 128 257q130 0 130 -94q0 -42 -30 -116.5t-30 -81.5t6 -7q16 0 31 41q23 50 40.5 124t34.5 105t56 31q36 0 69 -7t60 -27t27 -51q0 -38 -13 -82.5t-31 -87.5t-20 -50q17 4 62 55.5t54 51.5q16 0 35 -17.5
t19 -33.5zM954 127h-1q0 -2 -1 -3v-2q0 2 1 3t1 2zM425 127h-1q-1 -1 -1 -5q1 1 1 3q1 1 1 2z" />
    <glyph glyph-name="v_v" unicode="vv" horiz-adv-x="1031" 
d="M452 136q-3 1 -22 8q-19 -48 -53.5 -83t-75 -52.5t-77 -25t-70.5 -7.5q-56 0 -90.5 15.5t-50.5 50t-20.5 69.5t-4.5 95q0 43 5.5 79.5t18 70t37 53t58.5 19.5q7 0 25.5 -3.5t46 -11.5t47.5 -27t20 -44q0 -6 -3 -17v1q-13 -36 -24 -69q-23 -75 -23 -113q0 -14 7.5 -26.5
t16.5 -12.5q92 0 115 111q-62 51 -62 114q0 42 26 71.5t62 29.5q39 0 66 -31t36 -67t9 -72q0 -20 -1 -29q5 -8 19 -8q26 0 26 9q-1 1 -7 1h-9q-10 0 -10 4q0 83 32 132t95 49h1q24 0 42.5 -3.5t36.5 -14t27.5 -32t9.5 -54.5t-40 -81q-1 -21 -1 -90q0 -14 7.5 -26.5
t16.5 -12.5q94 0 115 114q-71 79 -71 165q0 40 20.5 64t60.5 24q49 0 87.5 -54.5t38.5 -119.5q0 -36 -10 -59q9 -12 30 -12q25 0 51 21.5t29 21.5q49 -7 49 -47q0 -47 -33 -69.5t-80 -22.5q-69 0 -115 38q3 -7 10 -15t13 -13l5 -5q-28 -58 -78 -96t-96.5 -51t-91.5 -13
q-88 0 -122.5 38t-41.5 116q-20 0 -35 6z" />
    <glyph glyph-name="w_w" unicode="ww" horiz-adv-x="1576" 
d="M1484 149q-23 13 -29 17q2 -4 7.5 -10.5t7.5 -8.5q1 -1 4 -5t5 -5q-19 -44 -54 -77t-67.5 -48.5t-69.5 -24t-52.5 -10t-22.5 -1.5q-91 0 -128 45q-78 -45 -162 -45q-47 0 -79 12v-1q-43 16 -62 51t-23 92q-24 0 -57 14q-19 -47 -54.5 -81t-68 -50t-69.5 -25.5t-52 -10.5
t-24 -1q-91 0 -128 45q-78 -45 -162 -45q-56 0 -90.5 15.5t-50.5 50t-20.5 69.5t-4.5 95q0 43 5.5 79.5t18 70t37 53t58.5 19.5q7 0 25.5 -3.5t46 -11.5t47.5 -27t20 -44q0 -6 -3 -17v1q-13 -36 -24 -69q-23 -75 -23 -113q0 -30 17 -30q43 0 67 15q-2 15 -2 77
q0 43 5.5 79.5t18 70t37 53t58.5 19.5q127 0 127 -118q0 -48 -18.5 -98.5t-29.5 -59.5q16 -39 53 -39q36 0 64 37l-1 1q16 21 25 65q-62 51 -62 114q0 42 26 71.5t62 29.5q39 0 66 -31t36 -67t9 -72q0 -20 -1 -29q5 -8 19 -8q26 0 26 9q-1 1 -7 1h-9q-10 0 -10 4
q0 83 32 132t95 49h1q24 0 42.5 -3.5t36.5 -14t27.5 -32t9.5 -54.5t-40 -81q-1 -21 -1 -90q0 -30 17 -30q43 0 67 15q-2 15 -2 77q0 43 5.5 79.5t18 70t37 53t58.5 19.5q127 0 127 -118q0 -48 -18.5 -98.5t-29.5 -59.5q16 -39 53 -39q30 0 57 28t38 80q-70 81 -70 164
q0 40 20.5 63.5t60.5 23.5q49 0 87.5 -54.5t38.5 -119.5q0 -36 -10 -59q9 -12 30 -12q25 0 51 21.5t29 21.5q49 -7 49 -47q0 -47 -33 -69.5t-80 -22.5q-44 0 -82 18z" />
    <glyph glyph-name="z_z" unicode="zz" horiz-adv-x="932" 
d="M713 -44q-41 0 -111.5 24.5t-127.5 66.5q-23 -38 -82.5 -69.5t-104.5 -31.5q-20 0 -46.5 4.5t-75 20.5t-102 57.5t-96.5 103.5q-24 11 -24 39q0 44 46.5 75t119.5 31q14 0 23 -6.5t12 -12.5l2 -7q11 11 34 59.5t23 49.5q-12 4 -24.5 10.5t-20.5 10.5t-11 4
q-17 0 -43 -26.5t-45 -28.5q-35 0 -35 76q0 58 31.5 102t87.5 44q38 0 149 -71q43 49 84 49q17 0 42.5 -21.5t35.5 -45.5q32 29 77 29q14 0 37.5 -13t63.5 -40t58 -38q39 49 82 49q22 0 52.5 -30t30.5 -57q0 -5 -2 -9v-3q0 -18 -56 -63t-141 -94q6 -13 52.5 -49t58.5 -36
q23 0 57 28t61.5 56t34.5 28q16 0 16 -29q0 -68 -81 -152t-142 -84zM327 102q7 0 16.5 3t16.5 5.5t20 8t19 8.5q-19 33 -24 61q-1 3 -1 11q0 43 58 70q-25 10 -25 76v3q-94 -117 -177 -164q4 -9 46.5 -45.5t50.5 -36.5zM533 325q-8 0 -15.5 -6.5t-18 -18t-17.5 -17.5
q17 4 44 4q20 0 39 -17q5 -5 -8 -22l-12 -18q12 9 53 50q-13 4 -28 15.5t-25 20.5t-12 9z" />
    <glyph glyph-name="word.and" unicode="&#x26;&#x26;&#x26;" horiz-adv-x="986" 
d="M678 342l-1 -1q2 62 48.5 114t108.5 56q-5 42 -22 65q-12 26 -11 31q0 26 35 48.5t64 20.5q64 -10 64 -131q1 -39 -2.5 -79t-17 -88t-36 -82.5t-64 -54.5t-96.5 -12q-13 0 -25 5q-23 8 -33 19q-66 -79 -124 -72q-38 5 -38 34q-2 30 15 94l4 20q-13 -2 -22 -11.5
t-13 -24.5t-6 -29t-3.5 -33t-3.5 -28l-1 -13q0 -17 -19.5 -31t-47.5 -10q-24 2 -33 17q-27 -27 -59 -41.5t-53 -12.5q-19 5 -23 8q-21 -25 -47 -37t-48 -10q-18 3 -31 9q-21 10 -30.5 31.5t-5.5 48.5q9 64 63.5 129.5t111.5 71.5l9 2q18 36 62 31q22 -6 26 -10
q18 -10 15 -31q-2 -51 -18 -104q-2 -5 -4.5 -13.5t-3.5 -11.5q3 2 10.5 5t12 6.5t8.5 10.5q20 125 23 137q12 45 43 50q11 2 25 0q8 -2 12.5 -4t10 -8t7.5 -17q6 5 19.5 20t22 23t23 14.5t28.5 4.5q57 -9 59 -55q0 -19 -6.5 -41t-16 -46t-11.5 -31l-4 -10q9 6 16.5 13.5
t17.5 19t14 15.5l-1 -1q0 4 3 10zM869 227q15 13 34 12.5t23 -17.5q2 -19 -11 -32q-15 -16 -48 -73t-68 -98t-73 -43q-20 -3 -175 -10q-29 -2 -84 -4t-90.5 -4t-57.5 -6q-30 -5 -56 -22.5t-37 -31t-27 -37.5q-2 -2 -9 -11.5t-9.5 -12.5t-8 -8.5t-10.5 -7.5t-11 -2
q-25 -1 -38 17t-9 42q8 66 95.5 135.5t262.5 96.5q19 4 138.5 1.5t136.5 -0.5q26 5 60 44q33 35 72 72zM101 316q-15 -15 -33 -17.5t-25 14.5q-6 20 7 33q13 18 36.5 78.5t52 105.5t67.5 53q56 16 172 31q208 39 226 44q67 19 104 105q3 5 9.5 16.5t10 16t9.5 9.5t13 6
q25 5 40.5 -11.5t15.5 -41.5q1 -22 -7.5 -47.5t-31.5 -57.5t-58 -61t-93 -58t-130 -50q-24 -7 -141 -20t-132 -16q-25 -9 -52 -51zM251 179l14 96q2 3 3 7v4q0 1 2 4t2.5 4.5t-1.5 3.5q-5 4 -11 -0.5t-12 -17t-9.5 -21.5t-9.5 -25q-17 -36 -17 -61q0 -11 12 -13q3 -1 27 19z
M794 329q1 -4 2 -4q10 -2 27 44t21 86l-3 -7q-14 -14 -24.5 -29t-15 -26t-7 -22.5t-2 -18t1 -14.5t0.5 -9z" />
    <glyph glyph-name="t_r" unicode="tr" horiz-adv-x="889" 
d="M841 170q4 5 11 14.5t12 16t11 13.5t11 11t9 4q16 0 28.5 -16.5t12.5 -32.5q0 -51 -42.5 -97.5t-101 -72.5t-108.5 -26q-64 0 -101 28.5t-37 83.5q0 42 17.5 95t34.5 64q-9 -4 -31 -4q-6 0 -12.5 0.5t-11.5 1t-9 1t-6 0.5l-3 1l-12 -14q-24 -46 -45 -79t-53.5 -70
t-68.5 -60t-86.5 -38.5t-109.5 -15.5q-46 0 -85 34t-47 79q-12 26 -12 115q0 45 4 82q-38 13 -38 62q0 46 17.5 60t47.5 14q25 105 62.5 159t103.5 54q51 0 108 -32.5t57 -71.5q0 -5 -11.5 -17.5t-31.5 -41t-35 -66.5q44 -2 67 -26t23 -58q0 -32 -21 -56.5t-57 -24.5
q-9 0 -12 1l-52 6q-8 -51 -8 -80q0 -43 15 -43q38 0 73 23.5t55.5 54t32.5 56.5t12 35q0 1 -1 2h1v1q0 2 -18 33.5t-21 45.5q-4 17 -4 40q0 58 30 98t67 40q3 0 17 -2q9 -8 46.5 -25.5t67 -37t29.5 -39.5t-30 -40q-11 -4 -15 -8.5t-6 -18.5t-3 -16q25 -12 75 -12q23 0 94 15
q38 -15 55.5 -32t17.5 -43q-2 -25 -7 -39q-7 -20 -19 -51t-18 -50t-6 -31v-2q38 10 71 46zM771 118l-1 1z" />
    <glyph glyph-name="x_r" unicode="xr" horiz-adv-x="1080" 
d="M1134 193q0 -37 -41 -86.5t-101 -86t-108 -36.5q-53 0 -93.5 25t-40.5 69q0 31 31.5 87.5t31.5 74.5q0 17 -13 27q-12 0 -31.5 -3t-34 -6t-15.5 -4q-10 -15 -35.5 -59t-38.5 -65t-40.5 -55t-51.5 -50.5t-60 -30t-76 -13.5q-112 0 -170 68q-48 -60 -132 -60q-9 0 -19 0.5
t-37.5 9.5t-47.5 25t-36.5 51t-16.5 83q0 53 18.5 91t55.5 38q30 0 67 -27q33 -30 33 -72q0 -14 -6.5 -28.5t-12.5 -21.5t-7 -7v-1q0 -2 2.5 -5.5t4.5 -3.5q15 0 32 17.5t29 41.5q-20 29 -56.5 108t-36.5 112q0 35 50 62.5t123 27.5q40 0 50 -15t15 -52t23 -66
q22 41 64 69.5t82 28.5q79 0 79 -109v-18q0 -17 -30.5 -35.5t-68.5 -42t-51 -48.5q24 -40 41 -58.5t37 -18.5q14 0 51 43q6 8 17.5 23.5t15 20.5t10.5 15.5t9 16.5l5.5 16.5t4 21t0.5 24.5q-18 18 -27.5 49.5t-9.5 55.5q0 50 27.5 84.5t63.5 34.5q42 0 101.5 -27t59.5 -61
q0 -11 -31.5 -41.5t-41.5 -59.5l12 13q13 13 14 13q26 -9 77 -9q16 0 43 7.5t33 7.5q25 0 54 -20.5t32 -34.5q2 -14 2 -17q0 -32 -24 -96.5t-24 -80.5q42 7 111 101l4 4q4 4 5 4q15 -3 28.5 -13.5t16.5 -26.5z" />
    <glyph glyph-name="t_i" unicode="ti" horiz-adv-x="646" 
d="M695 184q1 -3 1 -13q0 -36 -46 -82.5t-106.5 -78t-99.5 -31.5q-51 0 -79.5 21.5t-39.5 67.5q-46 -39 -101.5 -64.5t-100.5 -25.5q-61 0 -99.5 53.5t-38.5 126.5q0 74 28 229q-67 23 -67 84q0 48 100 48q39 183 105 183q51 0 115.5 -37t64.5 -80q0 -21 -24 -63h23
q8 0 13.5 -3t9 -10t5 -11t3.5 -15t3 -13q0 -2 0.5 -4t0.5 -3q0 -36 -23.5 -69t-47.5 -33q-2 0 -50 8q-16 -50 -30 -119.5t-14 -99.5q0 -35 14 -35q21 0 69 46q11 11 31 36q2 56 14 104t42 82.5t73 34.5q47 0 78.5 -11.5t43 -29.5t14.5 -29.5t3 -22.5t-3 -21t-10.5 -30
t-13.5 -38q-2 -6 -18 -102q24 11 111 98q8 6 17 3t18 -17.5t12 -33.5zM527 447q-26 0 -45 3.5t-39.5 14.5t-31 35.5t-10.5 61.5q0 58 30 95.5t69 37.5q46 0 103 -25.5t57 -56.5q0 -13 -18 -24q-12 -3 -28.5 -37.5t-34.5 -67.5t-35 -34q-2 0 -17 -3z" />
    <glyph glyph-name="i_t_t" unicode="itt" horiz-adv-x="892" 
d="M512 604q34 -31 34 -59q0 -10 -4.5 -21.5t-8 -17t-15 -21t-13.5 -18.5q14 1 26 2.5t17.5 2t10.5 0.5q16 117 55 191.5t102 74.5q10 0 24 -3q24 -5 56 -18t63.5 -38t31.5 -50q0 -11 -9 -26.5t-25.5 -45.5t-28.5 -67q5 0 17 -5q34 -11 51.5 -37t17.5 -60q0 -63 -128 -63
q-7 0 -11.5 -22.5t-6.5 -53.5t-3 -50.5t-1 -25.5q0 -42 21 -52q18 0 64 40q11 13 23.5 33.5t20.5 33t11 12.5q16 0 28.5 -20t12.5 -51q0 -66 -84 -129.5t-159 -63.5q-93 0 -125 65q-84 -54 -163 -54q-37 0 -71.5 23t-47.5 65q-120 -110 -182 -110q-96 0 -119 100
q-18 74 -18 157q0 134 100 134q83 0 113.5 -14t30.5 -60q0 -20 -11 -72.5t-11 -64.5q0 -11 5 -11q36 25 65 52q-15 37 -15 112q0 19 2 51h-6q-63 7 -108 24t-67.5 36.5t-35.5 47t-15.5 46.5t-2.5 45q0 55 32 86.5t91 31.5q30 0 68.5 -12.5t38.5 -33.5q0 -12 -13 -56.5
t-13 -61.5q0 -23 25 -23q6 0 27 1.5t20 2.5q-12 2 -17 3q-4 0 -8.5 1t-7.5 1l-3 1q20 180 89 180q36 0 81.5 -19t81.5 -46zM555 147q-13 74 -13 176q-11 1 -34.5 3t-34.5 4q-4 -31 -4 -68q0 -36 6.5 -70t12.5 -50l6 -17q32 6 61 22z" />
    <glyph glyph-name="f_r" unicode="fr" horiz-adv-x="897" 
d="M509 254h-1q-8 -8 -18.5 -19t-15 -15.5t-11 -9.5t-12.5 -6.5t-14 -1.5q-33 0 -80 6l4 -7q35 -57 35 -125q0 -98 -65 -171.5t-166 -73.5q-19 0 -37.5 3.5t-42.5 17.5t-41.5 37.5t-29.5 67t-12 102.5q0 50 17 159q-32 5 -43 15.5t-11 38.5q0 26 13.5 38.5t56.5 19.5
q47 204 81 282q47 106 103 106q156 0 209 -148v-2q0 -6 -15.5 -22.5t-36 -37t-43.5 -63t-35 -93.5l102 4q-7 35 -7 44q0 57 29.5 96.5t64.5 39.5q39 0 103 -25.5t64 -60.5q0 -8 -25.5 -33.5t-32.5 -48.5q10 -6 34 -6q39 0 127 18q4 -2 15.5 -7.5t14.5 -7l11 -5.5t10 -6
t7.5 -6.5t6.5 -7.5t4 -8.5t3.5 -11t1.5 -12.5t1 -16q-2 -31 -24.5 -92t-23.5 -76q16 3 38.5 20t36.5 43q3 6 18.5 21t21.5 15q15 -3 28.5 -13t16.5 -26q0 -29 -40.5 -76.5t-100 -85.5t-104.5 -38q-65 0 -101 31.5t-36 93.5q0 104 50 160q-17 -16 -52 -16q-6 0 -28 0.5
t-23 0.5zM285 89q-9 66 -36 90q-7 -11 -14.5 -47.5t-15.5 -84.5t-14 -71q4 -19 14 -19q21 0 43.5 35.5t22.5 96.5z" />
    <glyph glyph-name="s_r" unicode="sr" horiz-adv-x="833" 
d="M886 194q0 -37 -41 -86.5t-101 -86t-108 -36.5q-53 0 -93.5 25t-40.5 69q0 31 21.5 87.5t21.5 74.5q0 50 -82 32q-45 -11 -55 -21q-37 0 -74 25t-37 49q0 4 1.5 11.5t1.5 9.5q0 19 -17 19q-27 0 -27 -13q0 -19 34.5 -49.5t76 -57t78.5 -56.5t41 -48q2 -14 2 -21
q0 -61 -70.5 -104t-194.5 -43q-38 0 -68.5 2.5t-70.5 12.5t-66.5 27t-45.5 50t-19 78q0 49 34.5 91.5t54.5 42.5q27 0 62.5 -30t35.5 -63q0 -27 -29 -48v-1q0 -2 4.5 -7t18 -10t32.5 -5q44 0 44 25q0 18 -21 42.5t-45.5 44.5t-45.5 49t-21 56q0 53 51.5 85t140.5 32
q16 0 46 -2q6 48 34 78.5t62 30.5q35 0 96.5 -32.5t61.5 -67.5q0 -13 -34 -40t-48 -56q25 23 28 23q39 -17 87 -17q16 0 45.5 4.5t33.5 4.5q25 0 54 -20.5t32 -34.5q2 -14 2 -17q0 -32 -24 -96.5t-24 -80.5q42 7 111 101l4 4q4 4 5 4q15 -3 28.5 -13.5t16.5 -26.5z" />
    <glyph glyph-name="d_r" unicode="dr" horiz-adv-x="1033" 
d="M917 125v-1q48 18 118 106q-1 -1 2 -1v-1q17 -3 31 -15t17 -29q0 -29 -43 -77t-104.5 -85.5t-106.5 -37.5q-65 0 -101.5 29t-36.5 85q0 46 16.5 93.5t37.5 71.5q-58 -19 -84 -19q-11 0 -36 5q-49 -116 -100 -116q-21 0 -42 4q-24 -76 -99 -119.5t-188 -43.5
q-104 0 -164 71.5t-60 165.5q0 87 52.5 149t149.5 62q48 0 48 -48q0 -19 -17 -28t-27.5 -49t-10.5 -87q0 -108 49 -108q22 0 42 36.5t26 83.5t-4 90q-56 74 -96.5 189t-40.5 156q0 37 43 58t101.5 12.5t96.5 -47.5q112 -119 112 -384q0 -21 -1 -32q29 0 48 49q-30 22 -30 93
q0 67 27.5 105.5t70.5 38.5q11 0 16 -1q16 -5 37 -13t48 -20t45 -26t18 -25q0 -4 -1.5 -8.5t-1.5 -5.5q0 -10 -25 -30.5t-25 -43.5q0 -20 76 -20q4 0 29 8.5t43 8.5q49 0 71.5 -25.5t22.5 -58.5q0 -12 -3 -22q-7 -22 -19.5 -55t-19.5 -54t-7 -34zM918 118l-1 1z" />
    <glyph glyph-name="O_r" unicode="Or" horiz-adv-x="1328" 
d="M1362 184q0 -29 -40.5 -76.5t-99.5 -85.5t-104 -38q-54 0 -94 25t-40 70q0 30 29 81t29 71q0 29 -35 29q-12 0 -31.5 -3t-22.5 -3q1 -5 1 -14q0 -68 -66 -111t-129 -43q-47 0 -74 23q-140 -157 -380 -157q-78 0 -151 32.5t-123 100t-50 154.5q0 89 38.5 173.5t97.5 143
t126.5 95.5t126.5 42q25 79 120 79q41 0 81.5 -14.5t82.5 -46t75.5 -93t49.5 -145.5q10 -46 10 -93q0 -66 -23 -139q14 -14 27 -14q16 0 34.5 17t18.5 37q0 14 -4 25q-16 15 -25 44.5t-9 49.5q0 53 32 89t70 36q42 0 98 -24.5t63 -59.5q0 -14 -30.5 -34t-38.5 -39
q21 -10 84 -10q16 0 44 7.5t32 7.5q26 0 55 -20.5t32 -34.5q2 -14 2 -17q0 -31 -24 -96t-24 -80v-1q35 8 74 54q38 56 63 56q22 0 22 -50zM495 225q-58 75 -91.5 166.5t-40.5 183.5q-54 -31 -94.5 -121.5t-40.5 -188.5q0 -168 119 -168q84 0 148 128zM516 549
q0 -20 16.5 -68t23.5 -57q0 6 -0.5 14.5t-1 25.5t-3 32t-6 30t-10 24t-14.5 9q-5 0 -5 -10zM1204 117q-1 1 -1 3q0 -2 1 -3z" />
    <glyph glyph-name="W.swh_r" unicode="Wr" horiz-adv-x="1735" 
d="M1234 78q-56 0 -142 71q-23 -59 -82.5 -107t-124.5 -71t-119 -23q-97 0 -141 47q-36 -22 -85.5 -37.5t-86.5 -15.5q-152 0 -231 68.5t-79 227.5q0 79 23 152t66 170q-25 -1 -41 -2.5t-45 -9t-46.5 -19t-31.5 -34t-14 -53.5q4 -22 12.5 -33t15.5 -13t12.5 -7t5.5 -16
q0 -35 -45.5 -55.5t-87.5 -20.5q-48 0 -83 35t-35 106q0 69 55.5 125.5t144 89.5t190.5 50.5t205 17.5h21q11 0 33.5 -4.5t49 -21t26.5 -39.5q0 -3 -9 -30q-30 -49 -78.5 -184t-48.5 -218q0 -52 18.5 -84.5t58.5 -32.5q23 0 41 8q-36 38 -36 123q0 97 77.5 164.5t163.5 67.5
q48 0 73 -44t25 -109q0 -67 -27 -126.5t-76 -84.5q16 -1 50 -1q33 0 87.5 41t79.5 112q0 2 2 8q-36 44 -54.5 118.5t-18.5 119.5q0 103 91 103q163 0 163 -198q0 -46 -9 -102q10 -30 28.5 -49t38.5 -19q38 0 50 65q-42 42 -42 155q0 47 12.5 77.5t36.5 30.5q41 0 103 -25
t67 -56q2 -14 2 -21q0 -47 -21 -91q4 -3 14 -3q26 0 80 18.5t73 18.5q30 0 63 -25.5t33 -45.5q0 -4 -2.5 -15t-5 -21t-3.5 -10v1v1q-5 -28 -29 -90.5t-25 -78.5q33 7 63 40q40 59 52 59q15 -3 28.5 -13t16.5 -26q0 -29 -40.5 -76.5t-100 -85.5t-104.5 -38q-59 0 -97.5 28
t-38.5 86q0 46 16.5 96.5t34.5 74.5q-17 -17 -40 -17q-4 0 -11 0.5t-8 0.5h-3q-39 -92 -74.5 -133.5t-79.5 -41.5z" />
    <glyph glyph-name="V.swh_r" unicode="Vr" horiz-adv-x="1535" 
d="M1044 78q-56 0 -142 71q-23 -63 -90 -113.5t-137 -73.5t-124 -23q-152 0 -231 68.5t-79 227.5q0 79 23 152t66 170q-25 -1 -41 -2.5t-45 -9t-46.5 -19t-31.5 -34t-14 -53.5q4 -22 12.5 -33t15.5 -13t12.5 -7t5.5 -16q0 -35 -45.5 -55.5t-87.5 -20.5q-48 0 -83 35t-35 106
q0 69 55.5 125t144 89.5t191 51t204.5 17.5h21q11 0 33.5 -4.5t49 -21t26.5 -39.5q0 -3 -9 -30q-30 -49 -78.5 -184t-48.5 -218q0 -106 65 -116h15q33 0 87.5 41t79.5 112q0 2 2 8q-36 44 -54.5 118.5t-18.5 119.5q0 103 91 103q163 0 163 -198q0 -46 -9 -102
q10 -30 28.5 -49t38.5 -19q38 0 50 65q-42 42 -42 155q0 47 12.5 77.5t36.5 30.5q41 0 103 -25t67 -56q2 -14 2 -21q0 -47 -21 -91q4 -3 14 -3q26 0 80 18.5t73 18.5q30 0 63 -25.5t33 -45.5q0 -4 -2.5 -15t-5 -21t-3.5 -10v2q-5 -28 -29 -90.5t-25 -78.5q33 7 63 40
q40 59 52 59q15 -3 28.5 -13t16.5 -26q0 -29 -40.5 -76.5t-100 -85.5t-104.5 -38q-59 0 -97.5 28t-38.5 86q0 46 16.5 96.5t34.5 74.5q-17 -17 -40 -17q-4 0 -11 0.5t-8 0.5h-3q-39 -92 -74.5 -133.5t-79.5 -41.5z" />
    <glyph glyph-name="o_o" unicode="oo" horiz-adv-x="995" 
d="M822 371q1 -7 1 -17q0 -117 -260 -117q-65 0 -134 8q-4 -116 -79.5 -192t-155.5 -76q-111 0 -181 49t-70 133q0 117 68.5 197.5t183.5 80.5q37 0 57 -11q22 24 55 24q21 0 52.5 -25.5t52.5 -56.5q21 -2 94 -2q74 0 110 18l33 22q48 24 71 24q31 0 55 -13t31 -22t16 -24z
M202 117q26 2 39.5 33.5t13.5 76.5q0 31 -8 65q-10 6 -23 37q-26 -20 -44.5 -63t-18.5 -78q0 -27 9.5 -49t31.5 -22zM910 97q-41 -57 -90 -86t-122 -29q-84 0 -151.5 57.5t-67.5 139.5q0 115 59 184t172 69q21 0 49.5 -5.5t40.5 -13.5q13 7 30 7q42 0 72.5 -34t42 -72
t11.5 -68q0 -36 -10 -59q9 -12 30 -12q25 0 51 21.5t29 21.5q49 -7 49 -47q0 -47 -32.5 -69.5t-80.5 -22.5q-44 0 -82 18zM710 123q14 0 26 17.5t16 48.5q-11 8 -23.5 36.5t-18.5 56.5q-31 -51 -31 -94q0 -62 31 -65z" />
    <glyph glyph-name="C_r" unicode="Cr" horiz-adv-x="1174" 
d="M1223 184q0 -29 -40.5 -76.5t-100 -85.5t-104.5 -38q-53 0 -93.5 25t-40.5 69q0 29 29 81t29 73q0 28 -35 28q-11 0 -31 -3t-23 -3q-29 -51 -45 -77.5t-44.5 -64t-55 -56.5t-65 -38.5t-87.5 -27.5t-111 -8q-184 0 -280 75t-124 216q-6 30 -6 61q0 107 66 207t178 162.5
t237 62.5q50 0 93 -17t76 -62.5t33 -113.5q0 -62 -39.5 -101.5t-80.5 -39.5q-43 0 -114.5 46.5t-71.5 84.5q0 10 35.5 32t42.5 42q-49 -5 -85 -52t-51.5 -110.5t-15.5 -134.5q0 -36 6.5 -70t22 -68.5t47 -55t76.5 -20.5q79 0 120 16q94 37 132 164q-12 12 -20.5 39.5
t-8.5 42.5q0 58 25 95t58 37q42 0 102.5 -26.5t60.5 -61.5q0 -14 -25 -33t-31 -31q20 -10 84 -10q16 0 43 7.5t33 7.5q25 0 54 -20.5t32 -34.5q2 -14 2 -17q0 -32 -24 -96.5t-24 -80.5q35 7 74 54l37 52q0 -2 23 -15t26 -31z" />
    <glyph glyph-name="E.swh_r" unicode="Er" horiz-adv-x="1080" 
d="M406 752q96 0 164 -44t68 -100q0 -57 -51.5 -94t-131.5 -37q-47 0 -84 20t-37 46q0 15 38.5 38t38.5 30v2q-3 7 -7 10q-4 2 -5 2q-43 0 -70.5 -31.5t-27.5 -71.5q0 -64 71 -104q19 -7 40 -11.5t30 -6t15.5 -9t6.5 -23.5q0 -30 -26 -52.5t-69 -22.5q-19 0 -46 11
q-69 -27 -69 -83q0 -8 3 -19.5t12 -30.5t32 -31.5t56 -12.5q62 0 120 18.5t99 58t41 92.5v7q-18 18 -28 49.5t-10 54.5q0 48 26 83.5t57 35.5q44 0 107 -27t63 -61q0 -12 -24.5 -34t-31.5 -39q20 -10 86 -10q16 0 44 7.5t33 7.5q25 0 54 -20.5t33 -34.5q1 -3 1 -15
q0 -31 -24 -97.5t-25 -81.5q42 10 74 54l38 52l8 8q2 2 3.5 4t2.5 3l2 2q22 0 35.5 -17t13.5 -46q0 -11 -1 -18q-4 -29 -47.5 -72t-104.5 -76.5t-107 -33.5q-55 0 -95 25.5t-40 71.5q0 27 28 76.5t28 72.5q0 17 -7 23t-22 6h-9q-10 -1 -17.5 -0.5t-18.5 1.5t-21.5 4.5
t-19.5 8.5q-5 -2 12 -14q10 -6 15 -5q-17 -38 -34.5 -67t-55.5 -69t-85.5 -66t-125.5 -45t-174 -19q-54 0 -106 11.5t-100.5 36t-78 69t-29.5 102.5q0 62 43 98.5t129 73.5q-10 18 -31.5 41t-34 43.5t-12.5 47.5q0 40 21 81t62.5 78.5t117 61t172.5 23.5zM979 114q0 3 -1 4
q0 -3 1 -4z" />
    <glyph glyph-name="f_f_j" unicode="ffj" horiz-adv-x="1100" 
d="M1131 183v-7q0 -51 -149 -189q-6 -123 -67 -205.5t-161 -82.5q-14 0 -25 2.5t-26.5 11.5t-24 32.5t-8.5 59.5q0 10 1.5 19.5t3.5 17.5t6.5 17.5t7.5 15.5t10 15l10.5 13.5t12 13.5t11.5 12l13 13l12 12l3 3q0 -9 3 -23.5t6 -14.5v1v2q1 1 1 3q0 13 -2.5 91t-2.5 107
q0 71 4 120q-29 -4 -126 -6q48 -36 76 -85.5t28 -100.5q0 -76 -52.5 -131t-136.5 -55q-103 0 -140 97q-4 -77 -63 -131t-151 -54q-19 0 -40 3q-25 3 -44.5 18t-32.5 35.5t-22.5 52t-14.5 59t-8 66.5t-3.5 63.5t-1.5 60.5t-1 48q-38 13 -56.5 39.5t-18.5 56.5q0 14 33.5 27.5
t64.5 13.5q12 71 28.5 143t44.5 162.5t67 147t82 56.5q23 0 71 -15.5t92 -43.5t44 -55q0 -10 -38.5 -85t-84 -166t-57.5 -130q36 2 66.5 6t41.5 4q5 18 17.5 63.5t21.5 75t23.5 73t29 71.5t32.5 56t39 42t45 14q38 0 117 -36.5t79 -71.5q0 -15 -66 -112t-80 -144
q73 10 127 28.5t76 18.5q129 0 129 -113v-26q0 -28 -2.5 -76.5t-2.5 -52.5q11 15 43.5 45.5t49.5 30.5q26 0 36 -47zM986 455q-26 0 -45 3.5t-39.5 14.5t-31 35.5t-10.5 61.5q0 59 35 106t74 47q43 0 106.5 -35t63.5 -67q0 -13 -18 -24q-13 -7 -27 -31.5t-25.5 -48t-33 -43
t-49.5 -19.5zM259 134q-3 -15 -3 -73q0 -166 34 -166q13 0 25 25t12 62q0 65 -68 152zM612 -43q57 4 57 85q0 78 -56 123q-9 -40 -9 -104q0 -53 8 -104zM279 217q79 -51 118 -146q-1 12 -1 34q0 23 2 63.5t2 54.5q-83 0 -121 -6z" />
    <glyph glyph-name="amper_alt" unicode="&#x26;&#x26;" horiz-adv-x="1098" 
d="M408 99q131 -16 209 27.5t78 129.5q0 18 -3 41q-7 2 -24 2q-22 -1 -40 -22t-34 -41.5t-33 -20.5q-13 0 -22.5 10.5t-9.5 30.5q0 18 6 32q7 17 21.5 58.5t24.5 64.5t30 44t45 21q4 0 13.5 0.5t15.5 0.5q41 0 152 -12.5t152 -12.5q19 0 27 1q32 1 53.5 25.5t30.5 53
t20.5 52t24.5 23.5q22 0 36 -27.5t14 -59.5q0 -29 -8.5 -60.5t-30 -67t-53 -63.5t-83 -46t-115.5 -18q-46 0 -96 14q41 -50 41 -101q0 -59 -42.5 -108t-108 -78.5t-138.5 -45.5t-140 -16q-52 0 -107 7.5t-115.5 27.5t-107.5 49t-77.5 77t-30.5 108q0 63 44 100.5t130 74.5
q-38 18 -59 52.5t-21 77.5q0 40 20.5 81t62.5 79t118 62t174 24q100 -8 166 -47.5t66 -95.5q0 -57 -52.5 -94.5t-132.5 -37.5q-45 0 -79.5 18.5t-40.5 43.5q0 17 39 41.5t39 30.5q0 7 -6 11l-6 3q-42 0 -71 -33t-29 -72q0 -62 73 -102q19 -7 40 -11.5t30 -6t15.5 -9
t6.5 -23.5q0 -30 -26 -52.5t-69 -22.5q-22 0 -46 11q-37 -15 -53 -34t-17 -47q0 -26 9 -49.5t34.5 -45.5t65.5 -27z" />
    <glyph glyph-name="smiley" unicode="&#x28;&#x3a;" horiz-adv-x="563" 
d="M129 229q-1 13 -15 13q-13 -1 -13 -13q0 -6 4 -11t9 -5q6 0 10.5 5t4.5 11zM406 232q-1 13 -18 13q-15 -6 -15 -18q2 -14 15 -14q8 0 13 6t5 13zM495 374v-4q72 -89 72 -184q0 -97 -77.5 -156t-199.5 -61h-26q-124 2 -200.5 60.5t-76.5 156.5q0 61 31 122t79 105
q-7 18 -7 51q0 19 4.5 36t10.5 17q9 0 24 -21.5t23 -25.5l16 -9q52 20 132 20q47 0 94.5 -10.5t47.5 -20.5q37 25 72 25q9 0 9 -8q0 -16 -14 -49.5t-14 -43.5zM239 104l1 3q-1 0 -1 6.5v13.5t-1 12q18 2 18 25q0 12 -22 12h-3q-8 0 -11.5 -0.5t-6.5 -2.5t-4 -7q0 -9 7 -17.5
t16 -9.5q0 -29 1 -32q-3 0 -3 -2v-1q-2 -1 -5.5 -3.5t-5.5 -3.5q-28 -7 -48 13q1 0 -2 3l-2 2q-4 -2 -2 -7q6 -19 22.5 -26t34.5 -1q8 4 15 13q17 -29 53 -16q8 2 13 10t4 14q-2 5 -7 5l-2 -6q-2 0 -5.5 -3t-5.5 -4q-26 -8 -48 10z" />
    <glyph glyph-name=".notdef" horiz-adv-x="628" 
d="M141 125h281q-65 -53 -141 -53q-79 0 -140 53zM397 415l-273 -274q-52 58 -52 141q0 77 47 133h278zM420 438h-280q61 54 141 54t139 -54zM490 282q0 -74 -47 -134h-279l273 275q53 -68 53 -141zM349 38q-33 -9 -68 -9q-107 0 -180 74.5t-73 178.5q0 107 75 180.5
t178 73.5q106 0 179.5 -76.5t73.5 -177.5q0 -88 -52.5 -154.5t-132.5 -89.5zM342 506q-27 9 -61 9q-99 0 -165.5 -69t-66.5 -164t67 -164.5t165 -69.5q97 0 165 68t68 166q0 82 -49.5 143t-122.5 81z" />
    <glyph glyph-name=".null" horiz-adv-x="0" 
 />
    <glyph glyph-name="nonmarkingreturn" unicode="&#xd;" horiz-adv-x="269" 
 />
    <glyph glyph-name="NULL" horiz-adv-x="0" 
 />
    <glyph glyph-name="NULL" horiz-adv-x="0" 
 />
    <glyph glyph-name="space" unicode=" " horiz-adv-x="269" 
 />
    <glyph glyph-name="exclam" unicode="!" horiz-adv-x="394" 
d="M103 632q45 77 81 108t97 31q4 0 11 -0.5t11 -0.5q42 -5 97 -40t55 -75q0 -11 -27 -38q-170 -204 -170 -358v-30q0 -29 -8.5 -40.5t-38.5 -11.5q-87 0 -121 40.5t-34 144.5q0 195 47 270zM178 -20q-47 0 -88 25t-41 70q0 37 31.5 60t92.5 23q47 0 71.5 -21.5t24.5 -58.5
q0 -39 -24.5 -68.5t-66.5 -29.5z" />
    <glyph glyph-name="quotedbl" unicode="&#x22;" horiz-adv-x="478" 
d="M304 612q46 0 93.5 -23t47.5 -52q0 -27 -19.5 -82.5t-56.5 -106.5t-76 -51q-13 0 -22.5 3t-13.5 5t-14 11.5t-13 12.5q5 42 5.5 91.5t-0.5 92t15.5 71t53.5 28.5zM9 349q-1 5 -1 14v13l1 57q-9 43 -9 66q0 38 21 58t72 20q42 0 76 -16.5t34 -42.5q0 -32 -18.5 -88
t-52.5 -105t-69 -49q-42 0 -61 34q1 7 4 20t3 19z" />
    <glyph glyph-name="numbersign" unicode="#" horiz-adv-x="713" 
d="M665 256l-15 -1q-3 1 -70 9l-11 -39q91 7 93 7q35 0 49 -42q-3 -32 -35 -78t-71 -46q-7 0 -31 7t-44 11l-12 -56l-2 -19q-2 -21 -13 -33.5t-40 -23.5q-29 0 -55.5 16.5t-26.5 48.5q0 1 0.5 4t0.5 5t-1.5 16t-1.5 25q0 27 8 41h-1v1l1 1q-9 1 -26 1l-33 2
q-11 -30 -20.5 -64t-13.5 -47t-12 -26.5t-19.5 -17.5t-33.5 -6q-46 0 -68 67q18 38 39 98q-88 2 -106 9t-18 43q0 54 69 88q29 -6 97 -13q7 18 13 39l-65 -4q-6 0 -24.5 -1.5t-27.5 -1.5q-33 0 -45 40q2 54 51 80.5t114 26.5q13 0 37 -2q7 24 18 84l2 22q4 21 15 33.5
t38 21.5q30 0 67 -26.5t37 -62.5q0 -15 -18 -43.5t-19 -44.5l-1 -6l43 -3q12 1 24 30.5t21.5 64t30.5 63t48 28.5q48 0 69 -68q-17 -32 -47 -121q61 0 83 -10t22 -39q0 -57 -63 -88zM449 270h-7q-10 2 -57 4l-10 -34q3 -1 9 -1l53 -3q3 6 12 34z" />
    <glyph glyph-name="dollar" unicode="$" horiz-adv-x="468" 
d="M130 259q-51 34 -76.5 75.5t-25.5 80.5q0 23 11 53t38.5 54.5t64.5 17.5q0 5 -1.5 27.5t-1.5 37.5q0 85 45 85q41 0 65 -26t24 -69q0 -29 -7 -67q64 -6 114.5 -41.5t50.5 -77.5q0 -43 -12.5 -58.5t-38.5 -15.5l-20 3q-19 3 -36 6.5t-37.5 9.5t-32.5 16.5t-12 22.5
q0 3 2 9t2 12q0 5 -8 9.5t-16 4.5q-15 0 -15 -11q0 -24 25 -46.5t60.5 -44t70.5 -46t60 -62t25 -83.5q0 -51 -49 -101t-136 -61q-1 -7 -1 -22q0 -14 2 -38t2 -37q0 -30 -8.5 -46t-32.5 -16q-51 0 -71.5 35.5t-20.5 85.5q0 12 2 38q-86 8 -138 55t-52 96q0 44 34.5 86.5
t86.5 42.5q31 0 74 -31t43 -71q0 -15 -8.5 -25t-22.5 -10q-8 0 -24.5 3.5t-21.5 3.5q-7 0 -7 -5q0 -14 26 -25t61 -11q26 0 44 12.5t18 34.5q0 26 -28.5 60t-89.5 70z" />
    <glyph glyph-name="percent" unicode="%" horiz-adv-x="825" 
d="M-47 335q-1 7 -1 17q0 88 61 164t142 76q34 0 56 -13q1 1 8 1q-2 0 -4 1h14q104 0 104 -111q0 -14 -2 -27t-4.5 -19.5t-4.5 -7.5q11 0 30 24t21 41q7 19 16.5 52t15.5 48t20.5 28t37.5 13q50 0 97.5 -36.5t47.5 -89.5q0 -16 -9 -21q-32 -19 -122 -206t-154 -377v2
q-5 -23 -18.5 -30.5t-39.5 -7.5l-5 1q-6 1 -15.5 4t-20.5 7t-23 11.5t-22.5 17t-19 23.5t-11.5 31q-2 2 -2 6q0 2 0.5 4t0.5 3.5t1 3.5v1q5 11 53.5 123.5t76.5 183.5q-32 -30 -76.5 -48.5t-83.5 -18.5q-59 0 -109 36.5t-56 89.5zM417 33v8q0 87 60.5 164t139.5 77
q27 0 53 -15v1q0 2 10 6q61 0 89.5 -39.5t28.5 -94.5q0 -61 -33 -130v1q-19 -41 -69.5 -74t-106.5 -33q-61 0 -112.5 37t-59.5 92zM173 418q0 22 -12 42q-31 -41 -31 -93q0 -39 12 -39q15 0 23 27t8 63zM653 159q-22 -11 -41.5 -42t-19.5 -63q0 -11 2.5 -20.5t5.5 -13.5
t5 -4q11 0 22 38t11 71q0 4 -0.5 9.5t-0.5 7.5l7 4q7 3 9 13z" />
    <glyph glyph-name="ampersand" unicode="&#x26;" horiz-adv-x="762" 
d="M706 17q49 -3 72.5 -30.5t23.5 -62.5q0 -43 -33 -78t-77 -35q-53 0 -93.5 17t-81.5 51.5t-125 116.5q-108 -18 -177 -18q-203 0 -233 150q-3 12 -3 25q0 32 14 60.5t50.5 74t40.5 50.5q-43 49 -43 116q0 71 52 121.5t147 50.5q15 0 33 -9q45 16 93 16q55 0 95.5 -34
t40.5 -80q0 -34 -47.5 -80.5t-152.5 -122.5q81 -81 130 -113q38 41 38 88l-7 -4q-25 -4 -58 -4q-53 0 -58 32q15 35 36.5 57.5t44 35.5t64 19t77.5 7.5t103 1.5q56 0 83 -17.5t27 -44.5q0 -34 -36.5 -63.5t-85.5 -29.5q-31 0 -44 2q-31 -130 -70 -180q96 -88 143 -88
q3 0 17 2zM236 488q0 -39 2 -48q12 16 25 26l5 6q29 25 29 37q0 18 -16.5 23.5t-16.5 9.5q-13 -4 -19.5 -13t-7.5 -17.5t-1 -23.5zM182 191q0 -54 97 -72q-15 9 -48 42t-40 50q-9 -9 -9 -20z" />
    <glyph glyph-name="quotesingle" unicode="'" horiz-adv-x="199" 
d="M203 575q1 -2 1 -11q0 -30 -18 -81.5t-51.5 -97.5t-68.5 -50q-68 6 -68 31q0 6 0.5 15t0.5 15q0 29 -3 82t-3 78q0 39 16 58.5t66 19.5q35 0 80.5 -22t47.5 -37z" />
    <glyph glyph-name="parenleft" unicode="(" horiz-adv-x="502" 
d="M321 -146q-75 -14 -163.5 69t-104.5 164q-11 57 -11 106q0 76 23.5 142.5t70 120.5t124 89t178.5 44h10q32 0 52 -12t20 -27q0 -8 -15.5 -18.5t-39.5 -22t-32 -16.5q-160 -125 -160 -322q0 -106 47 -184q10 -18 27.5 -36.5t29 -30.5t11.5 -20q0 -17 -23.5 -30t-43.5 -16z
" />
    <glyph glyph-name="parenright" unicode=")" horiz-adv-x="525" 
d="M130 595q80 0 163.5 -71.5t103.5 -165.5q12 -73 9 -141.5t-32 -130t-75.5 -109t-120.5 -78.5t-168 -39q-34 -3 -55.5 7.5t-24.5 26.5q-1 13 9 16q139 73 196 195.5t30 259.5q-10 48 -37 97.5t-53 67.5q-25 21 2.5 43t52.5 22z" />
    <glyph glyph-name="asterisk" unicode="*" horiz-adv-x="516" 
d="M244 204l-13 -20q-14 -22 -24 -27.5t-29 -6.5q-31 0 -62 19t-31 44q0 23 48 68q-19 7 -37.5 11.5t-26.5 5.5t-15 5.5t-8.5 12t-1.5 24.5q6 85 78 85q21 0 43 -16q-13 10 -13 81q0 37 23 55t76 18q55 0 102 -28.5t47 -74.5q0 -37 -35 -80q4 1 19.5 10.5t23.5 9.5
q31 0 50.5 -21t21.5 -53q-8 -29 -34.5 -43t-78.5 -19q16 -21 34.5 -37t25.5 -33q0 -24 -28.5 -49.5t-59.5 -25.5q-29 0 -50 19.5t-45 65.5z" />
    <glyph glyph-name="plus" unicode="+" horiz-adv-x="557" 
d="M355 180l-18 -105q-18 -13 -52 -13q-55 0 -70 60q-4 8 -2 24.5t0 33.5q-91 0 -112 -2q-20 7 -44 36q-5 14 -5.5 25t4 18.5t11 12.5t18.5 8.5t23 5t27.5 2.5t29.5 1.5t31 0.5t31 1q4 57 -2 113q16 21 47 28t60 -5.5t37 -43.5q11 -32 3 -85q85 6 120 15q12 -6 17.5 -15
t8.5 -22t4 -16q5 -31 -39.5 -52.5t-127.5 -25.5z" />
    <glyph glyph-name="comma" unicode="," horiz-adv-x="362" 
d="M130 17q0 9 -21 26.5t-24 29.5q-8 41 17.5 64.5t77.5 23.5q48 0 87.5 -29t47.5 -71q7 -32 -10.5 -67.5t-45 -61t-55.5 -42.5t-43 -17q-28 0 -50.5 18t-28.5 41q0 5 4 9q19 11 31.5 29t13.5 29.5t-1 17.5z" />
    <glyph glyph-name="hyphen" unicode="-" horiz-adv-x="431" 
d="M125 285q84 -8 197 12q27 -8 43 -30.5t8 -50.5q-9 -43 -86 -49t-182 13q-41 24 -32 66q9 35 52 39z" />
    <glyph glyph-name="period" unicode="." horiz-adv-x="349" 
d="M192 -23q-28 1 -48 12q-65 29 -77 93q-6 35 23 60.5t80 25.5t84 -17.5t39 -46.5q8 -45 -22.5 -87t-78.5 -40z" />
    <glyph glyph-name="slash" unicode="/" horiz-adv-x="502" 
d="M130 -92q-17 -17 -53 -15q-27 5 -45 20t-41 44q-9 -8 2 7q11 16 69 93q233 304 303 424q14 25 26 58q18 6 33 8t34.5 -1.5t38.5 -19.5t36 -44q-6 -2 -38.5 -32t-83.5 -86.5t-103.5 -124.5t-102 -157.5t-75.5 -173.5z" />
    <glyph glyph-name="zero" unicode="0" horiz-adv-x="568" 
d="M454 125q-33 -59 -102.5 -97.5t-135.5 -38.5q-93 0 -155 57t-62 138q0 111 77.5 204.5t177.5 93.5q32 0 56 -14.5t24 -34.5q1 1 4.5 5t5.5 7t6 6.5t8 6t9.5 4t10.5 1.5q47 0 76.5 -27.5t39 -61t9.5 -72.5q0 -84 -49 -177zM275 356q-31 -2 -56.5 -57.5t-25.5 -109.5
q0 -66 41 -66q26 0 52.5 51t26.5 103q0 61 -38 79z" />
    <glyph glyph-name="one" unicode="1" horiz-adv-x="361" 
d="M64 235q-18 -5 -38 -5q-59 0 -59 40q0 14 46 56t101 86t64 55q13 24 42 25q38 -2 68 -9q69 -18 69 -57q0 -23 -21 -75t-42 -115.5t-21 -114.5q0 -35 6 -65t6 -36q0 -17 -15 -22.5t-61 -5.5q-69 0 -103 53t-34 130q0 30 5 63q-8 0 -13 -3z" />
    <glyph glyph-name="two" unicode="2" horiz-adv-x="469" 
d="M294 -99q-11 0 -24.5 10.5t-34 26t-93.5 37.5t-188 41q-5 0 -11.5 1.5t-13 6.5t-6.5 12q0 5 1 6q0 23 26.5 53t52.5 49.5t80 57.5q-33 3 -71.5 24.5t-38.5 51.5q0 7 -1.5 17t-1.5 18q0 64 56 112.5t171 48.5q246 0 246 -155q0 -59 -52 -107.5t-164 -97.5q3 0 59 -8l54 -8
q16 0 27.5 20t19.5 20q64 0 64 -58q0 -61 -50 -119t-107 -60zM156 323q0 -4 11 -62q76 57 76 89q0 16 -26 16q-22 0 -41.5 -12t-19.5 -31z" />
    <glyph glyph-name="three" unicode="3" horiz-adv-x="541" 
d="M263 478q74 0 141.5 -42t76.5 -82q4 -17 4 -38q0 -87 -89 -128q71 -71 71 -130q0 -61 -70 -103t-177 -42q-54 0 -97.5 10.5t-69.5 26t-44 35.5t-25 37.5t-7 32.5q0 47 42.5 72t97.5 25q23 0 42 -6q1 1 1 3q0 4 -1 9.5t-1 7.5q0 24 12 42q-54 5 -93 34t-39 90
q0 58 60.5 102t164.5 44zM203 316q0 -36 41 -67q38 42 38 91q0 26 -17 26q-23 0 -42.5 -14t-19.5 -36zM254 71q0 18 -45 46q14 -17 16 -41q-54 -28 -54 -42l2 -4q10 -6 40 -6q19 0 30 15t11 32z" />
    <glyph glyph-name="four" unicode="4" horiz-adv-x="441" 
d="M410 103q0 -29 -16.5 -50t-41.5 -21q0 -33 5.5 -71t5.5 -45q0 -18 -15 -25t-58 -7q-63 0 -92.5 33.5t-34.5 104.5h-11q-214 7 -214 106q0 41 33 102t82 118t115 97.5t124 40.5q9 0 27 -2q9 -2 21 -6.5t32 -13.5t33 -22.5t13 -29.5q0 -10 -6 -21l-14 -24q-40 -57 -40 -202
q31 -6 41.5 -18t10.5 -44zM114 177q-1 -2 3 -4.5t10.5 -3.5t13 -1.5t11.5 -0.5q6 0 6 80q-17 -10 -30.5 -30.5t-13.5 -39.5z" />
    <glyph glyph-name="five" unicode="5" horiz-adv-x="489" 
d="M245 300q-12 -23 -12 -29q56 -15 97 -37t61 -41t31 -44t13 -39t2 -33q0 -67 -67 -114t-174 -47q-46 0 -83.5 7.5t-60.5 20t-39 26.5t-23.5 29.5t-10.5 26.5t-3 19q0 50 41 81.5t103 31.5q34 0 59 -18.5t33 -34.5t8 -21q0 -7 -22 -25.5t-22 -38.5q0 -4 8 -4
q16 0 32.5 12.5t16.5 36.5q0 36 -32 68t-98 32q-44 0 -56 30q12 41 25 117t16 84q-3 2 -8.5 4.5t-8 4.5t-5 6t-2.5 9q0 15 36 36q13 7 36 16q24 0 86 -16t90 -16q63 0 106 21q20 0 30 -21.5t10 -42.5q0 -43 -40 -75t-104 -32q-25 0 -69 10z" />
    <glyph glyph-name="six" unicode="6" horiz-adv-x="433" 
d="M411 218q2 -22 2 -31q0 -90 -63 -141.5t-189 -51.5q-95 0 -144 66t-49 164q0 54 14 108.5t43 106t81.5 84.5t121.5 34q64 0 128 -34t64 -75q0 -12 -15 -31.5t-26 -19.5q-7 0 -10 12q-15 4 -28 4q-54 0 -111 -72q160 0 181 -123zM163 240q-21 -33 -21 -73q0 -30 13 -52.5
t37 -22.5q14 0 26.5 13.5t12.5 36.5q0 33 -17 64t-51 34z" />
    <glyph glyph-name="seven" unicode="7" horiz-adv-x="493" 
d="M357 254q-106 -133 -169 -349q1 -1 1 -5q0 -12 -14 -21.5t-23 -9.5q-46 0 -114.5 39.5t-76.5 62.5q-5 8 -5 20q0 56 74.5 158.5t169.5 163.5q-52 5 -82 5h-11q-12 -1 -27.5 -29.5t-34.5 -28.5q-67 0 -67 71q0 65 36.5 118.5t88.5 53.5q27 0 94.5 -14t124.5 -28l57 -14
q17 0 46 9t41 9q11 0 23 -5.5t12 -16.5q0 -23 -49 -84t-95 -105z" />
    <glyph glyph-name="eight" unicode="8" horiz-adv-x="477" 
d="M196 -21q-62 0 -115 12t-92 44t-39 79q0 80 100 160q-22 14 -38 52.5t-16 60.5q0 62 63.5 113t172.5 51q90 0 145.5 -36.5t55.5 -103.5q0 -49 -26.5 -86t-68.5 -48q28 -21 45.5 -40.5t23 -28t11.5 -27t8 -22.5q4 -13 4 -33q0 -64 -62.5 -105.5t-171.5 -41.5zM137 118
q6 -24 15 -24q22 0 35.5 16t13.5 38q0 44 -41 65q-29 -14 -29 -57q0 -16 6 -38zM243 426q-5 20 -21 20q-15 0 -23.5 -12.5t-8.5 -32.5q0 -54 33 -69q24 10 24 58q0 21 -4 36z" />
    <glyph glyph-name="nine" unicode="9" horiz-adv-x="428" 
d="M-31 243q-1 8 -1 23q0 88 57.5 143.5t162.5 55.5q108 0 162 -62t54 -176q0 -53 -17.5 -109.5t-50 -107.5t-87.5 -83.5t-122 -32.5q-65 0 -110.5 42t-45.5 91q0 19 11.5 31.5t31.5 12.5q16 -1 34.5 -10t32.5 -9q35 0 64 18t35 47q-20 -5 -43 -5q-62 0 -109 35t-59 96z
M207 226q15 15 15 45q0 29 -7.5 55t-21.5 26q-22 0 -35 -25.5t-13 -57.5q0 -54 29 -54q7 0 33 11z" />
    <glyph glyph-name="colon" unicode=":" horiz-adv-x="408" 
d="M314 62q1 -3 1 -11q0 -32 -29 -54t-68 -22q-57 0 -96 35.5t-39 80.5q0 67 81 67q52 0 99 -32.5t51 -63.5zM268 197q-49 0 -91 41.5t-42 82.5q0 60 92 60q62 0 95.5 -29t33.5 -72q0 -38 -24.5 -60.5t-63.5 -22.5z" />
    <glyph glyph-name="semicolon" unicode=";" horiz-adv-x="408" 
d="M367 291q1 -7 1 -17q0 -32 -28 -52.5t-65 -20.5q-52 0 -91.5 41.5t-39.5 84.5q0 56 83 56q54 0 95 -28.5t45 -63.5zM130 -10q0 13 -21 45t-21 40q0 28 23 48t66 20q62 0 101.5 -30t39.5 -80q0 -60 -46 -97.5t-115 -50.5q-52 4 -67 56q0 6 3 9q39 25 39 34q0 4 -2 6z" />
    <glyph glyph-name="less" unicode="&#x3c;" horiz-adv-x="500" 
d="M377 65q-30 -42 -43.5 -56t-27.5 -14t-33.5 14t-66 51t-95.5 70q-24 1 -35.5 2.5t-25.5 6t-19.5 13.5t-5.5 23q0 24 27 45t71 34q26 14 76 50.5t89.5 64t54.5 27.5q22 0 35.5 -22t13.5 -37q0 -55 -137 -150q113 -76 122 -122z" />
    <glyph glyph-name="equal" unicode="=" horiz-adv-x="539" 
d="M127 124q65 8 286 28q36 -19 36 -81q0 -17 -7 -29t-22 -19.5t-30 -12t-41 -6.5t-43 -2.5t-48 -0.5q-63 0 -82 2l-40 3q-22 1 -32 2.5t-20 7t-13 16t-3 29.5q0 48 59 63zM74 327q36 3 87 6t75 5t58 7t67 14q42 -17 42 -75q0 -73 -162 -73q-1 0 -32 1t-73 2t-68 1
q-30 0 -47 10.5t-19 43.5q6 26 23 38t49 20z" />
    <glyph glyph-name="greater" unicode="&#x3e;" horiz-adv-x="462" 
d="M150 377q-4 2 55 -37.5t122.5 -81t71.5 -44.5q4 -24 -25 -46t-74 -35q-48 -25 -117.5 -75.5t-101.5 -70.5q-32 6 -48 31q-2 1 -14 22q3 23 59.5 85.5t92.5 73.5q-10 7 -20 15t-17.5 14.5t-16.5 16t-13.5 15t-13 16.5t-11 14t-10.5 14.5t-9 12.5q2 26 21 48t44 22
q12 0 25 -10zM399 214v2q2 -2 0 -2z" />
    <glyph glyph-name="question" unicode="?" horiz-adv-x="585" 
d="M193 -31q-52 0 -101 29.5t-49 71.5q0 32 32.5 56.5t78.5 24.5q60 0 88 -27.5t28 -71.5q0 -83 -77 -83zM306 529q-11 -54 -50.5 -83t-69.5 -20q-46 8 -87 60t-41 101q0 55 75.5 103t166.5 48q127 0 212 -67t85 -164q0 -18 -10 -34.5t-35 -37t-50 -37t-73.5 -49
t-85.5 -58.5q-27 -24 -45 -59q-2 -3 -7.5 -16t-9 -16t-16 -7.5t-32.5 -4.5q-35 0 -73.5 25t-38.5 61q0 24 25 51t60.5 51.5t70.5 50t60 56t25 59.5q0 45 -21 45q-9 0 -24 -12.5t-15 -30.5q0 -5 2 -9.5t2 -5.5z" />
    <glyph glyph-name="at" unicode="@" horiz-adv-x="830" 
d="M423 588q177 0 268 -75t91 -200q0 -107 -70 -199.5t-183 -123.5q9 -8 20 -25q0 -43 -67.5 -86.5t-135.5 -47.5q-147 0 -241.5 72.5t-120.5 194.5q-2 24 -2 37q0 111 60 216t163 171t218 66zM170 83q-6 27 -6 54q0 147 157 234q59 31 77 37l11 -1q15 12 23.5 18t24 11.5
t34.5 5.5q34 0 68.5 -21.5t48.5 -37.5q6 -10 6 -20q0 -42 -26 -193q50 29 50 112q0 91 -45.5 142t-160.5 51q-142 0 -238 -84.5t-96 -196.5q0 -108 68 -171.5t175 -63.5q90 0 125 29q-55 9 -75 68q0 -28 -27 -44t-66 -16q-45 0 -83 22.5t-45 64.5zM385 145l20 173
q-48 -32 -63.5 -58.5t-15.5 -63.5q0 -13 2 -22.5t6 -14.5t8 -9t10 -5t9.5 -1.5t9.5 0.5h6q6 0 8 1z" />
    <glyph glyph-name="A" unicode="A" horiz-adv-x="922" 
d="M710 720v-1q48 -26 48 -66q0 -6 -5.5 -37t-5.5 -77q0 -85 13.5 -229.5t23.5 -180.5q1 -4 2.5 -8t2 -6t0.5 -3v-1q15 1 32 17t46 51.5t53 59.5q50 -6 59 -34q-11 -29 -33.5 -64.5t-58 -75t-88 -65.5t-110.5 -26q-13 0 -20 1v-1q-70 13 -92 70q-49 41 -178 124l-55 -70
q-76 -98 -125.5 -141t-96.5 -43q-48 0 -84.5 59.5t-36.5 99.5q0 22 22 40t67.5 47t79.5 63q-35 9 -55 36t-20 52q0 10 3 19q-38 11 -65 52t-27 106q0 67 43 117t121.5 79t179 43t226.5 14q76 0 134 -21zM260 432q-2 -3 -4 -10t-3 -11q40 -6 59 -13q29 46 41.5 81t23.5 93
q-96 -4 -121 -11q-43 -14 -44 -49q0 -22 4.5 -36.5t11.5 -20.5t14 -9.5l12 -6t6 -7.5zM524 446q-7 -40 -17 -79t-11 -55q10 -12 25 -22.5t24 -22.5q-8 34 -12 70t-5.5 67t-3.5 42z" />
    <glyph glyph-name="B" unicode="B" horiz-adv-x="1017" 
d="M609 -27q-53 0 -143 18v-9q0 -53 -90 -53q-98 0 -146.5 59t-48.5 169t35 242t107 230q-155 0 -155 -83q0 -15 11 -37t11 -32q0 -37 -44 -63t-91 -26q-92 0 -92 134q0 86 68 145t174 84t242 25q230 0 367.5 -70.5t137.5 -169.5q0 -116 -177 -204q147 -79 147 -197
q0 -75 -91.5 -118.5t-221.5 -43.5zM516 279l-50 6q-1 0 -7.5 1.5t-10.5 2.5q-16 -68 -16 -139q0 -36 4 -63l66 -4q42 0 77.5 7t61.5 25t26 46q0 36 -37 72.5t-114 45.5zM646 485q0 70 -68 108q-42 -53 -75.5 -119t-36.5 -90q91 6 135.5 28.5t44.5 72.5z" />
    <glyph glyph-name="C" unicode="C" horiz-adv-x="692" 
d="M675 607q3 -18 3 -33q0 -61 -39.5 -97t-75.5 -36q-52 0 -114 36.5t-62 76.5t49 54q15 4 13 29q-49 -6 -84 -52.5t-50.5 -109.5t-15.5 -133q0 -37 6 -70.5t21 -68.5t47 -56t77 -21q70 0 126.5 20.5t84 44.5t47.5 44.5t24 20.5q19 0 28.5 -11t9.5 -46q0 -94 -107.5 -155.5
t-257.5 -61.5q-125 0 -210.5 36.5t-130 99t-62.5 155.5q-7 37 -7 63q0 107 66 206.5t178 161.5t237 62q75 0 128.5 -37.5t70.5 -121.5z" />
    <glyph glyph-name="D" unicode="D" horiz-adv-x="1013" 
d="M265 635q-40 0 -81 -6t-82 -18.5t-67 -37t-26 -57.5q0 -22 13 -44q-21 -32 -66.5 -49t-70.5 -17q-33 0 -55.5 30.5t-22.5 89.5q0 67 43 116t117.5 76.5t161.5 40.5t187 13q63 0 121.5 -5.5t123.5 -19.5t120 -36t106.5 -59t87 -84.5t57 -114.5t21.5 -148
q0 -159 -120.5 -245.5t-319.5 -88.5q-9 -42 -89 -42q-98 0 -146.5 59t-48.5 169q0 109 35 241t106 229q-56 8 -105 8zM535 93q26 0 49.5 7t49.5 25.5t41 58.5t15 98q0 56 -12 116q-18 90 -95 149q-33 -44 -56 -109t-32 -128.5t-12 -100.5t-3 -59q0 -37 2 -48q30 -9 53 -9z
" />
    <glyph glyph-name="E" unicode="E" horiz-adv-x="616" 
d="M466 378q1 -3 1 -12q0 -30 -26 -52.5t-69 -22.5q-22 0 -46 11q-70 -27 -70 -81q0 -8 2.5 -19.5t10.5 -30t28 -31.5t50 -15q57 0 103 14t76 33.5t56 39t54.5 33.5t58.5 14q14 0 28 -10.5t14 -22.5q0 -14 -14 -41t-49 -62.5t-83.5 -67t-127.5 -53t-172 -21.5
q-35 0 -70.5 3.5t-77 12t-76.5 25t-64 39.5t-46 58.5t-17 79.5q0 63 44 100.5t130 74.5q-38 18 -59 52.5t-21 77.5q0 40 20.5 81t62.5 79t118 62t174 24q100 -8 166 -47.5t66 -95.5q0 -57 -52.5 -94.5t-132.5 -37.5q-45 0 -79.5 18.5t-40.5 43.5q0 17 39 41.5t39 30.5
q0 7 -6 11l-6 3q-42 0 -71 -33t-29 -72q0 -62 73 -102q17 -7 36.5 -10.5t29 -5t16.5 -6.5t9 -16z" />
    <glyph glyph-name="F" unicode="F" horiz-adv-x="934" 
d="M436 355q-6 66 -6 120q0 75 11 140q-219 0 -219 -101q0 -4 2 -18q4 -23 11.5 -35t15 -14t13 -7.5t5.5 -16.5q0 -26 -25.5 -46.5t-56 -29t-57.5 -8.5q-53 0 -85.5 39t-32.5 116q0 57 27.5 102.5t68 74.5t104 50t119 31.5t130 16.5t119 7t104.5 1q52 0 116 10t97 10
q37 0 61.5 -30t33 -68t8.5 -81q0 -32 -23.5 -46t-86.5 -14q-23 0 -52.5 3.5t-63.5 8.5t-47 7q-28 -73 -32 -146q35 6 75 6q91 0 132.5 -29t55.5 -108q3 -13 3 -28q0 -52 -37 -52q-15 0 -77.5 23t-99.5 23q-29 0 -59 -9q0 -157 -54 -255.5t-149 -98.5q-99 0 -158 57t-59 137
q0 29 6.5 58.5t23 66t52 71.5t86.5 62zM426 21q9 0 17 23.5t8 52.5q0 53 -3 90q-49 -28 -49 -100q0 -66 27 -66z" />
    <glyph glyph-name="G" unicode="G" horiz-adv-x="745" 
d="M398 -298q-69 0 -142.5 58t-73.5 115q0 28 32 60t76 58q-170 0 -243.5 69t-73.5 199q0 125 68.5 233.5t194 175t279.5 66.5q60 0 106.5 -51.5t46.5 -129.5q0 -67 -35.5 -118.5t-68.5 -51.5q-36 0 -114 50t-78 88q0 20 39.5 42t39.5 34q0 5 -3 11t-8 4q-38 -6 -71 -45.5
t-53 -95.5t-31.5 -116.5t-11.5 -111.5q0 -57 17.5 -89t70.5 -32q24 0 88 30q-1 17 -1 45q0 41 4.5 66t16.5 34.5t21 11.5t27 2h6q37 0 105 -25t73 -57q2 -14 2 -25q-10 -48 -15.5 -118t-8.5 -118.5t-18 -103t-42 -87.5t-82.5 -55t-138.5 -22zM441 15q-54 -16 -97 -20
q10 -10 20 -41t29 -52t57 -21q3 0 3 11q0 10 -2 30t-5 47.5t-5 45.5z" />
    <glyph glyph-name="H" unicode="H" horiz-adv-x="866" 
d="M827 180q2 3 11 14t15 18t14.5 13.5t14.5 6.5q15 0 30 -11t15 -23q0 -30 -27.5 -72.5t-69 -81t-98.5 -66t-109 -27.5q-79 0 -110 37t-31 103q0 36 6 75q-4 0 -10 0.5t-9 0.5q-33 0 -75 -7q-12 -59 -22.5 -99.5t-27 -83t-36.5 -67.5t-49 -41t-66 -16q-104 0 -163 63.5
t-59 149.5q0 64 56.5 119t122.5 65q8 78 4 135t-1 128t20 126q27 81 141 81q143 0 143 -57q0 -59 -13.5 -170.5t-30.5 -187.5q61 16 102 16q37 209 68 291t90 99q78 0 133.5 -25.5t55.5 -64.5q0 -42 -69.5 -256t-69.5 -252q0 -7 1 -12t1 -6t-1 -2v-1q14 1 26.5 10.5t37 36.5
t39.5 41zM125 11q5 0 8.5 6t5.5 18.5t3 24t2.5 30.5t2.5 29h-4q-25 0 -38.5 -19t-13.5 -45q0 -19 9 -31.5t25 -12.5z" />
    <glyph glyph-name="I" unicode="I" horiz-adv-x="750" 
d="M437 563q2 7 6.5 21t6.5 22q-227 -7 -227 -120q0 -24 4 -38t10.5 -18t12.5 -5.5t10 -6t4 -14.5q0 -36 -45.5 -58t-89.5 -22q-110 0 -110 126q0 73 57 129.5t150 89t197 49t211 16.5q16 0 32 -3.5t35 -12.5t31 -31t12 -54q0 -34 -16 -59q-71 -161 -71 -404q0 -44 3 -86
q11 -68 11 -73q0 -21 -13 -31t-45 -10q-84 0 -116 52q-35 41 -55 159t-20 226q0 98 15 156z" />
    <glyph glyph-name="J" unicode="J" horiz-adv-x="774" 
d="M312 -9q43 0 74.5 60.5t47.5 149t27 178.5t22.5 160.5t25.5 83.5q-2 -1 -11 -1q-269 0 -269 -120q0 -31 6.5 -46t14 -16t14 -5.5t6.5 -16.5q0 -37 -45.5 -58t-89.5 -21q-110 0 -110 128q0 71 53 126.5t142 88t197 49t227 16.5q109 -8 109 -63q0 -92 -30 -309.5
t-70 -286.5q-50 -91 -157 -149t-220 -58q-69 0 -129.5 22t-110.5 75.5t-65 132.5q-4 17 -4 41q0 63 38 97t98 34q50 0 82 -22.5t32 -56.5q0 -20 -18.5 -50.5t-37.5 -51.5q21 -42 65 -76.5t86 -34.5z" />
    <glyph glyph-name="K" unicode="K" horiz-adv-x="1024" 
d="M734 637q-53 -90 -68 -150l-23 -76l-14 -72h11q18 0 25 11q18 26 37.5 76.5t37.5 94.5t43 87.5t65.5 69t95.5 25.5q9 0 33 -2q37 -7 89.5 -31.5t52.5 -50.5q0 -14 -30 -20q-37 -15 -67.5 -46.5t-53 -67.5t-46 -72t-57.5 -68t-76 -49q59 -23 87 -53q14 -17 37.5 -79
t43.5 -66q4 2 17.5 6.5t25 9.5t19.5 13q3 6 16 6q16 0 32 -8.5t16 -20.5q0 -22 -52 -54t-114 -54.5t-93 -22.5q-40 6 -65 28t-33.5 51t-16 63t-14 63t-26.5 51t-54 28q-7 -68 -7 -109q0 -80 24 -109q4 -9 4 -22q0 -26 -25 -40.5t-63 -14.5q-83 0 -136 50.5t-53 147.5
q0 239 104 472q-3 0 -11 0.5t-14 0.5q-38 0 -79 -5t-89.5 -17t-79 -38.5t-30.5 -64.5q0 -30 6.5 -45t14 -16t14 -6t6.5 -17q0 -25 -24 -43.5t-53.5 -26.5t-56.5 -8q-109 0 -109 127q0 68 52.5 122.5t140.5 88t194 52t222 20.5q20 0 41.5 -3t54.5 -11.5t54 -32t21 -57.5
q0 -8 -4 -15z" />
    <glyph glyph-name="L" unicode="L" horiz-adv-x="598" 
d="M337 133q55 -8 101.5 -26t81.5 -40t70.5 -44.5t86 -42.5t110.5 -30q2 0 32.5 11.5t58.5 11.5q54 0 80 -34.5t26 -62.5q0 -34 -9.5 -66t-30 -61.5t-58 -47.5t-88.5 -18q-77 0 -144 20t-112 49.5t-87.5 64t-73 64t-65 49.5t-67.5 20q-23 -27 -54 -45t-49 -18
q-47 0 -89.5 37.5t-64.5 84t-22 80.5q0 71 150 71q3 16 13.5 62.5t18 89t7.5 67.5q0 5 41 11q-67 0 -99 22t-32 70q0 18 42 18q34 0 49 -2q-1 11 -1 31q0 100 57 147t185 47q78 0 136 -37t58 -108q0 -46 -39.5 -83t-133.5 -72q-12 -135 -85 -290zM454 599q-19 -9 -19 -55
q1 1 17.5 8.5t16.5 16.5t-3.5 16.5t-7 10.5t-4.5 3z" />
    <glyph glyph-name="M" unicode="M" horiz-adv-x="1173" 
d="M582 713q62 0 94 -25.5t32 -72.5q0 -14 -3 -29q-2 -15 -23.5 -55.5t-40 -103t-18.5 -142.5q0 -35 4 -66q38 113 111 225t146.5 179.5t118.5 67.5q13 0 34.5 -2.5t53 -8.5t53 -21.5t21.5 -37.5q0 -26 -43 -126q-99 -229 -99 -314q0 -59 35 -59q11 0 23 6.5t26.5 19
t25.5 24t28 29.5t26 27q5 0 20.5 -17t17.5 -33q-1 -18 -17 -54q-21 -45 -94 -97t-139 -52q-58 0 -88.5 19t-38.5 63q-5 23 -7.5 44.5t-3.5 46.5t-1.5 40t0 45.5t0.5 41.5q-32 -36 -66 -98.5t-56.5 -107.5t-62 -80t-90.5 -35q-38 0 -71.5 33.5t-33.5 81.5q0 21 28 51
q-2 14 -7.5 61.5t-11.5 68.5q-7 -14 -24.5 -53.5t-31.5 -70.5t-38 -71t-48 -66.5t-57.5 -45t-69.5 -18.5q-256 0 -256 181q0 69 52.5 107.5t119.5 38.5q49 0 82.5 -21t34.5 -59q-2 -28 -36.5 -68t-34.5 -62q0 -2 0.5 -3t0.5 -3q-1 -1 -1 -2q38 7 62.5 62t54 169t53.5 179
q7 16 24 64t29 79q-190 -8 -190 -102q0 -11 3 -23q4 -22 11.5 -33.5t14.5 -13.5t12.5 -7t5.5 -16q0 -34 -45 -55t-88 -21q-47 0 -81.5 34.5t-34.5 105.5q0 69 53.5 121t142.5 80.5t189 42t208 13.5z" />
    <glyph glyph-name="N" unicode="N" horiz-adv-x="957" 
d="M797 632q38 75 60.5 96t62.5 21q29 0 63 -2q37 -3 80.5 -32.5t43.5 -62.5q0 -19 -43 -84q-97 -152 -141 -337q-9 -39 -14.5 -80.5t-7 -66t-5.5 -48t-13 -35t-28 -18.5t-50 -7q-55 0 -79.5 24t-30.5 74q-29 19 -63.5 69t-53.5 87.5t-21 45.5q0 -82 -35.5 -151t-90.5 -112
t-117.5 -66.5t-119.5 -23.5q-103 0 -161 51.5t-79 155.5q-4 20 -4 44q0 65 38.5 99t108.5 34q46 0 79 -19t40 -48q-2 -18 -24 -61.5t-22 -64.5q0 -51 65 -51q51 2 76 62q20 48 52 237q4 27 6 38q3 17 13 84t19.5 104t23.5 59q-2 0 -23.5 -2t-32 -3t-34 -5t-37 -8.5t-32 -13
t-29 -19t-18 -26t-7.5 -33.5q0 -17 2 -22q4 -23 12 -34.5t15 -12.5t12.5 -6t5.5 -16q0 -37 -47 -57.5t-93 -20.5q-44 0 -76 36.5t-32 105.5q0 71 53.5 124t142.5 81.5t187 42t205 13.5q66 0 92.5 -22t26.5 -63q0 -32 -19 -121.5t-19 -137.5q0 -77 23 -124q28 211 94 329z
" />
    <glyph glyph-name="O" unicode="O" horiz-adv-x="832" 
d="M598 760q159 -73 201 -287q10 -46 10 -93q0 -66 -23 -139q20 -11 25 -11q18 0 35.5 3.5t34.5 3.5q31 0 54.5 -25.5t23.5 -56.5q0 -32 -42.5 -49.5t-91.5 -17.5q-85 0 -120 21q-140 -157 -380 -157q-65 0 -131 24t-118.5 75.5t-66.5 118.5q-8 43 -8 77q0 90 39 177
t97.5 148.5t126 99t124.5 37.5q8 0 10 -1q26 71 104 71q42 0 96 -19zM400 475q-9 35 -14 101q-54 -28 -96 -120t-42 -191q0 -168 119 -168q84 0 148 128q-82 105 -115 250zM536 550q0 -20 19 -69.5t26 -56.5q0 1 0.5 9.5t0.5 17t-0.5 21.5t-2 24.5t-4 23.5t-7 20.5t-11 14
t-15.5 5.5q-6 0 -6 -10z" />
    <glyph glyph-name="P" unicode="P" horiz-adv-x="845" 
d="M869 531q0 -124 -101.5 -201t-251.5 -83q-11 -102 -11 -114q0 -81 25 -145q2 -14 2 -16q0 -51 -89 -51q-149 0 -179 121q-17 29 -17 109q0 110 34.5 241t105.5 229q-40 0 -77 -3.5t-82.5 -13.5t-73 -34.5t-27.5 -59.5q0 -16 6 -35q5 -18 14 -26t16.5 -7.5t13 -3
t5.5 -14.5q0 -36 -45 -56.5t-90 -20.5q-49 0 -84 39.5t-35 116.5q0 72 45.5 126t124.5 84t170.5 44t196.5 14q46 0 88.5 -3.5t90.5 -13t86.5 -27t70.5 -43t50 -65t18 -88.5zM642 499q0 38 -17 64q-48 -75 -89 -201q49 2 77.5 43.5t28.5 93.5z" />
    <glyph glyph-name="Q" unicode="Q" horiz-adv-x="841" 
d="M-8 49q-6 40 37 69t125 29q97 0 218 -53q76 68 125.5 154t49.5 180q0 36 -4 53q-13 58 -34.5 82t-74.5 24q-64 0 -121 -92t-57 -188q0 -17 2 -31q6 -37 -32.5 -58t-97.5 -21q-22 0 -44.5 4.5t-49.5 16.5t-43.5 38.5t-16.5 65.5q0 18 3 38q11 63 49.5 128.5t96.5 120
t139.5 89t167.5 34.5q164 0 269 -71t126 -176q6 -30 6 -61q0 -105 -76.5 -202.5t-247.5 -201.5h-4q79 -37 199 -70t212 -41q47 5 81 39q1 1 8.5 8t10.5 10t11 8.5t14 8t16 4.5t21 2q57 0 71 -71q13 -77 -72 -151.5t-217 -74.5q-50 0 -95 6.5t-88 23.5t-71 29t-69 40
t-55.5 39t-55.5 42q-10 8 -30.5 24.5t-33 27t-29 22t-28.5 18.5q-3 -1 3.5 -7.5t12.5 -13t3 -7.5q-57 -16 -128 -16q-79 0 -135.5 35t-66.5 94z" />
    <glyph glyph-name="R" unicode="R" horiz-adv-x="987" 
d="M674 757q140 0 207.5 -57t61.5 -145q-13 -177 -208 -287q23 -22 50 -62t45.5 -67t26.5 -27q-1 0 -10 -19l-2 -4l14 17q14 16 25 26t34 20.5t49 10.5q17 0 21.5 -8.5t3.5 -25.5q-5 -55 -69.5 -114.5t-157.5 -59.5q-61 0 -86.5 12t-38.5 50q-17 31 -32.5 82t-30 83.5
t-38.5 44.5q-5 1 -16 3t-23 6q-5 -25 -7 -51q-3 -60 0 -92t7.5 -55.5t3.5 -31.5q-1 -18 -12.5 -25.5t-40.5 -7.5q-71 0 -103 44q-57 100 -43 299q6 82 25 157t41 109q-28 -3 -50.5 -7t-48.5 -11.5t-42.5 -17.5t-31 -24.5t-14 -32.5t7.5 -43q6 -22 28.5 -33.5t24.5 -18.5
q6 -47 -48.5 -75t-118 -7.5t-80.5 92.5q-15 68 6.5 124.5t73 93.5t119.5 64.5t152.5 42.5t163.5 21.5t161 6.5zM522 387q86 -8 133.5 29t54.5 91q6 44 -40.5 67t-105.5 11q19 -15 23.5 -23.5t1.5 -25.5q-2 -17 -30.5 -72.5t-36.5 -76.5z" />
    <glyph glyph-name="S" unicode="S" horiz-adv-x="642" 
d="M323 200q-17 35 -52 66t-70.5 54.5t-69.5 51.5t-55.5 70.5t-21.5 98.5q0 87 71 139t202 52q111 0 169 -58t58 -126q0 -79 -64 -97q-58 -14 -110 14.5t-52 66.5q0 8 11.5 16t11.5 26q0 10 -15 17t-33 7q-17 0 -28.5 -8.5t-11.5 -24.5q0 -34 36.5 -66.5t88.5 -63t104 -65.5
t88.5 -86.5t36.5 -112.5q0 -90 -87 -151.5t-265 -63.5q-156 0 -247.5 68t-91.5 149q0 57 49.5 105.5t121.5 48.5q21 0 44.5 -4.5t50 -15.5t43.5 -34t17 -56q0 -80 -41 -80q-21 0 -55 22l-33 22q-3 0 -5 -5q0 -31 46.5 -58t107.5 -27q28 0 47.5 15t19.5 40q0 20 -16 54z" />
    <glyph glyph-name="T" unicode="T" horiz-adv-x="707" 
d="M200 736q73 0 194 -28q38 42 95 42q28 0 77 -26t68 -65q8 0 19 -1t14 -1q30 0 64 14q4 2 17 10.5t20.5 12.5t19.5 10t23 8.5t22 2.5q68 0 110 -22.5t51.5 -41.5t19.5 -53q1 -4 2 -6q12 -25 12 -51q0 -34 -23 -59t-59 -36.5t-68 -16t-62 -4.5q-122 0 -216 28
q-29 -405 -30 -410q-8 -66 -38 -117t-74.5 -80t-94 -43t-101.5 -14q-60 0 -112 11t-101 36t-83 72.5t-48 112.5q-6 26 -6 36q0 49 37.5 80t89.5 31q39 0 72.5 -20t48.5 -57q0 -43 -45 -109q16 -33 47 -50t97 -17q73 0 73 290q0 52 -3.5 156.5t-1.5 150.5q-17 2 -50.5 6.5
t-61.5 7t-51 2.5q-47 0 -74 -13t-27 -52q0 -40 19.5 -69.5t46.5 -43.5q5 2 34 13t47 16t30 5q29 0 45.5 -22t16.5 -46q0 -54 -43.5 -95.5t-92.5 -41.5q-55 0 -100 21.5t-71 52.5t-44.5 67.5t-25 64.5t-6.5 46q0 114 81 209.5t200 95.5z" />
    <glyph glyph-name="U" unicode="U" horiz-adv-x="864" 
d="M162 129q-8 31 -8 81q0 63 22 134.5t39 105.5t54 103q-11 6 -36 6q-54 0 -106.5 -25.5t-52.5 -70.5q0 -23 11 -40t22 -26.5t11 -15.5q0 -36 -46 -57.5t-88 -21.5q-48 0 -81 33t-33 103q0 67 50.5 120.5t130 85t167.5 48t173 16.5q39 0 95.5 -21.5t56.5 -56.5
q0 -10 -13 -34q-34 -45 -82.5 -170.5t-48.5 -210.5q0 -47 19 -77t56 -30h6q7 2 13.5 9t11 20t7.5 24t6 31t4.5 31t4 34t3.5 31q30 236 85 339t147 103q26 0 78.5 -34.5t52.5 -79.5q-1 -6 -37 -104t-42 -145q-2 -16 -9 -54t-9 -57q-26 -195 -99 -257q-67 -57 -208 -57
q-135 0 -221.5 45.5t-105.5 141.5z" />
    <glyph glyph-name="V" unicode="V" horiz-adv-x="977" 
d="M833 204q-23 14 -42 30q4 -9 13 -21t16 -20l7 -8q-27 -65 -72 -115t-96 -76.5t-98 -39t-88 -12.5q-152 0 -231 68.5t-79 227.5q0 79 23 152t66 170q-25 -1 -41 -2.5t-45 -9t-46.5 -19t-31.5 -34t-14 -53.5q4 -22 12.5 -33t15.5 -13t12.5 -7t5.5 -16q0 -35 -45.5 -55.5
t-87.5 -20.5q-48 0 -83 35t-35 106q0 69 55.5 125.5t144 89.5t190.5 50.5t205 17.5h21q11 0 33.5 -4.5t49 -21t26.5 -39.5q0 -3 -9 -30q-30 -49 -78.5 -184t-48.5 -218q0 -49 17 -81.5t46 -37.5h10q19 0 44.5 10t54.5 31.5t53.5 64.5t34.5 99q-91 120 -91 246q0 60 26 95
t78 35q63 0 112 -81.5t49 -177.5q0 -52 -13 -88q10 -18 39 -18q55 0 122 40q9 5 17.5 9.5t27.5 13.5t33.5 12.5t30 4t24.5 -9t9 -28.5q0 -46 -20 -81.5t-48 -54.5t-64.5 -30.5t-62.5 -15t-49 -3.5q-58 0 -105 26z" />
    <glyph glyph-name="W" unicode="W" horiz-adv-x="1275" 
d="M1128 204q-22 14 -42 30q4 -9 13 -21t16 -20l7 -8q-27 -65 -69.5 -114t-90 -74.5t-91.5 -37t-85 -11.5q-97 0 -141 47q-36 -22 -85.5 -37.5t-86.5 -15.5q-152 0 -231 68.5t-79 227.5q0 79 23 152t66 170q-25 -1 -41 -2.5t-45 -9t-46.5 -19t-31.5 -34t-14 -53.5
q4 -22 12.5 -33t15.5 -13t12.5 -7t5.5 -16q0 -35 -45.5 -55.5t-87.5 -20.5q-48 0 -83 35t-35 106q0 69 55.5 125.5t144 89.5t190.5 50.5t205 17.5h21q11 0 33.5 -4.5t49 -21t26.5 -39.5q0 -3 -9 -30q-30 -49 -78.5 -184t-48.5 -218q0 -64 29.5 -97.5t88.5 -11.5
q-19 22 -30 67.5t-3 95.5q11 80 88 136t150 56q38 0 63.5 -31t31.5 -78t-1 -97t-33.5 -94t-65.5 -64q16 -1 50 -1q19 0 44.5 10t54.5 31.5t53.5 64.5t34.5 99q-91 120 -91 246q0 60 26 95t78 35q63 0 112 -81.5t49 -177.5q0 -52 -13 -88q10 -18 39 -18q55 0 122 40
q9 5 17.5 9.5t27.5 13.5t33.5 12.5t30 4t24.5 -9t9 -28.5q0 -46 -20 -81.5t-48 -54.5t-64.5 -30.5t-62.5 -15t-49 -3.5q-58 0 -105 26z" />
    <glyph glyph-name="X" unicode="X" horiz-adv-x="820" 
d="M555 564q82 74 126 74q30 0 59 -6t62.5 -21t58.5 -48.5t35 -81.5q2 -14 2 -19q0 -15 -13 -24.5t-51 -22.5q-62 -14 -102 -31.5t-80 -55.5q32 -46 54 -95t22 -71q0 -6 -7.5 -10.5t-11.5 -4.5q3 -1 12 -1q23 0 43 18t35 40t23 26q16 7 31 7q31 0 40 -24q0 -11 -8 -35
q-17 -48 -92.5 -122t-143.5 -74q-16 0 -40.5 31t-60 85t-58.5 82q-79 -103 -99 -125q-74 -79 -174 -98q-42 -8 -93 -8q-67 0 -118.5 62.5t-51.5 138.5q0 60 18.5 106t45.5 69.5t52 34.5t44 11q22 0 54 -42t37 -64q0 -46 -18.5 -75t-63.5 -57q2 -47 64 -51q15 0 28 23.5
t37.5 79t51.5 99.5q42 67 83 106q-5 6 -16.5 22t-18 23t-17.5 17.5t-24 18t-29 12.5q-28 9 -43 29.5t-15 43.5q0 44 75.5 86t128.5 42q25 0 60.5 -35t66.5 -85z" />
    <glyph glyph-name="Y" unicode="Y" horiz-adv-x="778" 
d="M756 395q0 -218 -21 -348q-36 -225 -359 -225q-41 0 -76 4t-77 18t-73 38t-57 66.5t-37 100.5q-3 16 -3 31q0 49 29 74.5t76 25.5q32 0 57 -9q-41 44 -41 123q0 11 2 35q-20 -20 -55.5 -31t-65.5 -11q-49 0 -83.5 36.5t-34.5 111.5q0 67 45.5 119t118.5 80.5t151 42.5
t155 14q7 0 20 -2t31 -7.5t30.5 -17.5t12.5 -28q0 -14 -15 -29q-16 -11 -57.5 -121.5t-41.5 -178.5q0 -42 21 -63t53 -21q27 0 53 15v77q0 52 1.5 93t6.5 95t16.5 94t29 76t45.5 55.5t65 19.5q29 0 76.5 -31t60.5 -79q0 -2 0.5 -3t0.5 -3q0 -18 -11 -60.5t-27 -98t-22 -78.5
zM444 99q-111 0 -176 32q12 -18 12 -41q0 -44 -30 -68q52 -75 117 -75q71 0 110.5 43t39.5 114q-17 -2 -30 -3q-32 -2 -43 -2zM141 465q0 -29 5.5 -46.5t11.5 -23t16 -10t12 -6.5q24 89 95 199q-3 0 -16 -3t-34.5 -11t-41 -20t-34 -32.5t-14.5 -46.5z" />
    <glyph glyph-name="Z" unicode="Z" horiz-adv-x="698" 
d="M583 -23q-37 0 -152 29.5t-155 29.5q-15 0 -45 -16.5t-44 -16.5q-75 0 -125.5 60.5t-50.5 104.5q0 35 56 64q239 174 259 191q-23 4 -54 14t-58 21.5t-51 21.5t-39 17l-14 7q-2 0 -2 -4t9 -36.5t9 -50.5q0 -32 -26 -32q-35 0 -58 19t-31.5 50.5t-10.5 50t-2 39.5
q0 73 36.5 134.5t100.5 61.5q18 0 68 -33.5t116.5 -67t124.5 -33.5q61 78 132 78q64 0 100 -48t36 -94q0 -18 -6 -26q-14 -17 -49 -48.5t-117.5 -102.5t-150.5 -132q37 -10 78.5 -26.5t66.5 -27.5t32 -11q63 0 94 20t58 71q1 1 6.5 11t12.5 18t13 8q60 0 63 -24
q-10 -68 -41 -133.5t-82 -111.5t-107 -46z" />
    <glyph glyph-name="bracketleft" unicode="[" horiz-adv-x="506" 
d="M287 -155q-44 0 -78.5 6.5t-77.5 22t-49 17.5q-20 6 -20 70q0 112 41.5 308.5t80.5 265.5q10 33 33.5 44t64.5 12q36 -1 107.5 -2t120 -1.5t48.5 -1.5q27 -23 27 -51q0 -33 -63.5 -52t-129.5 -19l-22 -63q-63 -188 -93 -429l6 -1l1 -1v-1h3l169 -10q33 -16 33 -48
q0 -31 -56 -48.5t-146 -17.5z" />
    <glyph glyph-name="backslash" unicode="\" horiz-adv-x="280" 
d="M96 -66q3 34 3 72q0 78 -12 159t-28.5 142t-34 119t-29 98.5t-13 71.5t14.5 46t53 15t75 -32q-1 -11 -1 -33q0 -24 2 -31q9 -108 61 -336t52 -267q3 -33 -21 -46.5t-53 -13.5q-21 0 -41 9.5t-28 26.5z" />
    <glyph glyph-name="bracketright" unicode="]" horiz-adv-x="519" 
d="M148 -176q-114 30 -177 54.5t-63 49.5q0 12 5.5 22.5t14.5 10.5q52 5 80 5q32 0 112 -6q30 88 69 500q-12 1 -33 2.5t-33.5 2.5t-31 2.5t-29.5 4t-25 6t-22.5 8.5t-16 12t-11 16.5t-3.5 20.5q0 53 226 53q108 0 153.5 -21t45.5 -93q0 -82 -20.5 -228.5t-51.5 -256.5
q-11 -43 -17 -62t-17.5 -45t-24 -36t-32.5 -18t-48 -8q-25 0 -50 4z" />
    <glyph glyph-name="asciicircum" unicode="^" horiz-adv-x="406" 
d="M389 377q7 -20 -16 -29t-53 -9q-23 0 -39.5 15.5t-24 35.5t-22 41t-32.5 29q-8 -2 -31 -32.5t-50 -57t-48 -24.5q-23 3 -39.5 15.5t-13.5 33.5q6 56 68 116t133 69q40 4 74 -23q46 -40 94 -180z" />
    <glyph glyph-name="underscore" unicode="_" horiz-adv-x="440" 
d="M-37 -6v3q0 19 24 41.5t48 22.5q12 -1 31.5 -3t34 -3.5t26.5 -1.5q32 0 65 3t53.5 6.5t56.5 10.5t54 10q57 -17 57 -66q0 -17 -9 -29t-29.5 -19.5t-39.5 -12t-53.5 -6t-55 -2t-59.5 -0.5q-201 0 -204 46z" />
    <glyph glyph-name="grave" unicode="`" horiz-adv-x="375" 
d="M-6 656q3 18 34 29t61 11q50 0 72.5 -19t33.5 -59q7 -24 49.5 -61t42.5 -65q0 -24 -34 -24q-50 0 -109.5 18.5t-106.5 57t-47 84.5q0 16 4 28z" />
    <glyph glyph-name="a" unicode="a" horiz-adv-x="533" 
d="M603 200q1 -2 1 -10q0 -53 -85.5 -128.5t-152.5 -75.5q-101 0 -119 58q-17 -27 -54 -48t-67 -23q-69 0 -114.5 39t-45.5 128q0 95 84.5 186.5t176.5 91.5q14 0 29 -3l1 7q1 8 1.5 10t2.5 9.5t3.5 10t5 8t7.5 7.5t10 4t13 2q46 0 106.5 -34t60.5 -63q0 -107 -42 -248
q16 2 36 19t77 76q17 17 32 17q10 0 20 -14t13 -26zM189 186q0 -24 8 -36.5t19 -12.5q9 0 15.5 6.5t6.5 17.5q3 121 8 154q-28 -21 -42.5 -56t-14.5 -73z" />
    <glyph glyph-name="b" unicode="b" horiz-adv-x="481" 
d="M425 88q-28 15 -45 28q-48 -61 -114 -99t-141 -38q-73 0 -113.5 54.5t-40.5 138.5q0 50 8 127.5t26 177t57.5 168.5t93.5 69q48 0 113.5 -46t65.5 -104q0 -16 -19 -30q-41 -22 -80 -144.5t-39 -231.5q0 -28 1 -43q27 4 53.5 26t38.5 53q9 -15 26 -17q-62 76 -62 147
q0 57 21 72t70 15q38 0 61 -18t28.5 -48t2.5 -63.5t-15 -70.5q2 -25 40 -33t58 13q16 18 31 18q49 -7 49 -47q0 -74 -81 -89q-46 -8 -94 15z" />
    <glyph glyph-name="c" unicode="c" horiz-adv-x="444" 
d="M183 228q0 -115 99 -115q60 0 101.5 38.5t83.5 109.5q5 12 17 12q18 0 34 -19.5t16 -31.5q0 -26 -26.5 -66.5t-68.5 -79.5t-101.5 -66.5t-116.5 -27.5q-111 0 -173 57.5t-62 173.5q0 94 81 155t197 61q151 0 151 -126q0 -55 -29.5 -88.5t-67.5 -33.5q-85 0 -107 30
q-12 18 -4.5 41t23.5 31q2 1 8 3t10 6q3 3 -3 12q-4 6 -7 9q-20 0 -37.5 -19.5t-17.5 -65.5z" />
    <glyph glyph-name="d" unicode="d" horiz-adv-x="513" 
d="M162 215q0 -29 14.5 -63.5t37.5 -34.5q27 0 45 36t18 95q0 67 -16 124t-39 92.5t-46 63t-39 50t-16 40.5q0 43 63 75.5t117 37.5q52 0 96 -71t67 -168.5t23 -188.5q0 -58 -16.5 -113.5t-49.5 -104.5t-90.5 -78.5t-130.5 -29.5q-113 0 -167 55.5t-54 182.5
q0 70 57.5 135.5t146.5 65.5q46 0 46 -49q0 -19 -16.5 -41.5t-33.5 -50t-17 -60.5z" />
    <glyph glyph-name="e" unicode="e" horiz-adv-x="441" 
d="M456 237q2 5 15 5q29 0 41.5 -6.5t12.5 -25.5q0 -48 -47.5 -101.5t-121 -90t-142.5 -36.5q-112 0 -173 60t-61 163q0 98 71 158t195 60q78 0 123.5 -33.5t45.5 -91.5q0 -53 -55.5 -100.5t-143.5 -71.5q28 -40 104.5 -0.5t135.5 111.5zM174 217q26 9 39.5 30.5t13.5 37.5
q0 20 -6 20q-17 0 -33 -22t-16 -50q0 -2 2 -16z" />
    <glyph glyph-name="f" unicode="f" horiz-adv-x="466" 
d="M448 203q-48 0 -91 5l4 -7q35 -57 35 -125q0 -98 -65 -171.5t-166 -73.5q-19 0 -37.5 3.5t-42.5 17.5t-41.5 37.5t-29.5 67t-12 102.5q0 50 17 159q-38 6 -56 17t-18 37q0 24 21.5 36.5t68.5 21.5q47 204 81 282q47 106 103 106q86 0 147.5 -54.5t61.5 -93.5v-2
q0 -6 -15.5 -22.5t-36 -37t-43.5 -63t-35 -93.5q75 5 157 5q21 0 36.5 -19.5t21 -39t3.5 -19.5q0 -29 -19 -50t-49 -26zM285 89q-9 66 -36 90q-7 -11 -14.5 -47.5t-15.5 -84.5t-14 -71q4 -19 14 -19q21 0 43.5 35.5t22.5 96.5z" />
    <glyph glyph-name="g" unicode="g" horiz-adv-x="568" 
d="M-22 -122q0 26 30 59.5t68 51.5q-49 11 -80 50.5t-31 110.5q0 94 84 181t177 87q11 0 14 -1q9 52 27.5 72.5t51.5 20.5q20 0 65 -17t86 -46.5t41 -55.5q0 -8 -2 -32l-57 -359q-9 -44 -21.5 -79t-32.5 -69.5t-46 -57t-63.5 -36.5t-84.5 -14q-65 0 -145.5 42.5t-80.5 91.5z
M178 186q0 -24 8 -36.5t19 -12.5q9 0 15.5 6.5t6.5 17.5v45q0 57 5 97q-54 -42 -54 -117zM266 -102q0 1 -3 0q-27 -8 -35 34q-6 35 0 101q-29 -26 -62 -39q6 -8 15.5 -37t26.5 -47t50 -18q8 0 8 6z" />
    <glyph glyph-name="h" unicode="h" horiz-adv-x="515" 
d="M589 185q0 -37 -44.5 -86.5t-110 -86t-118.5 -36.5q-110 0 -110 102q0 63 29 157q-2 -2 -7.5 -4t-10.5 -4.5t-11.5 -16t-11 -35.5t-8.5 -65t-5 -102q-1 -17 -21 -26t-44 -9q-73 0 -103.5 48.5t-30.5 119.5q0 10 2 30.5t2 29.5q0 34 4 87.5t16 127.5t29 136.5t48 106.5
t69 44q63 0 125 -38t62 -87q0 -17 -18 -30q-25 -13 -50 -67.5t-40 -121.5q86 48 125 48q43 0 65 -22t22 -59q0 -30 -22 -101t-22 -97v-7q57 21 93 66q8 11 21 23t16 12q1 0 11.5 0.5t14 0t12 -2.5t12 -6t7 -11t3.5 -18z" />
    <glyph glyph-name="i" unicode="i" horiz-adv-x="291" 
d="M355 184q1 -3 1 -13q0 -36 -46 -82.5t-106.5 -78t-99.5 -31.5q-74 0 -102 47t-28 156q0 94 32 165t97 71q47 0 78.5 -11.5t43 -29.5t14.5 -29.5t3 -22.5q0 -9 -2 -18t-4.5 -16t-9 -24.5t-11.5 -30.5t-7.5 -25.5t-5.5 -38t-5 -38.5q24 11 111 98q8 6 17 3t18 -17.5
t12 -33.5zM167 457q-26 0 -45 3.5t-39.5 14.5t-31 35.5t-10.5 61.5q0 59 35 106t74 47q43 0 106.5 -35t63.5 -67q0 -13 -18 -24q-13 -7 -27 -31t-25 -48t-33 -43.5t-50 -19.5z" />
    <glyph glyph-name="j" unicode="j" horiz-adv-x="292" 
d="M361 183v-7q0 -51 -149 -189q-6 -123 -67 -205.5t-161 -82.5q-14 0 -25 2.5t-26.5 11.5t-24 32.5t-8.5 59.5q0 10 1.5 19.5t3.5 17.5t6.5 17.5t7.5 15.5t10 15l10.5 13.5t12 13.5t11.5 12l13 13l12 12l3 3q0 -22 8 -37q2 0 2 5q0 13 -2.5 91t-2.5 107q0 66 3.5 113
t14 92.5t33.5 69t58 23.5q39 0 66 -10.5t39.5 -22t19 -35t7 -34.5t0.5 -36q0 -28 -2.5 -76.5t-2.5 -52.5q11 15 43.5 45.5t49.5 30.5q26 0 36 -47zM72 551q-5 20 -5 45q0 55 28 90.5t66 35.5q40 0 102.5 -24t62.5 -53q0 -6 -10 -22t-29.5 -49.5t-36.5 -68.5
q-11 -23 -20.5 -28.5t-29.5 -5.5q-49 0 -82.5 16t-45.5 64z" />
    <glyph glyph-name="k" unicode="k" horiz-adv-x="525" 
d="M354 -23q-66 0 -102.5 37t-64.5 119q-4 -7 -1.5 -50.5t2.5 -45.5q0 -69 -74 -69q-41 0 -81 30t-46 64q-5 25 -5 41q0 9 2 46t2 52q0 18 3.5 65.5t15.5 126.5t29.5 147.5t51.5 119.5t76 51q53 0 115 -47.5t62 -85.5q0 -9 -15 -19q-29 -14 -61 -93t-42 -154q3 5 13.5 29.5
t19.5 39.5t33 29t57 14q39 0 65 -10.5t36 -28.5t13.5 -32t3.5 -32q0 -92 -152 -134q18 -5 36 0q37 -35 54 -48t27 -13q4 0 10 3q27 18 50 43.5t35 41t20 15.5q17 0 35.5 -13t18.5 -29q-2 -35 -45.5 -85.5t-100.5 -87.5t-96 -37z" />
    <glyph glyph-name="l" unicode="l" horiz-adv-x="313" 
d="M369 186q0 -73 -86.5 -140.5t-174.5 -67.5q-59 0 -92.5 43.5t-33.5 133.5q0 70 9 157t26.5 179t51.5 154t77 62q62 0 122.5 -38.5t60.5 -84.5q0 -15 -20 -30q-46 -24 -82 -173t-36 -235q0 -32 11 -32q20 0 48.5 28t52.5 56t33 28q16 0 24.5 -11.5t8.5 -28.5z" />
    <glyph glyph-name="m" unicode="m" horiz-adv-x="738" 
d="M-24 211q2 104 34.5 175t76.5 71t93.5 -15t56.5 -41q0 -10 -14.5 -32t-15.5 -30q95 82 164 82q39 0 66.5 -15.5t27.5 -38.5q22 24 62.5 39t69.5 15q51 0 74 -24.5t23 -62.5q0 -34 -21.5 -104.5t-21.5 -95.5v-8q26 7 92 101q16 27 44 27q21 0 36 -13.5t15 -30.5
q0 -32 -42 -85t-104.5 -96t-110.5 -43q-62 0 -100 25t-38 72q0 35 20.5 97.5t20.5 66.5t-3 4q-25 0 -39 -55.5t-14 -119.5q0 -35 2 -43q0 -26 -17.5 -35.5t-52.5 -9.5q-119 0 -142 70q0 35 8.5 83t15.5 78.5t6 30.5q-15 -20 -25 -39.5t-15 -47t-7 -41.5t-4.5 -55t-3.5 -57
l-3 -4q-3 -3 -5 -5.5t-8 -6t-13.5 -6t-19.5 -4t-27 -1.5q-25 0 -38.5 1t-35.5 9.5t-34 25.5q-33 49 -33 192zM652 120q0 2 -1 3q0 -1 1 -3z" />
    <glyph glyph-name="n" unicode="n" horiz-adv-x="542" 
d="M610 167q-1 -28 -45 -72.5t-105.5 -79.5t-106.5 -35q-140 0 -140 104q0 30 11.5 70t21.5 64l11 24q-30 -22 -48.5 -67.5t-18.5 -83.5q0 -35 13 -68q0 -1 0.5 -3t0.5 -4q0 -31 -81 -31q-75 0 -109 45.5t-34 154.5q0 98 34.5 182t78.5 84q50 0 101 -16t51 -46
q0 -10 -11.5 -21.5t-13.5 -24.5q85 73 161 73q39 0 79.5 -21t40.5 -57q0 -31 -33 -117.5t-35 -99.5q39 7 69 49l38 46q14 14 21 14q35 0 49 -63z" />
    <glyph glyph-name="o" unicode="o" horiz-adv-x="514" 
d="M409 97q-41 -57 -90 -86t-122 -29q-84 0 -151.5 57.5t-67.5 139.5q0 115 59 184t172 69q21 0 49.5 -5.5t40.5 -13.5q13 7 30 7q42 0 72.5 -34t42 -72t11.5 -68q0 -36 -10 -59q9 -12 30 -12q25 0 51 21.5t29 21.5q49 -7 49 -47q0 -47 -32.5 -69.5t-80.5 -22.5
q-44 0 -82 18zM209 123q14 0 26 17.5t16 48.5q-11 8 -23.5 36.5t-18.5 56.5q-31 -51 -31 -94q0 -62 31 -65z" />
    <glyph glyph-name="p" unicode="p" horiz-adv-x="525" 
d="M613 190q0 -10 -2.5 -18.5t-5.5 -13t-10.5 -15.5t-11.5 -17q-39 -53 -102 -96.5t-134 -43.5q-69 0 -102.5 31.5t-33.5 82.5q0 41 37 42q12 52 12 66q0 5 0.5 10.5t0.5 8.5t-0.5 6t-3 5.5t-6.5 4.5q-45 0 -50.5 -88.5t11.5 -180t34 -136.5q7 -20 27.5 -40t20.5 -32
q0 -26 -26 -38t-62 -12h-17.5h-19.5t-18.5 0.5t-20.5 1.5t-19 3t-19.5 5.5t-16.5 8t-16.5 10.5t-13.5 14q-29 33 -45.5 129t-16.5 187q0 144 34.5 268t73.5 124h5q16 0 33.5 -2t43 -7t43.5 -18.5t23 -32.5q0 -5 -12 -16.5t-12 -24.5q0 -6 1 -8q24 24 56.5 38t55.5 14
q126 0 126 -146q0 -21 -3 -43t-6.5 -34.5t-8.5 -29t-5 -18.5l-41 -18q28 -3 53 12t39 32t33.5 46t25.5 37q7 8 19 8q53 0 53 -66z" />
    <glyph glyph-name="q" unicode="q" horiz-adv-x="525" 
d="M460 -17q-16 -149 -52.5 -215t-105.5 -66q-39 0 -89.5 31.5t-50.5 70.5l2 14q0 14 30.5 97t30.5 119q0 2 -0.5 6t-0.5 6q-12 -23 -41 -41t-57 -18q-81 0 -116 41t-35 105q0 72 49 147t123 117q20 11 69 24q-3 15 -3 27q0 40 41 40q55 0 126 -57q31 -52 52.5 -137.5
t24.5 -139.5q0 -5 2.5 -41t3 -64.5t-2.5 -65.5zM221 159l4 160q-24 -15 -38.5 -57t-11 -77.5t23.5 -35.5q9 0 22 10z" />
    <glyph glyph-name="r" unicode="r" horiz-adv-x="494" 
d="M548 193q0 -37 -41 -86.5t-101 -86t-108 -36.5q-53 0 -93.5 25t-40.5 69q0 31 31.5 87.5t31.5 74.5q0 17 -13 27q-12 0 -31.5 -3t-34 -6t-15.5 -4q-18 -59 -58.5 -107t-85.5 -75q-11 -8 -23 -9q-10 0 -22 17t-12 45l2 6q18 26 41 57t29.5 41.5t12 29.5t5.5 47
q-18 18 -27.5 49.5t-9.5 55.5q0 50 27.5 84.5t63.5 34.5q42 0 101.5 -27t59.5 -61q0 -11 -31.5 -41.5t-41.5 -59.5l12 13q13 13 14 13q26 -9 77 -9q16 0 43 7.5t33 7.5q25 0 54 -20.5t32 -34.5q2 -14 2 -17q0 -32 -24 -96.5t-24 -80.5q42 7 111 101l4 4q4 4 5 4
q15 -3 28.5 -13.5t16.5 -26.5z" />
    <glyph glyph-name="s" unicode="s" horiz-adv-x="511" 
d="M219 149q-4 19 -34 46t-60 58t-36 58q-12 60 40.5 98.5t149.5 38.5q84 0 139.5 -25t63.5 -68q6 -30 -15.5 -66.5t-47.5 -36.5q-40 0 -79.5 29t-31.5 52q10 33 -15 33q-29 0 -27 -15q4 -20 39.5 -50t75.5 -55.5t75.5 -55t39.5 -48.5q14 -67 -57 -117.5t-206 -50.5
q-38 0 -68.5 2.5t-70.5 12.5t-66.5 27t-45.5 50t-19 78q0 49 34.5 91.5t54.5 42.5q23 0 54.5 -24t41.5 -55.5t-27 -61.5q-3 0 2 -5.5t19 -11.5t34 -6q25 0 36 9t7 26z" />
    <glyph glyph-name="t" unicode="t" horiz-adv-x="342" 
d="M354 440q0 -2 0.5 -4t0.5 -3q0 -36 -23.5 -69t-47.5 -33q-2 0 -50 8q-34 -108 -34 -189q0 -35 24 -35q31 0 79 46q5 5 21 24.5t29 33.5t18 14q17 0 30 -14.5t13 -36.5q0 -42 -50.5 -91t-119 -81t-121.5 -32q-61 0 -99.5 53.5t-38.5 126.5q0 99 18 199q-67 23 -67 84
q0 48 100 48q39 183 105 183q51 0 115.5 -37t64.5 -80q0 -21 -24 -63h23q8 0 13.5 -3t9 -10t5 -11t3.5 -15t3 -13z" />
    <glyph glyph-name="u" unicode="u" 
d="M612 179q0 -45 -31.5 -85t-75 -64t-84.5 -38t-65 -14q-48 0 -73.5 15t-34.5 50q-53 -64 -133 -64q-73 2 -104 48t-31 158q0 44 5.5 82.5t18 74t36 56.5t55.5 21q70 0 105.5 -16t35.5 -61q0 -20 -6.5 -49.5t-14 -54.5t-13.5 -48t-5 -37.5t11 -15.5q7 -1 14 8t12.5 25.5
t8 27.5t5.5 25q3 15 7.5 45t6.5 43t7 34.5t10 30.5t13 20.5t18.5 15.5t24.5 4q62 0 113 -19q52 -20 52 -79q0 -21 -34 -120q-27 -77 -13 -78q15 -2 74 63q4 4 11 12t11 12.5t9 8t9 3.5q17 -1 31 -12t14 -28z" />
    <glyph glyph-name="v" unicode="v" horiz-adv-x="537" 
d="M425 149q-28 16 -33 20q3 -7 10 -15t12 -13l6 -5q-28 -58 -78 -96t-96.5 -51t-91.5 -13q-56 0 -90.5 15.5t-50.5 50t-20.5 69.5t-4.5 95q0 43 5.5 79.5t18 70t37 53t58.5 19.5q7 0 25.5 -3.5t46 -11.5t47.5 -27t20 -44q0 -6 -3 -17v1q-13 -36 -24 -69q-23 -75 -23 -113
q0 -14 7.5 -26.5t16.5 -12.5q94 0 115 114q-46 51 -63.5 110.5t1.5 101t72 41.5q49 0 87.5 -54.5t38.5 -119.5q0 -36 -10 -59q10 -15 38.5 -11.5t44.5 20.5q20 22 27 22q49 -7 49 -47q0 -74 -81 -89q-61 -11 -114 15z" />
    <glyph glyph-name="w" unicode="w" horiz-adv-x="797" 
d="M705 149q-23 13 -29 17q2 -4 7.5 -10.5t7.5 -8.5q2 -1 5 -5t4 -5q-19 -44 -54 -77t-67.5 -48.5t-69.5 -24t-52.5 -10t-22.5 -1.5q-91 0 -128 45q-78 -45 -162 -45q-56 0 -90.5 15.5t-50.5 50t-20.5 69.5t-4.5 95q0 43 5.5 79.5t18 70t37 53t58.5 19.5q7 0 25.5 -3.5
t46 -11.5t47.5 -27t20 -44q0 -6 -3 -17v1q-13 -36 -24 -69q-23 -75 -23 -113q0 -30 17 -30q43 0 67 15q-2 15 -2 77q0 43 5.5 79.5t18 70t37 53t58.5 19.5q60 0 91.5 -27.5t34 -66t-5.5 -79.5t-21 -69.5t-20 -33.5q13 -35 43.5 -40t61.5 24.5t43 84.5q-45 52 -62.5 111
t1.5 99.5t72 40.5q49 0 87.5 -54.5t38.5 -119.5q0 -36 -10 -59q10 -15 38.5 -11.5t44.5 20.5q20 22 27 22q49 -7 49 -47q0 -74 -81 -89q-61 -11 -114 15z" />
    <glyph glyph-name="x" unicode="x" horiz-adv-x="583" 
d="M655 187q-12 -39 -30 -72t-45.5 -65t-69.5 -50.5t-93 -18.5q-112 0 -170 68q-48 -60 -132 -60q-8 0 -18 0.5t-37.5 9.5t-47.5 25t-37 51t-17 83q0 53 18.5 91t55.5 38q30 0 67 -27q33 -30 33 -72q0 -14 -6.5 -28.5t-12.5 -21.5t-7 -7q-2 -2 1 -6t6 -4q15 0 32 17.5
t29 41.5q-20 29 -56.5 108t-36.5 112q0 35 50 62.5t123 27.5q40 0 50 -15t15 -52t23 -66q21 39 60 66t77.5 32t65 -26.5t22.5 -100.5q0 -17 -30.5 -35.5t-68.5 -42t-51 -48.5q24 -40 41 -58.5t37 -18.5q12 0 53 46t56 50q19 6 35.5 -5t15.5 -29z" />
    <glyph glyph-name="y" unicode="y" horiz-adv-x="519" 
d="M513 30v-2q79 -16 133.5 -56t57.5 -105q2 -28 -24.5 -54t-56.5 -26q-23 -2 -49 11.5t-42 41.5q-23 39 -41 55.5t-42 22.5q24 -20 29 -26q-26 -70 -63 -114.5t-78 -44.5q-42 0 -92.5 61t-50.5 117q0 72 85 115q0 1 2 9.5t2 12.5q0 2 -1 3v1q-6 -3 -43 -27t-69 -37t-64 -13
q-34 0 -57.5 10.5t-36.5 27.5t-20 46.5t-9 57.5t-2 72q0 222 131 222q129 0 129 -84q0 -5 -0.5 -10t-0.5 -6q0 -26 -15.5 -102t-38.5 -76q29 0 55.5 43t45.5 112q10 60 36.5 90.5t76.5 30.5q74 0 102 -31t28 -109q0 -13 -1 -37t-1 -33v-2t-0.5 -3.5t-0.5 -5.5t-1 -9.5
t-1.5 -15t-2 -21.5t-2.5 -28t-3 -37t-4 -47z" />
    <glyph glyph-name="z" unicode="z" horiz-adv-x="477" 
d="M320 -44q-31 0 -80.5 14.5t-104 41.5t-98.5 74t-55 102q-1 3 -1 11q0 43 58 70q-25 10 -25 76q0 59 33.5 103t90.5 44q14 0 37.5 -13t63.5 -40t58 -38q39 49 82 49q22 0 52.5 -30t30.5 -57q0 -5 -2 -9v-3q0 -18 -56 -63t-141 -94q6 -13 52.5 -49t58.5 -36q23 0 57 28
t61.5 56t34.5 28q16 0 16 -29q0 -68 -81 -152t-142 -84zM140 325q-8 0 -15.5 -6.5t-18 -18t-17.5 -17.5q17 4 44 4q16 0 34 -14q10 -8 15 -13q8 5 23 20q-13 4 -28 15.5t-25 20.5t-12 9z" />
    <glyph glyph-name="braceleft" unicode="{" horiz-adv-x="535" 
d="M115 19q-1 5 -1 14t1 18t2 16.5t3.5 17.5t4 16.5t5 17.5t5.5 15.5t6.5 16t6 15t6.5 15.5t6 14q1 0 2 1h-4q-71 0 -93 16q-18 14 -18 39q0 30 22 46t54 16q34 0 57 -17q26 19 26 59q0 10 -2 38t-2 47q0 31 2.5 51.5t13.5 37t22.5 25.5t39.5 17.5t53.5 14t76.5 13.5
q34 0 52 -15.5t18 -35.5t-7 -27q-42 -9 -61.5 -25.5t-19.5 -45.5q0 -19 11 -60.5t11 -63.5q0 -38 -19.5 -60.5t-70.5 -39.5q35 -44 35 -76q0 -24 -6 -49l-3 -14q-2 -7 -12.5 -33t-9.5 -41q0 -8 1 -11q1 -4 28.5 -37t27.5 -55q0 -14 -15 -31.5t-44 -17.5q-4 0 -14 0.5
t-14 0.5q-71 0 -127 55.5t-56 101.5z" />
    <glyph glyph-name="bar" unicode="|" horiz-adv-x="522" 
d="M70 -103q24 71 69.5 330.5t45.5 383.5q0 5 -0.5 15t-0.5 16q0 21 8.5 33.5t35.5 20.5q38 0 88.5 -33t50.5 -78q0 -13 -21 -69t-47.5 -139.5t-36.5 -154.5l-11 -78q-8 -47 -16.5 -126.5t-15 -125t-14.5 -50.5q-28 -16 -51 -16q-52 0 -84 71z" />
    <glyph glyph-name="braceright" unicode="}" horiz-adv-x="570" 
d="M404 438q1 -7 1 -19q0 -26 -9.5 -59t-19.5 -56.5t-10 -25.5q0 -13 16.5 -18t37 -6t37 -12.5t16.5 -35.5q0 -62 -82 -62q-11 0 -27 4.5t-18 4.5q-17 0 -28 -50t-11 -105q0 -4 4 -48q2 -43 -62 -63q-31 -10 -141 -29q-33 0 -51 14.5t-18 33.5q0 23 7 30q42 9 61.5 26
t19.5 46q0 18 -10 58t-10 60q0 39 22 63t75 42q-31 37 -31 84q0 28 4 41l4 14q20 64 20 110q0 21 -19.5 48.5t-19.5 37.5q0 9 12 19.5t34 10.5q6 0 16 -0.5t14 -0.5q70 0 118 -54.5t48 -102.5z" />
    <glyph glyph-name="asciitilde" unicode="~" horiz-adv-x="438" 
d="M174 428q13 -2 58 -13t60 -11q22 0 33 3.5t11 8t1.5 8t8.5 3.5q30 0 50 -27t20 -56q0 -32 -25.5 -51t-65.5 -19q-19 0 -48 12t-73 23.5t-99 11.5q-8 0 -21.5 -1t-19.5 -1q-25 0 -25 34q0 32 22.5 55t72.5 23q18 0 40 -3z" />
    <glyph glyph-name="exclamdown" unicode="&#xa1;" horiz-adv-x="362" 
d="M261 -176q-45 -77 -81 -108t-97 -31q-4 0 -11 0.5t-11 0.5q-42 6 -97 40.5t-55 74.5q0 11 27 38q170 205 170 358v30q0 29 8.5 40.5t38.5 11.5q87 0 121 -40.5t34 -144.5q0 -195 -47 -270zM186 476q47 0 88 -25t41 -70q0 -37 -31.5 -60t-92.5 -23q-47 0 -71.5 21.5
t-24.5 58.5q0 39 24.5 68.5t66.5 29.5z" />
    <glyph glyph-name="cent" unicode="&#xa2;" horiz-adv-x="507" 
d="M211 272q0 19 8 30.5t36 39.5l11 11q-1 -1 -3 -1h-1h-10q-57 0 -57 -81q0 -75 31.5 -115.5t82.5 -40.5q39 0 72.5 26.5t47.5 75.5q4 15 16 15q28 0 41 -30.5t13 -47.5q0 -46 -34.5 -96.5t-110.5 -84.5q-3 -2 -14 -5.5t-19 -7t-8 -7.5q0 -11 5.5 -46t5.5 -53
q0 -45 -30 -45q-28 0 -45 10.5t-23 28.5t-7.5 36t-2 39.5t-3.5 32.5q-98 2 -158 72t-60 206q0 94 56.5 162t142.5 88q2 17 2.5 74.5t7.5 87t29 29.5q30 0 62.5 -33t32.5 -88q0 -34 -13 -69q25 -5 43.5 -12.5t40 -23t33.5 -45t12 -70.5q0 -68 -28.5 -109t-68.5 -41
q-42 0 -89 24t-47 64z" />
    <glyph glyph-name="sterling" unicode="&#xa3;" horiz-adv-x="671" 
d="M108 278q1 -1 7.5 -1.5t13 0t10.5 -0.5q5 210 140 324q101 84 227 82q116 -2 178 -74q44 -52 44 -126q0 -59 -47.5 -113.5t-104.5 -54.5q-110 0 -121 68q-7 39 18 71q9 11 16 11l38 1q-63 69 -113.5 -3t-46.5 -168l34 10l20 3q54 -17 54 -71q0 -62 -127 -67
q-9 -30 -12 -55q38 2 83 2q23 0 51 -5t35 -5q17 0 49 21t40 21q22 0 35.5 -26.5t13.5 -49.5q0 -59 -62.5 -97t-121.5 -38q-58 0 -172 24t-183 32q-45 4 -61 12t-16 25q0 27 22 55t57 40q6 11 8 17t4 15t7 23q-27 8 -35.5 10.5t-16.5 9.5t-9 18q0 60 44 60z" />
    <glyph glyph-name="currency" unicode="&#xa4;" horiz-adv-x="520" 
d="M425 120v-1q0 -1 -1 -2t-1 -2q23 -21 42 -35.5t25.5 -17t12 -8t6.5 -10.5t4 -22v-3q0 -18 -15.5 -30t-31.5 -12q-48 0 -72.5 19.5t-38.5 55.5q-58 -34 -128 -34q-28 0 -77 9q-7 -9 -17.5 -29t-20 -28.5t-24.5 -8.5q-8 0 -19 3q2 0 2 1q0 3 -39.5 28.5t-39.5 32.5q0 2 6 4
v1q0 10 50 68q-15 16 -22.5 27.5t-14.5 36.5t-7 59q0 97 59 153q-21 23 -39.5 54.5t-26.5 50.5t-8 22q0 35 54 35q26 0 42.5 -16.5t32.5 -44t32 -41.5q4 1 19.5 7.5t25 9.5t27.5 6.5t37 3.5q29 0 49.5 -6t37.5 -15t23 -11q6 6 15 17t14 16.5t12 11.5t14.5 8.5t16.5 2.5
q10 0 13 -1q4 0 20.5 -7t36.5 -24.5t22 -38.5q0 -1 -9.5 -9.5t-29 -25t-35.5 -30.5q15 -58 15 -84q0 -76 -49 -146zM273 340q-6 -8 -24.5 -30t-28 -35t-18.5 -34.5t-9 -42.5q0 -25 5 -41t10.5 -20.5t10.5 -4.5q28 0 56 47t28 95q0 44 -30 66z" />
    <glyph glyph-name="yen" unicode="&#xa5;" horiz-adv-x="537" 
d="M117 194h4q0 6 -0.5 17t-0.5 16h-3q-70 -8 -89 32q-4 22 18 45t54 27l23 -2l3 33q-43 24 -62 97t-19 154q0 7 -19 7q-25 -8 -45.5 -2t-20.5 37q0 30 41 64.5t101 42.5q100 8 142.5 -25t40.5 -125q0 -8 -0.5 -36t-0.5 -47t1 -41.5t3.5 -34.5t7.5 -12q4 0 13.5 34.5
t27.5 83.5t45 98.5t75.5 84t110.5 34.5q44 0 96.5 -20t52.5 -47q-3 -26 -32 -35q-39 -19 -68 -52t-48 -69t-39 -72t-52.5 -70t-77.5 -55l-4 -15q60 -2 81 -17q32 -60 -14 -80q-36 -10 -81 -12v-25q8 2 23.5 4.5t22.5 3.5q33 -11 39 -46q6 -36 -16 -58q-28 -7 -64 -12v-27
q0 -86 -78 -93q-135 -15 -173 118l-47 2q-19 9 -25 34q-3 21 9.5 38t43.5 23zM287 229l-1 2l-1 -1q0 -1 2 -1z" />
    <glyph glyph-name="brokenbar" unicode="&#xa6;" horiz-adv-x="503" 
d="M257 172l-24 -97l-17 -63q-4 -15 -8 -46.5t-8 -54t-17 -41t-35 -18.5q-47 0 -78 58q2 8 15 101v-2q3 11 6.5 31.5t14 72t27.5 128.5q31 13 43 13q57 0 81 -82zM159 400l17 141q7 60 7 96v20q18 12 42 12q34 0 63 -22.5t29 -55.5q0 -11 -3 -20v1l-4 -19q-7 -32 -19 -101
t-19 -108q-1 -4 -2 -15t-2 -14.5t-4 -10.5t-7.5 -9t-12.5 -4.5t-19 -2.5q-39 0 -60 17.5t-21 50.5q0 7 15 44z" />
    <glyph glyph-name="section" unicode="&#xa7;" horiz-adv-x="522" 
d="M192 71q-9 29 -54 81q-41 34 -74 96t-33 109q0 50 31 78.5t88 28.5q-59 80 -59 147q0 51 31 79.5t87 28.5q90 0 152 -47t62 -125q0 -25 -8.5 -41t-23.5 -16q-35 2 -74 29.5t-39 55.5q0 15 -3.5 23t-7 9.5t-10.5 2.5q-21 0 -21 -11q0 -1 1 -2q1 -3 1 -5q11 -34 67 -90.5
t112 -112.5t66 -88q11 -36 11 -65q0 -50 -26 -86t-78 -50q27 -32 35.5 -58.5t8.5 -60.5q0 -64 -41.5 -104t-121.5 -40q-251 0 -300 241q-5 24 -5 51q0 47 19.5 74t36.5 27q27 -3 66 -42t39 -84q0 -25 -13 -44q0 -2 5 -9.5t17.5 -15.5t28.5 -8q32 0 32 21q0 6 -5 23zM178 336
q17 -55 48 -55q25 0 29 13v9q0 19 -21.5 34t-37.5 19q-19 0 -19 -13q0 -6 1 -7z" />
    <glyph glyph-name="dieresis" unicode="&#xa8;" horiz-adv-x="560" 
d="M371 679h13q56 0 99 -26t43 -72q0 -42 -31.5 -76t-72.5 -34q-48 0 -83.5 42.5t-35.5 93.5q0 68 68 72zM75 577q-1 5 -1 14q0 69 71 69q54 0 90 -32t36 -68q0 -37 -22 -67t-57 -30q-34 0 -70 27.5t-47 86.5z" />
    <glyph glyph-name="copyright" unicode="&#xa9;" horiz-adv-x="854" 
d="M734 265q23 -121 -26.5 -214t-152.5 -141t-239 -48q-139 0 -223.5 61.5t-103.5 159.5q-17 86 2 165.5t67 139t128.5 95t180.5 35.5q171 0 256.5 -62t110.5 -191zM88 180q-3 -25 5 -71q10 -48 34 -80t60 -47.5t73 -21.5t85 -6q70 0 130 22.5t101 62.5t59 99t5 127
q-37 181 -271 181q-122 0 -200.5 -77.5t-80.5 -188.5zM600 134q-72 -109 -205 -132q-30 -4 -62 -6q-88 3 -138.5 34t-59.5 78q-13 68 10 132.5t88 109.5t159 45q65 -3 93 -26t39 -66q6 -38 -26.5 -72t-83.5 -38q-73 0 -79 40q-4 17 4 27t20 13.5t21.5 7t7.5 8.5q4 7 0 9
q-1 0 -3 -1q-24 0 -41 -13q-34 -42 -17 -132q11 -49 63 -45q44 0 83 28t60 66q6 15 35 3q34 -15 38 -44q1 -13 -6 -26z" />
    <glyph glyph-name="ordfeminine" unicode="&#xaa;" horiz-adv-x="545" 
d="M223 568l4 12q5 0 20 3t24 3q32 0 82.5 -19t50.5 -43q0 -50 -33 -166q16 4 27.5 22t16.5 18q16 0 25 -13.5t9 -28.5q0 -46 -41 -79t-117 -33q-21 0 -34 4t-18 8.5t-17 17.5q-32 -32 -77 -37q-56 0 -94 32.5t-38 98.5q0 72 67.5 130t138.5 60v1q0 -1 1.5 2.5t2.5 6.5z
M211 437q-12 -19 -12 -44q0 -21 6 -22v3t0.5 6.5t1 10.5t2 18.5t2.5 27.5z" />
    <glyph glyph-name="guillemotleft" unicode="&#xab;" horiz-adv-x="778" 
d="M605 2q1 0 1 -1q-7 0 -61 45q-6 5 -50 34.5t-78.5 58t-35.5 44.5q-1 3 -1 13q0 6 1 10.5t3.5 8.5t4 6.5t7 6t8 5l10 6t10.5 6.5l24 14h-1q35 20 93 66q6 5 21 17t24.5 19t21.5 15.5t21.5 12.5t15.5 4q17 0 41 -18t29 -18q9 0 9 -18q0 -25 -39.5 -59.5t-114.5 -84.5
q50 -43 75.5 -71.5t25.5 -49.5q0 -31 -18 -51.5t-47 -20.5zM85 167q-1 3 -1 11q0 46 94 76h-3q107 58 171 113q12 9 38 23q20 -2 38 -22t18 -42q0 -7 -2.5 -14.5t-8.5 -15.5t-11.5 -15t-16.5 -16t-18 -15t-20.5 -16t-21 -15t-22 -15.5t-20.5 -14.5q97 -81 97 -128
q0 -27 -16 -43t-36 -16q-40 0 -83 45q-29 31 -72.5 57.5t-71.5 43t-30 27.5q0 -4 -2 -8z" />
    <glyph glyph-name="logicalnot" unicode="&#xac;" horiz-adv-x="631" 
d="M396 94l3 116h-376q-16 4 -18 19q-6 15 -3.5 41t13.5 26q379 0 392 3q36 5 53.5 1.5t21.5 -13.5t6 -45l6 -102q0 -14 5.5 -29t7 -20.5t-6.5 -10t-33 -6.5h-10h-10.5h-9.5t-10 0.5t-9 1.5t-8 2.5t-6 3.5t-5 5t-3 7z" />
    <glyph glyph-name="uni00AD" unicode="&#xad;" horiz-adv-x="470" 
d="M144 249q135 21 217 44q20 0 36.5 -19t22.5 -43q5 -33 -13.5 -54t-70.5 -31.5t-86 -13.5t-112 -7q-26 -1 -39 -2q-33 12 -40 47q-7 38 19.5 56t65.5 23z" />
    <glyph glyph-name="registered" unicode="&#xae;" horiz-adv-x="817" 
d="M718 402q23 -121 -26 -214t-151 -141t-236 -48q-138 0 -225.5 61.5t-108.5 159.5q-22 114 16 212t134.5 160t234.5 62q169 0 253 -61.5t109 -190.5zM73 319q-5 -70 16 -117t62 -69.5t83.5 -31t96.5 -8.5q71 0 130.5 22.5t100.5 62.5t58.5 99t4.5 127q-36 181 -272 181
q-120 0 -199 -77.5t-81 -188.5zM203 416q3 15 10 33q-16 12 -17 29q-8 40 7.5 53t57.5 14q7 0 20 -0.5t20 -0.5h34q74 0 119 -23t53 -62q9 -43 -19.5 -91t-78.5 -63q18 -16 54 -65l-1 1l11 -16q6 -15 14 -15q1 0 9 10.5t22 21t30 10.5q19 0 21 -16q5 -29 -30.5 -69
t-87.5 -40q-32 0 -49 12t-30 39v-1q-8 14 -20 39t-22.5 40t-26.5 25q-3 -23 -4.5 -51t-1.5 -44.5t-3 -32.5t-10.5 -23t-21.5 -7q-30 0 -42.5 14t-18.5 46q-12 56 -11 123.5t13 109.5zM347 346l-1 -1q37 16 39 67q-8 30 -43 31q3 -13 -10 -50l-11 -29q-2 -12 -5 -21h10
q10 0 21 3z" />
    <glyph glyph-name="macron" unicode="&#xaf;" horiz-adv-x="314" 
d="M48 556v2q-1 1 -1 3q0 15 8 33.5t19 18.5q210 11 329 33q46 -16 46 -65q0 -13 -5 -23t-15.5 -17.5t-21.5 -12.5t-30 -8t-32.5 -5t-38 -3t-38 -1h-39.5q-29 0 -63 2.5t-74 13.5t-44 29z" />
    <glyph glyph-name="degree" unicode="&#xb0;" horiz-adv-x="454" 
d="M87 584q11 5 39 5q52 0 96 -35t54 -83q11 -59 -31 -97.5t-101 -38.5q-70 0 -117 37.5t-56 85.5q-11 52 23 91t93 35zM127 503q-25 8 -42 -1t-19 -27q-2 -22 10.5 -40t35.5 -26q29 -8 48 1t23 31q2 19 -16 37t-40 25z" />
    <glyph glyph-name="plusminus" unicode="&#xb1;" 
d="M312 260l-23 -114q-17 -14 -49 -14q-56 0 -68 66q-6 29 4 62q-79 0 -123 3q-24 15 -29 39q-3 16 0 27.5t13 18.5t21.5 11t29.5 5.5t33 2t36 1t34 1.5q7 47 9 127q18 18 56 18q34 0 51.5 -10.5t23.5 -43.5t-2 -85q41 0 113 14q38 -15 45 -49q6 -34 -38 -55t-137 -25z
M124 71l96 6q138 9 182 21q42 -12 51 -53q5 -26 -8 -42.5t-44 -24t-60 -9.5t-75 -2q-9 0 -33 1.5t-38 1.5q-3 0 -16 -1t-22 -1q-92 0 -101 40q-4 18 17.5 38.5t50.5 24.5z" />
    <glyph glyph-name="twosuperior" unicode="&#xb2;" horiz-adv-x="419" 
d="M271 234q-7 0 -75 9.5t-80 9.5q-23 0 -46.5 4.5t-46.5 20.5t-27 41q5 27 63 52q79 32 145 88q-15 -5 -43 -5q-59 0 -96 23.5t-37 64.5q0 57 65.5 106t170.5 49q111 0 168 -35.5t57 -96.5q0 -25 -13 -46.5t-40.5 -40.5t-52.5 -33t-66.5 -34.5t-65.5 -33.5q5 0 13 0.5
t12 0.5q29 0 63.5 -5t47.5 -5q28 0 51.5 11t28.5 29l2 2q4 0 12 -85q0 -31 -19.5 -51t-57 -28t-64.5 -10t-69 -2zM231 487v-4q63 63 63 101q0 17 -31 17q-25 0 -41 -13t-16 -38q0 -20 12.5 -40t12.5 -23z" />
    <glyph glyph-name="threesuperior" unicode="&#xb3;" horiz-adv-x="403" 
d="M262 724q108 0 166.5 -42.5t58.5 -107.5q0 -81 -99 -118q47 -49 47 -105q0 -44 -25 -74t-67 -43t-78.5 -18t-78.5 -5q-152 0 -207 115v8q0 108 147 108q18 0 37 -10v7q0 15 8 34h-1q-61 0 -94 35t-33 85q0 36 15.5 69.5t45.5 44.5q17 7 34 11t35.5 5t30 1.5t31.5 0
t27 -0.5zM206 554q0 -34 11 -51h1q8 0 19 -3q50 18 50 68q0 46 -14 46q-67 0 -67 -60zM251 355q0 21 -38 41q16 -17 16 -29q0 -7 -18.5 -11t-37 -11t-18.5 -22q0 -17 17 -17q45 0 62 12t17 37z" />
    <glyph glyph-name="acute" unicode="&#xb4;" horiz-adv-x="403" 
d="M392 657q4 -12 4 -28q0 -46 -47 -84.5t-106.5 -57t-109.5 -18.5q-34 0 -34 24q0 28 42.5 65t49.5 61q11 40 33.5 59t72.5 19q30 0 61 -11t34 -29z" />
    <glyph glyph-name="mu" unicode="&#xb5;" horiz-adv-x="539" 
d="M612 179q0 -45 -31.5 -85t-75 -64t-84.5 -38t-65 -14q-48 0 -73.5 15t-34.5 50q-50 -64 -133 -64h-5l20 -34q32 -67 32 -100q0 -37 -48 -37q-45 0 -87.5 28.5t-57.5 75.5q-15 91 -15 180q0 150 39.5 238.5t101.5 88.5q70 0 105.5 -16t35.5 -61q0 -32 -20 -101t-20 -85
q0 -18 12 -19q19 0 40 86q3 15 7.5 45t6.5 43t7 34.5t10 30.5t13 20.5t18.5 15.5t24.5 4q62 0 113 -19q52 -20 52 -79q0 -24 -26 -98t-26 -90q0 -10 6 -10q13 0 73 63q4 4 11 12t11 12.5t9 8t9 3.5q17 -1 31 -12t14 -28z" />
    <glyph glyph-name="paragraph" unicode="&#xb6;" horiz-adv-x="672" 
d="M-6 327v12q0 52 20.5 95.5t56 73t78.5 51.5t91.5 34t91 17.5t81.5 5.5q55 0 107.5 -9t76.5 -9q36 0 89 10q23 -9 35.5 -26.5t12.5 -36.5q0 -51 -49.5 -77t-139.5 -35q-13 -46 -17 -119t-3.5 -133t-14.5 -125.5t-46 -110.5t-101 -74.5t-177 -29.5q-66 0 -127 40t-61 91
q0 41 54.5 89t107.5 48q29 -92 86 -100q37 0 37 87q0 30 -3 30q-31 0 -55.5 2t-60 7.5t-62 19t-52 34.5t-40 56.5t-16.5 81.5zM264 248q8 -24 13 -24t5 30q0 20 -3 77.5t-3 80.5q0 27 2 32q-1 1 -5 1q-23 0 -23 -68q0 -59 14 -129z" />
    <glyph glyph-name="periodcentered" unicode="&#xb7;" horiz-adv-x="384" 
d="M310 234q0 -2 0.5 -6.5t0.5 -6.5q0 -43 -25 -75.5t-68 -32.5q-49 0 -82 28t-39 69q1 43 27.5 64.5t85.5 21.5q83 -6 100 -62z" />
    <glyph glyph-name="cedilla" unicode="&#xb8;" horiz-adv-x="410" 
d="M239 -147q0 7 -5.5 13.5t-11.5 9.5t-15.5 7.5t-10.5 5.5q-2 1 -7 2.5t-5 3.5t-1 7.5t-1 17.5q0 50 20 90.5t65 40.5q13 0 26.5 -8.5t20 -19t1.5 -15.5q-3 -1 -6.5 -21.5t-3.5 -34.5q0 -6 2 -16q53 -47 53 -105q0 -36 -30 -60t-90 -24q-58 0 -107.5 32.5t-49.5 70.5
q0 19 12.5 28.5t43.5 11.5q31 0 59.5 -20.5t34.5 -20.5t6 4z" />
    <glyph glyph-name="onesuperior" unicode="&#xb9;" horiz-adv-x="360" 
d="M212 212q-21 -1 -49 -3t-37 -2q-22 0 -31.5 8.5t-13.5 32.5q13 35 29.5 117t33.5 127q-1 1 -3 1q-43 0 -57 44q11 14 33.5 41.5t34 42t25.5 37t22 43.5q12 14 62 14q40 0 75 -11t43 -31h1q0 -1 1 -2q-5 -23 -36 -104t-57.5 -170.5t-28.5 -155.5q-5 -28 -47 -29z" />
    <glyph glyph-name="ordmasculine" unicode="&#xba;" horiz-adv-x="386" 
d="M238 586q53 -17 76.5 -64t17.5 -97t-34 -85q-85 -73 -155 -73q-66 0 -111.5 38.5t-45.5 95.5q0 76 54 137.5t124 61.5q34 0 52 -15q2 1 22 1zM165 380q13 4 13 36q0 10 -2 64q-2 1 -2 2l-1 1q-2 -2 -4 -2q-10 -21 -10 -45z" />
    <glyph glyph-name="guillemotright" unicode="&#xbb;" horiz-adv-x="751" 
d="M696 219q0 4 1 6t1.5 -0.5t0.5 -8.5q0 -47 -93 -77h3q-108 -59 -172 -112q-12 -9 -38 -23q-19 2 -37.5 22t-18.5 40q0 28 37 60.5t104 77.5q-48 41 -72 71t-24 58q0 27 16 43t35 16q39 0 85 -46q29 -29 72.5 -56t70.5 -43.5t29 -27.5zM171 391q-1 0 -1 1q4 1 61 -44
q4 -3 49.5 -34.5t79 -60t35.5 -43.5q1 -3 1 -13q0 -17 -8 -25t-30 -20q-4 -3 -7 -4l-24 -13h1q-35 -20 -93 -66q-81 -69 -104 -69q-17 0 -41 18.5t-29 18.5q-8 5 -8 16q0 42 153 145q-100 83 -100 122q0 31 18.5 51t46.5 20z" />
    <glyph glyph-name="onequarter" unicode="&#xbc;" horiz-adv-x="814" 
d="M772 15q0 -24 -15.5 -40.5t-38.5 -16.5q0 -27 5 -58t5 -36q0 -15 -13.5 -20.5t-53.5 -5.5q-58 0 -84.5 27t-31.5 85h-10q-197 4 -197 86q0 45 49 113t127.5 122.5t148.5 54.5q7 0 25 -2q11 -2 29 -7.5t40 -20t22 -30.5q0 -10 -6 -17l-12 -20q-37 -44 -37 -163
q28 -5 38 -15t10 -36zM500 75q-2 -3 7 -5q12 -3 28 -3q5 0 5 65q-15 -8 -27.5 -24.5t-12.5 -32.5zM476 545q16 6 39 6q5 0 16 -2t28 -8.5t29.5 -21.5t14.5 -37q-70 -61 -270 -360q-63 -83 -120 -213q-10 -21 -34 -24t-46.5 7t-40.5 26t-18 28q-14 32 111 187l35 42
q73 91 147 198t109 172zM202 207q-21 -1 -49 -3t-37 -2q-22 0 -31.5 8.5t-13.5 32.5q13 35 29.5 117t33.5 127q-1 1 -3 1q-43 0 -57 44q11 14 33.5 41.5t34 42t25.5 37t22 43.5q12 14 62 14q40 0 75 -11t43 -31h1q0 -1 1 -2q-5 -23 -36 -104t-57.5 -170.5t-28.5 -155.5
q-5 -28 -47 -29z" />
    <glyph glyph-name="onehalf" unicode="&#xbd;" horiz-adv-x="895" 
d="M490 542q16 6 39 6q5 0 16 -2t28 -8.5t29.5 -21.5t14.5 -37q-70 -61 -270 -360q-63 -83 -120 -213q-10 -21 -34 -24t-46.5 7t-40.5 26t-18 28q-14 32 111 187l35 42q73 91 147 198t109 172zM195 195q-21 -1 -49 -3t-37 -2q-22 0 -31.5 8.5t-13.5 32.5q13 35 29.5 117
t33.5 127q-1 1 -3 1q-43 0 -57 44q11 14 33.5 41.5t34 42t25.5 37t22 43.5q12 14 62 14q40 0 75 -11t43 -31h1q0 -1 1 -2q-5 -23 -36 -104t-57.5 -170.5t-28.5 -155.5q-5 -28 -47 -29zM676 -148q-6 0 -74 9.5t-81 9.5q-23 0 -46.5 4.5t-46.5 20.5t-27 41q5 27 63 52
q79 32 145 88q-15 -5 -43 -5q-59 0 -96 23.5t-37 64.5q0 57 65.5 106t170.5 49q111 0 168 -35.5t57 -96.5q0 -25 -13 -46.5t-40.5 -40.5t-52.5 -33t-66.5 -34.5t-65.5 -33.5q5 0 13 0.5t12 0.5q29 0 63.5 -5t47.5 -5q28 0 51.5 11t28.5 29l2 2q4 0 12 -85q0 -31 -19.5 -51
t-57 -28t-64.5 -10t-69 -2zM636 105v-4q63 63 63 101q0 17 -31 17q-25 0 -41 -13t-16 -38q0 -20 12.5 -40t12.5 -23z" />
    <glyph glyph-name="threequarters" unicode="&#xbe;" horiz-adv-x="945" 
d="M889 38q0 -24 -15.5 -40.5t-38.5 -16.5q0 -27 5 -58t5 -36q0 -15 -13.5 -20.5t-53.5 -5.5q-58 0 -84.5 27t-31.5 85h-10q-197 4 -197 86q0 45 49 113t127.5 122.5t148.5 54.5q7 0 25 -2q11 -2 29 -7.5t40 -20t22 -30.5q0 -9 -6 -17l-12 -20q-37 -44 -37 -163
q28 -5 38 -15t10 -36zM617 98q-2 -3 7 -5q12 -3 28 -3q5 0 5 65q-15 -8 -27.5 -24.5t-12.5 -32.5zM590 542q16 6 39 6q5 0 16 -2t28 -8.5t29.5 -21.5t14.5 -37q-70 -61 -270 -360q-63 -83 -120 -213q-10 -21 -34 -24t-46.5 7t-40.5 26t-18 28q-14 32 111 187l35 42
q73 91 147 198t109 172zM239 723q108 0 166.5 -42.5t58.5 -107.5q0 -81 -99 -118q47 -49 47 -105q0 -44 -25 -74t-67 -43t-78.5 -18t-78.5 -5q-152 0 -207 115v8q0 108 147 108q18 0 37 -10q-1 1 0 4v3q0 15 8 34h-1q-61 0 -94 35t-33 85q0 36 15.5 69.5t45.5 44.5
q17 7 34 11t35.5 5t30 1.5t31.5 0t27 -0.5zM183 553q0 -35 11 -51h1q9 0 19 -3q50 18 50 68q0 46 -14 46q-67 0 -67 -60zM228 354q0 21 -38 41q16 -17 16 -29q0 -8 -37 -16t-37 -28q0 -17 17 -17q45 0 62 12t17 37z" />
    <glyph glyph-name="questiondown" unicode="&#xbf;" horiz-adv-x="506" 
d="M331 486q52 0 101 -29.5t49 -71.5q0 -32 -32.5 -56.5t-78.5 -24.5q-60 0 -88 27.5t-28 71.5q0 83 77 83zM218 -74q11 54 50.5 83t69.5 20q46 -8 87 -60t41 -101q0 -55 -75.5 -103t-166.5 -48q-127 0 -212 67t-85 164q0 18 10 34.5t35 37t50 37t73.5 49t85.5 58.5
q27 24 45 59q2 3 7.5 16t9 16t16 7.5t32.5 4.5q35 0 73.5 -25t38.5 -61q0 -24 -25 -51t-60 -51.5t-70.5 -50t-60.5 -56t-25 -59.5q0 -45 21 -45q9 0 24 12.5t15 30.5q0 5 -2 9.5t-2 5.5z" />
    <glyph glyph-name="Agrave" unicode="&#xc0;" horiz-adv-x="922" 
d="M710 720v-1q48 -26 48 -66q0 -6 -5.5 -37t-5.5 -77q0 -85 13.5 -229.5t23.5 -180.5q1 -4 2.5 -8t2 -6t0.5 -3v-1q15 1 32 17t46 51.5t53 59.5q50 -6 59 -34q-11 -29 -33.5 -64.5t-58 -75t-88 -65.5t-110.5 -26q-13 0 -20 1v-1q-70 13 -92 70q-49 41 -178 124l-55 -70
q-76 -98 -125.5 -141t-96.5 -43q-48 0 -84.5 59.5t-36.5 99.5q0 22 22 40t67.5 47t79.5 63q-35 9 -55 36t-20 52q0 10 3 19q-38 11 -65 52t-27 106q0 67 43 117t121.5 79t179 43t226.5 14q76 0 134 -21zM260 432q-2 -3 -4 -10t-3 -11q40 -6 59 -13q29 46 41.5 81t23.5 93
q-96 -4 -121 -11q-43 -14 -44 -49q0 -22 4.5 -36.5t11.5 -20.5t14 -9.5l12 -6t6 -7.5zM524 446q-7 -40 -17 -79t-11 -55q10 -12 25 -22.5t24 -22.5q-8 34 -12 70t-5.5 67t-3.5 42zM504 968q3 18 34 29t61 11q50 0 72.5 -19t33.5 -59q7 -24 49.5 -61t42.5 -65q0 -24 -34 -24
q-50 0 -109.5 18.5t-106.5 57t-47 84.5q0 16 4 28z" />
    <glyph glyph-name="Aacute" unicode="&#xc1;" horiz-adv-x="922" 
d="M710 720v-1q48 -26 48 -66q0 -6 -5.5 -37t-5.5 -77q0 -85 13.5 -229.5t23.5 -180.5q1 -4 2.5 -8t2 -6t0.5 -3v-1q15 1 32 17t46 51.5t53 59.5q50 -6 59 -34q-11 -29 -33.5 -64.5t-58 -75t-88 -65.5t-110.5 -26q-13 0 -20 1v-1q-70 13 -92 70q-49 41 -178 124l-55 -70
q-76 -98 -125.5 -141t-96.5 -43q-48 0 -84.5 59.5t-36.5 99.5q0 22 22 40t67.5 47t79.5 63q-35 9 -55 36t-20 52q0 10 3 19q-38 11 -65 52t-27 106q0 67 43 117t121.5 79t179 43t226.5 14q76 0 134 -21zM260 432q-2 -3 -4 -10t-3 -11q40 -6 59 -13q29 46 41.5 81t23.5 93
q-96 -4 -121 -11q-43 -14 -44 -49q0 -22 4.5 -36.5t11.5 -20.5t14 -9.5l12 -6t6 -7.5zM524 446q-7 -40 -17 -79t-11 -55q10 -12 25 -22.5t24 -22.5q-8 34 -12 70t-5.5 67t-3.5 42zM892 958q4 -12 4 -28q0 -46 -47 -84.5t-106.5 -57t-109.5 -18.5q-34 0 -34 24q0 28 42.5 65
t49.5 61q11 40 33.5 59t72.5 19q30 0 61 -11t34 -29z" />
    <glyph glyph-name="Acircumflex" unicode="&#xc2;" horiz-adv-x="922" 
d="M710 720v-1q48 -26 48 -66q0 -6 -5.5 -37t-5.5 -77q0 -85 13.5 -229.5t23.5 -180.5q1 -4 2.5 -8t2 -6t0.5 -3v-1q15 1 32 17t46 51.5t53 59.5q50 -6 59 -34q-11 -29 -33.5 -64.5t-58 -75t-88 -65.5t-110.5 -26q-13 0 -20 1v-1q-70 13 -92 70q-49 41 -178 124l-55 -70
q-76 -98 -125.5 -141t-96.5 -43q-48 0 -84.5 59.5t-36.5 99.5q0 22 22 40t67.5 47t79.5 63q-35 9 -55 36t-20 52q0 10 3 19q-38 11 -65 52t-27 106q0 67 43 117t121.5 79t179 43t226.5 14q76 0 134 -21zM260 432q-2 -3 -4 -10t-3 -11q40 -6 59 -13q29 46 41.5 81t23.5 93
q-96 -4 -121 -11q-43 -14 -44 -49q0 -22 4.5 -36.5t11.5 -20.5t14 -9.5l12 -6t6 -7.5zM524 446q-7 -40 -17 -79t-11 -55q10 -12 25 -22.5t24 -22.5q-8 34 -12 70t-5.5 67t-3.5 42zM759 876q0 -1 15 -21t15 -29q0 -20 -33 -32.5t-60 -12.5q-23 0 -38.5 14.5t-22.5 33
t-20.5 37.5t-31.5 25q-4 0 -20.5 -24.5t-38 -49t-37.5 -24.5q-24 0 -45 11.5t-21 38.5q0 67 61.5 127t140.5 64q80 0 136 -158z" />
    <glyph glyph-name="Atilde" unicode="&#xc3;" horiz-adv-x="922" 
d="M710 720v-1q48 -26 48 -66q0 -6 -5.5 -37t-5.5 -77q0 -85 13.5 -229.5t23.5 -180.5q1 -4 2.5 -8t2 -6t0.5 -3v-1q15 1 32 17t46 51.5t53 59.5q50 -6 59 -34q-11 -29 -33.5 -64.5t-58 -75t-88 -65.5t-110.5 -26q-13 0 -20 1v-1q-70 13 -92 70q-49 41 -178 124l-55 -70
q-76 -98 -125.5 -141t-96.5 -43q-48 0 -84.5 59.5t-36.5 99.5q0 22 22 40t67.5 47t79.5 63q-35 9 -55 36t-20 52q0 10 3 19q-38 11 -65 52t-27 106q0 67 43 117t121.5 79t179 43t226.5 14q76 0 134 -21zM260 432q-2 -3 -4 -10t-3 -11q40 -6 59 -13q29 46 41.5 81t23.5 93
q-96 -4 -121 -11q-43 -14 -44 -49q0 -22 4.5 -36.5t11.5 -20.5t14 -9.5l12 -6t6 -7.5zM524 446q-7 -40 -17 -79t-11 -55q10 -12 25 -22.5t24 -22.5q-8 34 -12 70t-5.5 67t-3.5 42zM696 917q13 -2 58 -13t60 -11q22 0 33 3.5t11 8t1.5 8t8.5 3.5q30 0 50 -27t20 -56
q0 -32 -25.5 -51t-65.5 -19q-19 0 -48 11.5t-73 23.5t-99 12q-8 0 -21.5 -1t-19.5 -1q-25 0 -25 34q0 32 22.5 55t72.5 23q18 0 40 -3z" />
    <glyph glyph-name="Adieresis" unicode="&#xc4;" horiz-adv-x="922" 
d="M710 720v-1q48 -26 48 -66q0 -6 -5.5 -37t-5.5 -77q0 -85 13.5 -229.5t23.5 -180.5q1 -4 2.5 -8t2 -6t0.5 -3v-1q15 1 32 17t46 51.5t53 59.5q50 -6 59 -34q-11 -29 -33.5 -64.5t-58 -75t-88 -65.5t-110.5 -26q-13 0 -20 1v-1q-70 13 -92 70q-49 41 -178 124l-55 -70
q-76 -98 -125.5 -141t-96.5 -43q-48 0 -84.5 59.5t-36.5 99.5q0 22 22 40t67.5 47t79.5 63q-35 9 -55 36t-20 52q0 10 3 19q-38 11 -65 52t-27 106q0 67 43 117t121.5 79t179 43t226.5 14q76 0 134 -21zM260 432q-2 -3 -4 -10t-3 -11q40 -6 59 -13q29 46 41.5 81t23.5 93
q-96 -4 -121 -11q-43 -14 -44 -49q0 -22 4.5 -36.5t11.5 -20.5t14 -9.5l12 -6t6 -7.5zM524 446q-7 -40 -17 -79t-11 -55q10 -12 25 -22.5t24 -22.5q-8 34 -12 70t-5.5 67t-3.5 42zM715 1017h13q56 0 99 -26t43 -72q0 -42 -31.5 -76t-72.5 -34q-48 0 -83.5 42.5t-35.5 93.5
q0 68 68 72zM419 915q-1 5 -1 14q0 69 71 69q54 0 90 -32t36 -68q0 -37 -22 -67t-57 -30q-34 0 -70 27.5t-47 86.5z" />
    <glyph glyph-name="Aring" unicode="&#xc5;" horiz-adv-x="922" 
d="M710 720v-1q48 -26 48 -66q0 -6 -5.5 -37t-5.5 -77q0 -85 13.5 -229.5t23.5 -180.5q1 -4 2.5 -8t2 -6t0.5 -3v-1q15 1 32 17t46 51.5t53 59.5q50 -6 59 -34q-11 -29 -33.5 -64.5t-58 -75t-88 -65.5t-110.5 -26q-13 0 -20 1v-1q-70 13 -92 70q-49 41 -178 124l-55 -70
q-76 -98 -125.5 -141t-96.5 -43q-48 0 -84.5 59.5t-36.5 99.5q0 22 22 40t67.5 47t79.5 63q-35 9 -55 36t-20 52q0 10 3 19q-38 11 -65 52t-27 106q0 67 43 117t121.5 79t179 43t226.5 14q76 0 134 -21zM260 432q-2 -3 -4 -10t-3 -11q40 -6 59 -13q29 46 41.5 81t23.5 93
q-96 -4 -121 -11q-43 -14 -44 -49q0 -22 4.5 -36.5t11.5 -20.5t14 -9.5l12 -6t6 -7.5zM524 446q-7 -40 -17 -79t-11 -55q10 -12 25 -22.5t24 -22.5q-8 34 -12 70t-5.5 67t-3.5 42zM626 1019q5 20 25.5 31.5t43.5 11.5q50 0 92 -39.5t42 -101.5t-47.5 -98t-92.5 -36
q-52 0 -90 37t-38 102q0 68 65 93zM671 925q-2 -6 -2 -9q0 -12 6 -23.5t14 -11.5q4 0 17 7.5t13 12.5q0 1 -2 3t-2 3v2q0 7 -10 14t-21 7q-8 0 -13 -5z" />
    <glyph glyph-name="AE" unicode="&#xc6;" horiz-adv-x="1035" 
d="M1000 79q0 -127 -309 -127q-83 0 -168 9q-38 0 -56 87q-25 22 -88 66t-76 54l-123 -124q-73 -71 -118.5 -100.5t-88.5 -29.5q-44 0 -67 47t-23 101q0 25 24.5 43.5t79.5 50.5t97 67q-27 8 -43.5 29.5t-16.5 45.5q0 19 7 32q-60 29 -60 119q0 91 70.5 155t183.5 95.5
t266 39.5q88 9 135 9q113 0 157 -31q20 5 76 5h61q220 0 230 -61q-6 -60 -44 -114t-89 -72q-105 19 -198 19t-93 -25l-10 -44q103 10 196 10q42 0 62 -18t20 -47q0 -42 -34 -76t-59.5 -45.5t-55.5 -11.5q-10 0 -36 1.5t-44 1.5q-58 0 -82 -1q0 -23 1 -34.5t4.5 -29.5
t14.5 -26t28 -8q30 0 90.5 5t90.5 5q57 0 72.5 -15t15.5 -57zM259 398q69 85 119 174q-104 -4 -135 -13q-58 -18 -59 -66q0 -19 5 -31t11.5 -15t11.5 -6.5t5 -8.5q0 -13 -4 -22q19 -4 46 -12zM501 464q-10 -36 -41 -91.5t-33 -60.5q10 -15 43 -70q1 15 4 52.5t5.5 57.5t8 52
t13.5 60z" />
    <glyph glyph-name="Ccedilla" unicode="&#xc7;" horiz-adv-x="692" 
d="M675 607q3 -18 3 -33q0 -61 -39.5 -97t-75.5 -36q-52 0 -114 36.5t-62 76.5t49 54q15 4 13 29q-49 -6 -84 -52.5t-50.5 -109.5t-15.5 -133q0 -37 6 -70.5t21 -68.5t47 -56t77 -21q70 0 126.5 20.5t84 44.5t47.5 44.5t24 20.5q19 0 28.5 -11t9.5 -46q0 -94 -107.5 -155.5
t-257.5 -61.5q-125 0 -210.5 36.5t-130 99t-62.5 155.5q-7 37 -7 63q0 107 66 206.5t178 161.5t237 62q75 0 128.5 -37.5t70.5 -121.5zM349 -178q0 7 -5.5 13.5t-11.5 9.5t-15.5 7.5t-10.5 5.5q-2 1 -7 2.5t-5 3.5t-1 7.5t-1 17.5q0 50 20 90.5t65 40.5q13 0 26.5 -8.5
t20 -19t1.5 -15.5q-3 -1 -6.5 -21.5t-3.5 -34.5q0 -6 2 -16q53 -47 53 -105q0 -36 -30 -60t-90 -24q-58 0 -107.5 32.5t-49.5 70.5q0 19 12.5 28.5t43.5 11.5q31 0 59.5 -20.5t34.5 -20.5t6 4z" />
    <glyph glyph-name="Egrave" unicode="&#xc8;" horiz-adv-x="616" 
d="M466 378q1 -3 1 -12q0 -30 -26 -52.5t-69 -22.5q-22 0 -46 11q-70 -27 -70 -81q0 -8 2.5 -19.5t10.5 -30t28 -31.5t50 -15q57 0 103 14t76 33.5t56 39t54.5 33.5t58.5 14q14 0 28 -10.5t14 -22.5q0 -14 -14 -41t-49 -62.5t-83.5 -67t-127.5 -53t-172 -21.5
q-35 0 -70.5 3.5t-77 12t-76.5 25t-64 39.5t-46 58.5t-17 79.5q0 63 44 100.5t130 74.5q-38 18 -59 52.5t-21 77.5q0 40 20.5 81t62.5 79t118 62t174 24q100 -8 166 -47.5t66 -95.5q0 -57 -52.5 -94.5t-132.5 -37.5q-45 0 -79.5 18.5t-40.5 43.5q0 17 39 41.5t39 30.5
q0 7 -6 11l-6 3q-42 0 -71 -33t-29 -72q0 -62 73 -102q17 -7 36.5 -10.5t29 -5t16.5 -6.5t9 -16zM239 977q3 18 34 29t61 11q50 0 72.5 -19t33.5 -59q7 -24 49.5 -61t42.5 -65q0 -24 -34 -24q-50 0 -109.5 18.5t-106.5 57t-47 84.5q0 16 4 28z" />
    <glyph glyph-name="Eacute" unicode="&#xc9;" horiz-adv-x="616" 
d="M466 378q1 -3 1 -12q0 -30 -26 -52.5t-69 -22.5q-22 0 -46 11q-70 -27 -70 -81q0 -8 2.5 -19.5t10.5 -30t28 -31.5t50 -15q57 0 103 14t76 33.5t56 39t54.5 33.5t58.5 14q14 0 28 -10.5t14 -22.5q0 -14 -14 -41t-49 -62.5t-83.5 -67t-127.5 -53t-172 -21.5
q-35 0 -70.5 3.5t-77 12t-76.5 25t-64 39.5t-46 58.5t-17 79.5q0 63 44 100.5t130 74.5q-38 18 -59 52.5t-21 77.5q0 40 20.5 81t62.5 79t118 62t174 24q100 -8 166 -47.5t66 -95.5q0 -57 -52.5 -94.5t-132.5 -37.5q-45 0 -79.5 18.5t-40.5 43.5q0 17 39 41.5t39 30.5
q0 7 -6 11l-6 3q-42 0 -71 -33t-29 -72q0 -62 73 -102q17 -7 36.5 -10.5t29 -5t16.5 -6.5t9 -16zM586 953q4 -12 4 -28q0 -46 -47 -84.5t-106.5 -57t-109.5 -18.5q-34 0 -34 24q0 28 42.5 65t49.5 61q11 40 33.5 59t72.5 19q30 0 61 -11t34 -29z" />
    <glyph glyph-name="Ecircumflex" unicode="&#xca;" horiz-adv-x="616" 
d="M466 378q1 -3 1 -12q0 -30 -26 -52.5t-69 -22.5q-22 0 -46 11q-70 -27 -70 -81q0 -8 2.5 -19.5t10.5 -30t28 -31.5t50 -15q57 0 103 14t76 33.5t56 39t54.5 33.5t58.5 14q14 0 28 -10.5t14 -22.5q0 -14 -14 -41t-49 -62.5t-83.5 -67t-127.5 -53t-172 -21.5
q-35 0 -70.5 3.5t-77 12t-76.5 25t-64 39.5t-46 58.5t-17 79.5q0 63 44 100.5t130 74.5q-38 18 -59 52.5t-21 77.5q0 40 20.5 81t62.5 79t118 62t174 24q100 -8 166 -47.5t66 -95.5q0 -57 -52.5 -94.5t-132.5 -37.5q-45 0 -79.5 18.5t-40.5 43.5q0 17 39 41.5t39 30.5
q0 7 -6 11l-6 3q-42 0 -71 -33t-29 -72q0 -62 73 -102q17 -7 36.5 -10.5t29 -5t16.5 -6.5t9 -16zM590 873q0 -1 15 -21t15 -29q0 -20 -33 -32.5t-60 -12.5q-23 0 -38.5 14.5t-22.5 33t-20.5 37.5t-31.5 25q-4 0 -20.5 -24.5t-38 -49t-37.5 -24.5q-24 0 -45 11.5t-21 38.5
q0 67 61.5 127t140.5 64q80 0 136 -158z" />
    <glyph glyph-name="Edieresis" unicode="&#xcb;" horiz-adv-x="616" 
d="M466 378q1 -3 1 -12q0 -30 -26 -52.5t-69 -22.5q-22 0 -46 11q-70 -27 -70 -81q0 -8 2.5 -19.5t10.5 -30t28 -31.5t50 -15q57 0 103 14t76 33.5t56 39t54.5 33.5t58.5 14q14 0 28 -10.5t14 -22.5q0 -14 -14 -41t-49 -62.5t-83.5 -67t-127.5 -53t-172 -21.5
q-35 0 -70.5 3.5t-77 12t-76.5 25t-64 39.5t-46 58.5t-17 79.5q0 63 44 100.5t130 74.5q-38 18 -59 52.5t-21 77.5q0 40 20.5 81t62.5 79t118 62t174 24q100 -8 166 -47.5t66 -95.5q0 -57 -52.5 -94.5t-132.5 -37.5q-45 0 -79.5 18.5t-40.5 43.5q0 17 39 41.5t39 30.5
q0 7 -6 11l-6 3q-42 0 -71 -33t-29 -72q0 -62 73 -102q17 -7 36.5 -10.5t29 -5t16.5 -6.5t9 -16zM538 1003h13q56 0 99 -26t43 -72q0 -42 -31.5 -76t-72.5 -34q-48 0 -83.5 42.5t-35.5 93.5q0 68 68 72zM242 901q-1 5 -1 14q0 69 71 69q54 0 90 -32t36 -68q0 -37 -22 -67
t-57 -30q-34 0 -70 27.5t-47 86.5z" />
    <glyph glyph-name="Igrave" unicode="&#xcc;" horiz-adv-x="750" 
d="M437 563q2 7 6.5 21t6.5 22q-227 -7 -227 -120q0 -24 4 -38t10.5 -18t12.5 -5.5t10 -6t4 -14.5q0 -36 -45.5 -58t-89.5 -22q-110 0 -110 126q0 73 57 129.5t150 89t197 49t211 16.5q16 0 32 -3.5t35 -12.5t31 -31t12 -54q0 -34 -16 -59q-71 -161 -71 -404q0 -44 3 -86
q11 -68 11 -73q0 -21 -13 -31t-45 -10q-84 0 -116 52q-35 41 -55 159t-20 226q0 98 15 156zM422 979q3 18 34 29t61 11q50 0 72.5 -19t33.5 -59q7 -24 49.5 -61t42.5 -65q0 -24 -34 -24q-50 0 -109.5 18.5t-106.5 57t-47 84.5q0 16 4 28z" />
    <glyph glyph-name="Iacute" unicode="&#xcd;" horiz-adv-x="750" 
d="M437 563q2 7 6.5 21t6.5 22q-227 -7 -227 -120q0 -24 4 -38t10.5 -18t12.5 -5.5t10 -6t4 -14.5q0 -36 -45.5 -58t-89.5 -22q-110 0 -110 126q0 73 57 129.5t150 89t197 49t211 16.5q16 0 32 -3.5t35 -12.5t31 -31t12 -54q0 -34 -16 -59q-71 -161 -71 -404q0 -44 3 -86
q11 -68 11 -73q0 -21 -13 -31t-45 -10q-84 0 -116 52q-35 41 -55 159t-20 226q0 98 15 156zM708 940q4 -12 4 -28q0 -46 -47 -84.5t-106.5 -57t-109.5 -18.5q-34 0 -34 24q0 28 42.5 65t49.5 61q11 40 33.5 59t72.5 19q30 0 61 -11t34 -29z" />
    <glyph glyph-name="Icircumflex" unicode="&#xce;" horiz-adv-x="750" 
d="M437 563q2 7 6.5 21t6.5 22q-227 -7 -227 -120q0 -24 4 -38t10.5 -18t12.5 -5.5t10 -6t4 -14.5q0 -36 -45.5 -58t-89.5 -22q-110 0 -110 126q0 73 57 129.5t150 89t197 49t211 16.5q16 0 32 -3.5t35 -12.5t31 -31t12 -54q0 -34 -16 -59q-71 -161 -71 -404q0 -44 3 -86
q11 -68 11 -73q0 -21 -13 -31t-45 -10q-84 0 -116 52q-35 41 -55 159t-20 226q0 98 15 156zM753 861q0 -1 15 -21t15 -29q0 -20 -33 -32.5t-60 -12.5q-23 0 -38.5 14.5t-22.5 33t-20.5 37.5t-31.5 25q-4 0 -20.5 -24.5t-38 -49t-37.5 -24.5q-24 0 -45 11.5t-21 38.5
q0 67 61.5 127t140.5 64q80 0 136 -158z" />
    <glyph glyph-name="Idieresis" unicode="&#xcf;" horiz-adv-x="636" 
d="M410 563q2 7 6.5 21t6.5 22q-227 -7 -227 -120q0 -24 4 -38t10 -18t12.5 -5.5t10.5 -6t4 -14.5q0 -36 -45.5 -58t-89.5 -22q-110 0 -110 126q0 73 57 129.5t150 89t197 49t211 16.5q16 0 32 -3.5t35 -12.5t31 -31t12 -54q0 -34 -16 -59q-71 -161 -71 -404q0 -44 3 -86
q11 -68 11 -73q0 -21 -13 -31t-45 -10q-84 0 -116 52q-35 41 -55 159t-20 226q0 98 15 156zM630 974h13q56 0 99 -26t43 -72q0 -42 -31.5 -76t-72.5 -34q-48 0 -83.5 42.5t-35.5 93.5q0 68 68 72zM334 872q-1 5 -1 14q0 69 71 69q54 0 90 -32t36 -68q0 -37 -22 -67t-57 -30
q-34 0 -70 27.5t-47 86.5z" />
    <glyph glyph-name="Eth" unicode="&#xd0;" horiz-adv-x="1013" 
d="M162 265v1q-1 2 -1 4q0 16 8 36t21 20l57 3q38 180 123 298q-56 8 -105 8q-40 0 -81 -6t-82 -18.5t-67 -37t-26 -57.5q0 -22 13 -44q-21 -32 -66.5 -49t-70.5 -17q-33 0 -55.5 30.5t-22.5 89.5q0 67 43 116t117.5 76.5t161.5 40.5t187 13q63 0 121.5 -5.5t123.5 -19.5
t120 -36t106.5 -59t87 -84.5t57 -114.5t21.5 -148q0 -159 -120.5 -245.5t-319.5 -88.5q-9 -42 -89 -42q-98 0 -146.5 59t-48.5 169q0 31 3 69q-65 13 -70 39zM535 93q26 0 49.5 7t49.5 25.5t41 58.5t15 98q0 56 -12 116q-18 90 -95 149q-52 -71 -79 -192l39 7q49 -17 49 -70
q0 -60 -109 -72q-3 -35 -3 -70q0 -37 2 -48q30 -9 53 -9z" />
    <glyph glyph-name="Ntilde" unicode="&#xd1;" horiz-adv-x="957" 
d="M797 632q38 75 60.5 96t62.5 21q29 0 63 -2q37 -3 80.5 -32.5t43.5 -62.5q0 -19 -43 -84q-97 -152 -141 -337q-9 -39 -14.5 -80.5t-7 -66t-5.5 -48t-13 -35t-28 -18.5t-50 -7q-55 0 -79.5 24t-30.5 74q-29 19 -63.5 69t-53.5 87.5t-21 45.5q0 -82 -35.5 -151t-90.5 -112
t-117.5 -66.5t-119.5 -23.5q-103 0 -161 51.5t-79 155.5q-4 20 -4 44q0 65 38.5 99t108.5 34q46 0 79 -19t40 -48q-2 -18 -24 -61.5t-22 -64.5q0 -51 65 -51q51 2 76 62q20 48 52 237q4 27 6 38q3 17 13 84t19.5 104t23.5 59q-2 0 -23.5 -2t-32 -3t-34 -5t-37 -8.5t-32 -13
t-29 -19t-18 -26t-7.5 -33.5q0 -17 2 -22q4 -23 12 -34.5t15 -12.5t12.5 -6t5.5 -16q0 -37 -47 -57.5t-93 -20.5q-44 0 -76 36.5t-32 105.5q0 71 53.5 124t142.5 81.5t187 42t205 13.5q66 0 92.5 -22t26.5 -63q0 -32 -19 -121.5t-19 -137.5q0 -77 23 -124q28 211 94 329z
M662 926q13 -2 58 -13t60 -11q22 0 33 3.5t11 8t1.5 8t8.5 3.5q30 0 50 -27t20 -56q0 -32 -25.5 -51t-65.5 -19q-19 0 -48 12t-73 23.5t-99 11.5q-8 0 -21.5 -1t-19.5 -1q-25 0 -25 34q0 32 22.5 55t72.5 23q18 0 40 -3z" />
    <glyph glyph-name="Ograve" unicode="&#xd2;" horiz-adv-x="832" 
d="M598 760q159 -73 201 -287q10 -46 10 -93q0 -66 -23 -139q20 -11 25 -11q18 0 35.5 3.5t34.5 3.5q31 0 54.5 -25.5t23.5 -56.5q0 -32 -42.5 -49.5t-91.5 -17.5q-85 0 -120 21q-140 -157 -380 -157q-65 0 -131 24t-118.5 75.5t-66.5 118.5q-8 43 -8 77q0 90 39 177
t97.5 148.5t126 99t124.5 37.5q8 0 10 -1q26 71 104 71q42 0 96 -19zM400 475q-9 35 -14 101q-54 -28 -96 -120t-42 -191q0 -168 119 -168q84 0 148 128q-82 105 -115 250zM536 550q0 -20 19 -69.5t26 -56.5q0 1 0.5 9.5t0.5 17t-0.5 21.5t-2 24.5t-4 23.5t-7 20.5t-11 14
t-15.5 5.5q-6 0 -6 -10zM386 970q3 18 34 29t61 11q50 0 72.5 -19t33.5 -59q7 -24 49.5 -61t42.5 -65q0 -24 -34 -24q-50 0 -109.5 18.5t-106.5 57t-47 84.5q0 16 4 28z" />
    <glyph glyph-name="Oacute" unicode="&#xd3;" horiz-adv-x="832" 
d="M598 760q159 -73 201 -287q10 -46 10 -93q0 -66 -23 -139q20 -11 25 -11q18 0 35.5 3.5t34.5 3.5q31 0 54.5 -25.5t23.5 -56.5q0 -32 -42.5 -49.5t-91.5 -17.5q-85 0 -120 21q-140 -157 -380 -157q-65 0 -131 24t-118.5 75.5t-66.5 118.5q-8 43 -8 77q0 90 39 177
t97.5 148.5t126 99t124.5 37.5q8 0 10 -1q26 71 104 71q42 0 96 -19zM400 475q-9 35 -14 101q-54 -28 -96 -120t-42 -191q0 -168 119 -168q84 0 148 128q-82 105 -115 250zM536 550q0 -20 19 -69.5t26 -56.5q0 1 0.5 9.5t0.5 17t-0.5 21.5t-2 24.5t-4 23.5t-7 20.5t-11 14
t-15.5 5.5q-6 0 -6 -10zM676 986q4 -12 4 -28q0 -46 -47 -84.5t-106.5 -57t-109.5 -18.5q-34 0 -34 24q0 28 42.5 65t49.5 61q11 40 33.5 59t72.5 19q30 0 61 -11t34 -29z" />
    <glyph glyph-name="Ocircumflex" unicode="&#xd4;" horiz-adv-x="832" 
d="M598 760q159 -73 201 -287q10 -46 10 -93q0 -66 -23 -139q20 -11 25 -11q18 0 35.5 3.5t34.5 3.5q31 0 54.5 -25.5t23.5 -56.5q0 -32 -42.5 -49.5t-91.5 -17.5q-85 0 -120 21q-140 -157 -380 -157q-65 0 -131 24t-118.5 75.5t-66.5 118.5q-8 43 -8 77q0 90 39 177
t97.5 148.5t126 99t124.5 37.5q8 0 10 -1q26 71 104 71q42 0 96 -19zM400 475q-9 35 -14 101q-54 -28 -96 -120t-42 -191q0 -168 119 -168q84 0 148 128q-82 105 -115 250zM536 550q0 -20 19 -69.5t26 -56.5q0 1 0.5 9.5t0.5 17t-0.5 21.5t-2 24.5t-4 23.5t-7 20.5t-11 14
t-15.5 5.5q-6 0 -6 -10zM691 874q0 -1 15 -21t15 -29q0 -20 -33 -32.5t-60 -12.5q-23 0 -38.5 14.5t-22.5 33t-20.5 37.5t-31.5 25q-4 0 -20.5 -24.5t-38 -49t-37.5 -24.5q-24 0 -45 11.5t-21 38.5q0 67 61.5 127t140.5 64q80 0 136 -158z" />
    <glyph glyph-name="Otilde" unicode="&#xd5;" horiz-adv-x="832" 
d="M598 760q159 -73 201 -287q10 -46 10 -93q0 -66 -23 -139q20 -11 25 -11q18 0 35.5 3.5t34.5 3.5q31 0 54.5 -25.5t23.5 -56.5q0 -32 -42.5 -49.5t-91.5 -17.5q-85 0 -120 21q-140 -157 -380 -157q-65 0 -131 24t-118.5 75.5t-66.5 118.5q-8 43 -8 77q0 90 39 177
t97.5 148.5t126 99t124.5 37.5q8 0 10 -1q26 71 104 71q42 0 96 -19zM400 475q-9 35 -14 101q-54 -28 -96 -120t-42 -191q0 -168 119 -168q84 0 148 128q-82 105 -115 250zM536 550q0 -20 19 -69.5t26 -56.5q0 1 0.5 9.5t0.5 17t-0.5 21.5t-2 24.5t-4 23.5t-7 20.5t-11 14
t-15.5 5.5q-6 0 -6 -10zM558 930q13 -2 58 -13t60 -11q22 0 33 3.5t11 8t1.5 8t8.5 3.5q30 0 50 -27t20 -56q0 -32 -25.5 -51t-65.5 -19q-19 0 -48 12t-73 23.5t-99 11.5q-8 0 -21.5 -1t-19.5 -1q-25 0 -25 34q0 32 22.5 55t72.5 23q18 0 40 -3z" />
    <glyph glyph-name="Odieresis" unicode="&#xd6;" horiz-adv-x="832" 
d="M598 760q159 -73 201 -287q10 -46 10 -93q0 -66 -23 -139q20 -11 25 -11q18 0 35.5 3.5t34.5 3.5q31 0 54.5 -25.5t23.5 -56.5q0 -32 -42.5 -49.5t-91.5 -17.5q-85 0 -120 21q-140 -157 -380 -157q-65 0 -131 24t-118.5 75.5t-66.5 118.5q-8 43 -8 77q0 90 39 177
t97.5 148.5t126 99t124.5 37.5q8 0 10 -1q26 71 104 71q42 0 96 -19zM400 475q-9 35 -14 101q-54 -28 -96 -120t-42 -191q0 -168 119 -168q84 0 148 128q-82 105 -115 250zM536 550q0 -20 19 -69.5t26 -56.5q0 1 0.5 9.5t0.5 17t-0.5 21.5t-2 24.5t-4 23.5t-7 20.5t-11 14
t-15.5 5.5q-6 0 -6 -10zM580 990h13q56 0 99 -26t43 -72q0 -42 -31.5 -76t-72.5 -34q-48 0 -83.5 42.5t-35.5 93.5q0 68 68 72zM284 888q-1 5 -1 14q0 69 71 69q54 0 90 -32t36 -68q0 -37 -22 -67t-57 -30q-34 0 -70 27.5t-47 86.5z" />
    <glyph glyph-name="multiply" unicode="&#xd7;" horiz-adv-x="494" 
d="M153 88l-64 -41q-29 3 -45 25t-16 41q0 7 2.5 14.5t9 15.5t12 14t16.5 15t18.5 15t21 16.5t21.5 16.5l20 16q-12 19 -27.5 39.5t-34.5 44.5t-27 35v4q0 21 20 37.5t45 16.5q24 0 44 -13.5t32.5 -30t41.5 -58.5l29 23q23 18 49.5 41.5t36.5 31.5q32 -1 56 -20.5t29 -47.5
q-6 -26 -25.5 -47.5t-67.5 -61.5l-35 -28l34 -54l40 -61q0 -18 -18.5 -33t-40.5 -16q-59 4 -109 95q-13 -8 -33 -22t-35 -23z" />
    <glyph glyph-name="Oslash" unicode="&#xd8;" horiz-adv-x="815" 
d="M258 -153q-26 -23 -73 -23q-77 0 -144 98h-2q-2 0 -2 2q0 13 65 106q-103 78 -103 240q0 187 130 311.5t325 132.5q25 0 95 6l3 13q13 21 37 90q33 13 63 15l7 -2q7 -1 18.5 -3.5t25.5 -7t29 -12.5t27.5 -18t22.5 -25t13 -32q-16 -16 -70 -82q40 -33 67.5 -97.5
t27.5 -159.5q0 -83 -32 -157t-85 -127t-120.5 -92t-139 -58t-140.5 -19q-3 0 -8 0.5t-8 0.5q-21 -66 -29 -100zM367 97q43 0 81 21.5t63 56t45.5 78t28.5 87t11.5 82.5t-5.5 66q-144 -198 -238 -398zM474 598q-98 -6 -170 -119.5t-64 -252.5q129 191 234 372zM795 738l5 5
q0 -1 -1 -2l-4 -4v1z" />
    <glyph glyph-name="Ugrave" unicode="&#xd9;" horiz-adv-x="864" 
d="M162 129q-8 31 -8 81q0 63 22 134.5t39 105.5t54 103q-11 6 -36 6q-54 0 -106.5 -25.5t-52.5 -70.5q0 -23 11 -40t22 -26.5t11 -15.5q0 -36 -46 -57.5t-88 -21.5q-48 0 -81 33t-33 103q0 67 50.5 120.5t130 85t167.5 48t173 16.5q39 0 95.5 -21.5t56.5 -56.5
q0 -10 -13 -34q-34 -45 -82.5 -170.5t-48.5 -210.5q0 -47 19 -77t56 -30h6q7 2 13.5 9t11 20t7.5 24t6 31t4.5 31t4 34t3.5 31q30 236 85 339t147 103q26 0 78.5 -34.5t52.5 -79.5q-1 -6 -37 -104t-42 -145q-2 -16 -9 -54t-9 -57q-26 -195 -99 -257q-67 -57 -208 -57
q-135 0 -221.5 45.5t-105.5 141.5zM358 937q3 18 34 29t61 11q50 0 72.5 -19t33.5 -59q7 -24 49.5 -61t42.5 -65q0 -24 -34 -24q-50 0 -109.5 18.5t-106.5 57t-47 84.5q0 16 4 28z" />
    <glyph glyph-name="Uacute" unicode="&#xda;" horiz-adv-x="864" 
d="M162 129q-8 31 -8 81q0 63 22 134.5t39 105.5t54 103q-11 6 -36 6q-54 0 -106.5 -25.5t-52.5 -70.5q0 -23 11 -40t22 -26.5t11 -15.5q0 -36 -46 -57.5t-88 -21.5q-48 0 -81 33t-33 103q0 67 50.5 120.5t130 85t167.5 48t173 16.5q39 0 95.5 -21.5t56.5 -56.5
q0 -10 -13 -34q-34 -45 -82.5 -170.5t-48.5 -210.5q0 -47 19 -77t56 -30h6q7 2 13.5 9t11 20t7.5 24t6 31t4.5 31t4 34t3.5 31q30 236 85 339t147 103q26 0 78.5 -34.5t52.5 -79.5q-1 -6 -37 -104t-42 -145q-2 -16 -9 -54t-9 -57q-26 -195 -99 -257q-67 -57 -208 -57
q-135 0 -221.5 45.5t-105.5 141.5zM883 935q4 -12 4 -28q0 -46 -47 -84.5t-106.5 -57t-109.5 -18.5q-34 0 -34 24q0 28 42.5 65t49.5 61q11 40 33.5 59t72.5 19q30 0 61 -11t34 -29z" />
    <glyph glyph-name="Ucircumflex" unicode="&#xdb;" horiz-adv-x="864" 
d="M162 129q-8 31 -8 81q0 63 22 134.5t39 105.5t54 103q-11 6 -36 6q-54 0 -106.5 -25.5t-52.5 -70.5q0 -23 11 -40t22 -26.5t11 -15.5q0 -36 -46 -57.5t-88 -21.5q-48 0 -81 33t-33 103q0 67 50.5 120.5t130 85t167.5 48t173 16.5q39 0 95.5 -21.5t56.5 -56.5
q0 -10 -13 -34q-34 -45 -82.5 -170.5t-48.5 -210.5q0 -47 19 -77t56 -30h6q7 2 13.5 9t11 20t7.5 24t6 31t4.5 31t4 34t3.5 31q30 236 85 339t147 103q26 0 78.5 -34.5t52.5 -79.5q-1 -6 -37 -104t-42 -145q-2 -16 -9 -54t-9 -57q-26 -195 -99 -257q-67 -57 -208 -57
q-135 0 -221.5 45.5t-105.5 141.5zM700 843q0 -1 15 -21t15 -29q0 -20 -33 -32.5t-60 -12.5q-23 0 -38.5 14.5t-22.5 33t-20.5 37.5t-31.5 25q-4 0 -20.5 -24.5t-38 -49t-37.5 -24.5q-24 0 -45 11.5t-21 38.5q0 67 61.5 127t140.5 64q80 0 136 -158z" />
    <glyph glyph-name="Udieresis" unicode="&#xdc;" horiz-adv-x="864" 
d="M162 129q-8 31 -8 81q0 63 22 134.5t39 105.5t54 103q-11 6 -36 6q-54 0 -106.5 -25.5t-52.5 -70.5q0 -23 11 -40t22 -26.5t11 -15.5q0 -36 -46 -57.5t-88 -21.5q-48 0 -81 33t-33 103q0 67 50.5 120.5t130 85t167.5 48t173 16.5q39 0 95.5 -21.5t56.5 -56.5
q0 -10 -13 -34q-34 -45 -82.5 -170.5t-48.5 -210.5q0 -47 19 -77t56 -30h6q7 2 13.5 9t11 20t7.5 24t6 31t4.5 31t4 34t3.5 31q30 236 85 339t147 103q26 0 78.5 -34.5t52.5 -79.5q-1 -6 -37 -104t-42 -145q-2 -16 -9 -54t-9 -57q-26 -195 -99 -257q-67 -57 -208 -57
q-135 0 -221.5 45.5t-105.5 141.5zM664 968h13q56 0 99 -26t43 -72q0 -42 -31.5 -76t-72.5 -34q-48 0 -83.5 42.5t-35.5 93.5q0 68 68 72zM368 866q-1 5 -1 14q0 69 71 69q54 0 90 -32t36 -68q0 -37 -22 -67t-57 -30q-34 0 -70 27.5t-47 86.5z" />
    <glyph glyph-name="Yacute" unicode="&#xdd;" horiz-adv-x="778" 
d="M756 395q0 -218 -21 -348q-36 -225 -359 -225q-41 0 -76 4t-77 18t-73 38t-57 66.5t-37 100.5q-3 16 -3 31q0 49 29 74.5t76 25.5q32 0 57 -9q-41 44 -41 123q0 11 2 35q-20 -20 -55.5 -31t-65.5 -11q-49 0 -83.5 36.5t-34.5 111.5q0 67 45.5 119t118.5 80.5t151 42.5
t155 14q7 0 20 -2t31 -7.5t30.5 -17.5t12.5 -28q0 -14 -15 -29q-16 -11 -57.5 -121.5t-41.5 -178.5q0 -42 21 -63t53 -21q27 0 53 15v77q0 52 1.5 93t6.5 95t16.5 94t29 76t45.5 55.5t65 19.5q29 0 76.5 -31t60.5 -79q0 -2 0.5 -3t0.5 -3q0 -18 -11 -60.5t-27 -98t-22 -78.5
zM444 99q-111 0 -176 32q12 -18 12 -41q0 -44 -30 -68q52 -75 117 -75q71 0 110.5 43t39.5 114q-17 -2 -30 -3q-32 -2 -43 -2zM141 465q0 -29 5.5 -46.5t11.5 -23t16 -10t12 -6.5q24 89 95 199q-3 0 -16 -3t-34.5 -11t-41 -20t-34 -32.5t-14.5 -46.5zM759 949q4 -12 4 -28
q0 -46 -47 -84.5t-106.5 -57t-109.5 -18.5q-34 0 -34 24q0 28 42.5 65t49.5 61q11 40 33.5 59t72.5 19q30 0 61 -11t34 -29z" />
    <glyph glyph-name="Thorn" unicode="&#xde;" horiz-adv-x="955" 
d="M361 37q-38 187 -17 372q-168 -17 -168 -106q0 -15 6 -35q5 -18 14 -26t16.5 -7.5t13 -3t5.5 -14.5q0 -36 -45 -56.5t-90 -20.5q-49 0 -84 39.5t-35 116.5q0 60 32 108t89 78.5t127 49t155 26.5q66 187 187 187q31 0 80 -39.5t60 -81.5v-3q0 -20 -27 -62q112 -9 180 -91
q42 -42 53 -97q7 -30 7 -44q0 -25 -6 -47q-18 -105 -114 -169.5t-231 -70.5v-34q0 -49 -13 -69t-59 -20q-60 0 -93.5 27t-42.5 93zM617 380h-6q-31 -139 -34 -213h1q48 0 77.5 42.5t29.5 92.5v11q0 67 -68 67z" />
    <glyph glyph-name="germandbls" unicode="&#xdf;" horiz-adv-x="619" 
d="M-13 15q-1 28 -4 86q-11 115 -6 232.5t22 211t79 145t165 34.5q100 -17 162.5 -43t94.5 -68t13 -104t-90 -144l21 -11q20 -12 51 -33.5t61 -46.5t51.5 -56t21.5 -58q1 -96 -102.5 -152t-207.5 -29.5t-104 129.5q0 42 15 66t42 24q79 0 92 -43q1 -8 2.5 -21t3.5 -21
q5 -29 17 -28q14 1 13 32l-1 7q-7 29 -26 52t-41.5 39t-44.5 32.5t-38 43.5t-18 62q-1 19 25 80.5t20 89.5q-3 18 -20 18q-6 0 -10.5 -1.5t-8.5 -6t-6.5 -9t-4.5 -12.5t-3.5 -15t-3 -18.5t-2 -20t-2 -23t-2.5 -24.5q-7 -55 -8.5 -182t-12 -223t-41.5 -145q-10 -19 -20 -29.5
t-39.5 -20.5t-76.5 -10q-80 0 -102 69q-16 49 4 87q16 32 38 10q32 -32 32 32v11v5z" />
    <glyph glyph-name="agrave" unicode="&#xe0;" horiz-adv-x="533" 
d="M603 200q1 -2 1 -10q0 -53 -85.5 -128.5t-152.5 -75.5q-101 0 -119 58q-17 -27 -54 -48t-67 -23q-69 0 -114.5 39t-45.5 128q0 95 84.5 186.5t176.5 91.5q14 0 29 -3l1 7q1 8 1.5 10t2.5 9.5t3.5 10t5 8t7.5 7.5t10 4t13 2q46 0 106.5 -34t60.5 -63q0 -107 -42 -248
q16 2 36 19t77 76q17 17 32 17q10 0 20 -14t13 -26zM189 186q0 -24 8 -36.5t19 -12.5q9 0 15.5 6.5t6.5 17.5q3 121 8 154q-28 -21 -42.5 -56t-14.5 -73zM174 686q3 18 34 29t61 11q50 0 72.5 -19t33.5 -59q7 -24 49.5 -61t42.5 -65q0 -24 -34 -24q-50 0 -109.5 18.5
t-106.5 57t-47 84.5q0 16 4 28z" />
    <glyph glyph-name="aacute" unicode="&#xe1;" horiz-adv-x="533" 
d="M603 200q1 -2 1 -10q0 -53 -85.5 -128.5t-152.5 -75.5q-101 0 -119 58q-17 -27 -54 -48t-67 -23q-69 0 -114.5 39t-45.5 128q0 95 84.5 186.5t176.5 91.5q14 0 29 -3l1 7q1 8 1.5 10t2.5 9.5t3.5 10t5 8t7.5 7.5t10 4t13 2q46 0 106.5 -34t60.5 -63q0 -107 -42 -248
q16 2 36 19t77 76q17 17 32 17q10 0 20 -14t13 -26zM189 186q0 -24 8 -36.5t19 -12.5q9 0 15.5 6.5t6.5 17.5q3 121 8 154q-28 -21 -42.5 -56t-14.5 -73zM426 654q4 -12 4 -28q0 -46 -47 -84.5t-106.5 -57t-109.5 -18.5q-34 0 -34 24q0 28 42.5 65t49.5 61q11 40 33.5 59
t72.5 19q30 0 61 -11t34 -29z" />
    <glyph glyph-name="acircumflex" unicode="&#xe2;" horiz-adv-x="533" 
d="M603 200q1 -2 1 -10q0 -53 -85.5 -128.5t-152.5 -75.5q-101 0 -119 58q-17 -27 -54 -48t-67 -23q-69 0 -114.5 39t-45.5 128q0 95 84.5 186.5t176.5 91.5q14 0 29 -3l1 7q1 8 1.5 10t2.5 9.5t3.5 10t5 8t7.5 7.5t10 4t13 2q46 0 106.5 -34t60.5 -63q0 -107 -42 -248
q16 2 36 19t77 76q17 17 32 17q10 0 20 -14t13 -26zM189 186q0 -24 8 -36.5t19 -12.5q9 0 15.5 6.5t6.5 17.5q3 121 8 154q-28 -21 -42.5 -56t-14.5 -73zM498 563q0 -1 15 -21t15 -29q0 -20 -33 -32.5t-60 -12.5q-23 0 -38.5 14.5t-22.5 33t-20.5 37.5t-31.5 25
q-4 0 -20.5 -24.5t-38 -49t-37.5 -24.5q-24 0 -45 11.5t-21 38.5q0 67 61.5 127t140.5 64q80 0 136 -158z" />
    <glyph glyph-name="atilde" unicode="&#xe3;" horiz-adv-x="533" 
d="M603 200q1 -2 1 -10q0 -53 -85.5 -128.5t-152.5 -75.5q-101 0 -119 58q-17 -27 -54 -48t-67 -23q-69 0 -114.5 39t-45.5 128q0 95 84.5 186.5t176.5 91.5q14 0 29 -3l1 7q1 8 1.5 10t2.5 9.5t3.5 10t5 8t7.5 7.5t10 4t13 2q46 0 106.5 -34t60.5 -63q0 -107 -42 -248
q16 2 36 19t77 76q17 17 32 17q10 0 20 -14t13 -26zM189 186q0 -24 8 -36.5t19 -12.5q9 0 15.5 6.5t6.5 17.5q3 121 8 154q-28 -21 -42.5 -56t-14.5 -73zM326 613q13 -2 58 -13t60 -11q22 0 33 3.5t11 8t1.5 8t8.5 3.5q30 0 50 -27t20 -56q0 -32 -25.5 -51t-65.5 -19
q-19 0 -48 11.5t-73 23.5t-99 12q-8 0 -21.5 -1t-19.5 -1q-25 0 -25 34q0 32 22.5 55t72.5 23q18 0 40 -3z" />
    <glyph glyph-name="adieresis" unicode="&#xe4;" horiz-adv-x="533" 
d="M603 200q1 -2 1 -10q0 -53 -85.5 -128.5t-152.5 -75.5q-101 0 -119 58q-17 -27 -54 -48t-67 -23q-69 0 -114.5 39t-45.5 128q0 95 84.5 186.5t176.5 91.5q14 0 29 -3l1 7q1 8 1.5 10t2.5 9.5t3.5 10t5 8t7.5 7.5t10 4t13 2q46 0 106.5 -34t60.5 -63q0 -107 -42 -248
q16 2 36 19t77 76q17 17 32 17q10 0 20 -14t13 -26zM189 186q0 -24 8 -36.5t19 -12.5q9 0 15.5 6.5t6.5 17.5q3 121 8 154q-28 -21 -42.5 -56t-14.5 -73zM405 687h13q56 0 99 -26t43 -72q0 -42 -31.5 -76t-72.5 -34q-48 0 -83.5 42.5t-35.5 93.5q0 68 68 72zM109 585
q-1 5 -1 14q0 69 71 69q54 0 90 -32t36 -68q0 -37 -22 -67t-57 -30q-34 0 -70 27.5t-47 86.5z" />
    <glyph glyph-name="aring" unicode="&#xe5;" horiz-adv-x="533" 
d="M603 200q1 -2 1 -10q0 -53 -85.5 -128.5t-152.5 -75.5q-101 0 -119 58q-17 -27 -54 -48t-67 -23q-69 0 -114.5 39t-45.5 128q0 95 84.5 186.5t176.5 91.5q14 0 29 -3l1 7q1 8 1.5 10t2.5 9.5t3.5 10t5 8t7.5 7.5t10 4t13 2q46 0 106.5 -34t60.5 -63q0 -107 -42 -248
q16 2 36 19t77 76q17 17 32 17q10 0 20 -14t13 -26zM189 186q0 -24 8 -36.5t19 -12.5q9 0 15.5 6.5t6.5 17.5q3 121 8 154q-28 -21 -42.5 -56t-14.5 -73zM303 710q5 20 25.5 31.5t43.5 11.5q50 0 92 -39.5t42 -101.5t-47.5 -98t-92.5 -36q-52 0 -90 37t-38 102q0 68 65 93z
M348 616q-2 -6 -2 -9q0 -12 6 -23.5t14 -11.5q4 0 17 7.5t13 12.5q0 2 -2 3t-2 3v2q0 7 -10 14t-21 7q-8 0 -13 -5z" />
    <glyph glyph-name="ae" unicode="&#xe6;" horiz-adv-x="741" 
d="M741 237q3 7 19 7q18 0 34 -9t16 -25q0 -52 -47 -103t-118.5 -83t-147 -46.5t-140.5 5.5t-92 73q-17 -25 -29.5 -39.5t-42 -29t-67.5 -14.5q-69 0 -114.5 39t-45.5 128q0 95 84.5 186.5t176.5 91.5q14 0 29 -3l1 7q1 8 1.5 10t2.5 9.5t3.5 10t5 8t7.5 7.5t10 4t13 2
q30 0 72.5 -18t70.5 -42q39 10 88 10q78 0 123.5 -33.5t45.5 -91.5q0 -53 -55.5 -100.5t-143.5 -71.5q13 -19 41 -19q41 0 98.5 38t100.5 92zM189 186q0 -24 8 -36.5t19 -12.5q9 0 15.5 6.5t6.5 17.5q0 105 8 154q-28 -21 -42.5 -56t-14.5 -73zM459 217q26 9 39.5 30.5
t13.5 37.5q0 20 -6 20q-17 0 -33 -22t-16 -50q0 -2 2 -16z" />
    <glyph glyph-name="ccedilla" unicode="&#xe7;" horiz-adv-x="444" 
d="M183 228q0 -115 99 -115q60 0 101.5 38.5t83.5 109.5q5 12 17 12q18 0 34 -19.5t16 -31.5q0 -26 -26.5 -66.5t-68.5 -79.5t-101.5 -66.5t-116.5 -27.5q-111 0 -173 57.5t-62 173.5q0 94 81 155t197 61q151 0 151 -126q0 -55 -29.5 -88.5t-67.5 -33.5q-85 0 -107 30
q-12 18 -4.5 41t23.5 31q2 1 8 3t10 6q3 3 -3 12q-4 6 -7 9q-20 0 -37.5 -19.5t-17.5 -65.5zM171 -149q0 7 -5.5 13.5t-11.5 9.5t-15.5 7.5t-10.5 5.5q-2 1 -7 2.5t-5 3.5t-1 7.5t-1 17.5q0 50 20 90.5t65 40.5q13 0 26.5 -8.5t20 -19t1.5 -15.5q-3 -1 -6.5 -21.5
t-3.5 -34.5q0 -6 2 -16q53 -47 53 -105q0 -36 -30 -60t-90 -24q-58 0 -107.5 32.5t-49.5 70.5q0 19 12.5 28.5t43.5 11.5q31 0 59.5 -20.5t34.5 -20.5t6 4z" />
    <glyph glyph-name="egrave" unicode="&#xe8;" horiz-adv-x="441" 
d="M456 237q2 5 15 5q29 0 41.5 -6.5t12.5 -25.5q0 -48 -47.5 -101.5t-121 -90t-142.5 -36.5q-112 0 -173 60t-61 163q0 98 71 158t195 60q78 0 123.5 -33.5t45.5 -91.5q0 -53 -55.5 -100.5t-143.5 -71.5q28 -40 104.5 -0.5t135.5 111.5zM174 217q26 9 39.5 30.5t13.5 37.5
q0 20 -6 20q-17 0 -33 -22t-16 -50q0 -2 2 -16zM58 636q3 18 34 29t61 11q50 0 72.5 -19t33.5 -59q7 -24 49.5 -61t42.5 -65q0 -24 -34 -24q-50 0 -109.5 18.5t-106.5 57t-47 84.5q0 16 4 28z" />
    <glyph glyph-name="eacute" unicode="&#xe9;" horiz-adv-x="441" 
d="M456 237q2 5 15 5q29 0 41.5 -6.5t12.5 -25.5q0 -48 -47.5 -101.5t-121 -90t-142.5 -36.5q-112 0 -173 60t-61 163q0 98 71 158t195 60q78 0 123.5 -33.5t45.5 -91.5q0 -53 -55.5 -100.5t-143.5 -71.5q28 -40 104.5 -0.5t135.5 111.5zM174 217q26 9 39.5 30.5t13.5 37.5
q0 20 -6 20q-17 0 -33 -22t-16 -50q0 -2 2 -16zM392 657q4 -12 4 -28q0 -46 -47 -84.5t-106.5 -57t-109.5 -18.5q-34 0 -34 24q0 28 42.5 65t49.5 61q11 40 33.5 59t72.5 19q30 0 61 -11t34 -29z" />
    <glyph glyph-name="ecircumflex" unicode="&#xea;" horiz-adv-x="441" 
d="M456 237q2 5 15 5q29 0 41.5 -6.5t12.5 -25.5q0 -48 -47.5 -101.5t-121 -90t-142.5 -36.5q-112 0 -173 60t-61 163q0 98 71 158t195 60q78 0 123.5 -33.5t45.5 -91.5q0 -53 -55.5 -100.5t-143.5 -71.5q28 -40 104.5 -0.5t135.5 111.5zM174 217q26 9 39.5 30.5t13.5 37.5
q0 20 -6 20q-17 0 -33 -22t-16 -50q0 -2 2 -16zM387 539q0 -1 15 -21t15 -29q0 -20 -33 -32.5t-60 -12.5q-23 0 -38.5 14.5t-22.5 33t-20.5 37.5t-31.5 25q-4 0 -20.5 -24.5t-38 -49t-37.5 -24.5q-24 0 -45 11.5t-21 38.5q0 67 61.5 127t140.5 64q80 0 136 -158z" />
    <glyph glyph-name="edieresis" unicode="&#xeb;" horiz-adv-x="441" 
d="M456 237q2 5 15 5q29 0 41.5 -6.5t12.5 -25.5q0 -48 -47.5 -101.5t-121 -90t-142.5 -36.5q-112 0 -173 60t-61 163q0 98 71 158t195 60q78 0 123.5 -33.5t45.5 -91.5q0 -53 -55.5 -100.5t-143.5 -71.5q28 -40 104.5 -0.5t135.5 111.5zM174 217q26 9 39.5 30.5t13.5 37.5
q0 20 -6 20q-17 0 -33 -22t-16 -50q0 -2 2 -16zM336 646h13q56 0 99 -26t43 -72q0 -42 -31.5 -76t-72.5 -34q-48 0 -83.5 42.5t-35.5 93.5q0 68 68 72zM40 544q-1 5 -1 14q0 69 71 69q54 0 90 -32t36 -68q0 -37 -22 -67t-57 -30q-34 0 -70 27.5t-47 86.5z" />
    <glyph glyph-name="igrave" unicode="&#xec;" horiz-adv-x="291" 
d="M-48 626q3 18 34 29t61 11q50 0 72.5 -19t33.5 -59q7 -24 49.5 -61t42.5 -65q0 -24 -34 -24q-50 0 -109.5 18.5t-106.5 57t-47 84.5q0 16 4 28zM358 184q1 -3 1 -13q0 -36 -46 -82.5t-106.5 -78t-99.5 -31.5q-74 0 -102 47t-28 156q0 94 32 165t97 71q47 0 78.5 -11.5
t43 -29.5t14.5 -29.5t3 -22.5q0 -9 -2 -18t-4.5 -16t-9 -24.5t-11.5 -30.5t-7.5 -25.5t-5.5 -38t-5 -38.5q24 11 111 98q8 6 17 3t18 -17.5t12 -33.5z" />
    <glyph glyph-name="iacute" unicode="&#xed;" horiz-adv-x="291" 
d="M313 637q4 -12 4 -28q0 -46 -47 -84.5t-106.5 -57t-109.5 -18.5q-34 0 -34 24q0 28 42.5 65t49.5 61q11 40 33.5 59t72.5 19q30 0 61 -11t34 -29zM358 184q1 -3 1 -13q0 -36 -46 -82.5t-106.5 -78t-99.5 -31.5q-74 0 -102 47t-28 156q0 94 32 165t97 71q47 0 78.5 -11.5
t43 -29.5t14.5 -29.5t3 -22.5q0 -9 -2 -18t-4.5 -16t-9 -24.5t-11.5 -30.5t-7.5 -25.5t-5.5 -38t-5 -38.5q24 11 111 98q8 6 17 3t18 -17.5t12 -33.5z" />
    <glyph glyph-name="icircumflex" unicode="&#xee;" horiz-adv-x="291" 
d="M358 184q1 -3 1 -13q0 -36 -46 -82.5t-106.5 -78t-99.5 -31.5q-74 0 -102 47t-28 156q0 94 32 165t97 71q47 0 78.5 -11.5t43 -29.5t14.5 -29.5t3 -22.5q0 -9 -2 -18t-4.5 -16t-9 -24.5t-11.5 -30.5t-7.5 -25.5t-5.5 -38t-5 -38.5q24 11 111 98q8 6 17 3t18 -17.5
t12 -33.5zM312 528q0 -1 15 -21t15 -29q0 -20 -33 -32.5t-60 -12.5q-23 0 -38.5 14.5t-22.5 33t-20.5 37.5t-31.5 25q-4 0 -20.5 -24.5t-38 -49t-37.5 -24.5q-24 0 -45 11.5t-21 38.5q0 67 61.5 127t140.5 64q80 0 136 -158z" />
    <glyph glyph-name="idieresis" unicode="&#xef;" horiz-adv-x="291" 
d="M218 652h13q56 0 99 -26t43 -72q0 -42 -31.5 -76t-72.5 -34q-48 0 -83.5 42.5t-35.5 93.5q0 68 68 72zM-78 550q-1 5 -1 14q0 69 71 69q54 0 90 -32t36 -68q0 -37 -22 -67t-57 -30q-34 0 -70 27.5t-47 86.5zM358 184q1 -3 1 -13q0 -36 -46 -82.5t-106.5 -78t-99.5 -31.5
q-74 0 -102 47t-28 156q0 94 32 165t97 71q47 0 78.5 -11.5t43 -29.5t14.5 -29.5t3 -22.5q0 -9 -2 -18t-4.5 -16t-9 -24.5t-11.5 -30.5t-7.5 -25.5t-5.5 -38t-5 -38.5q24 11 111 98q8 6 17 3t18 -17.5t12 -33.5z" />
    <glyph glyph-name="eth" unicode="&#xf0;" horiz-adv-x="522" 
d="M131 520q0 32 44 52q-16 28 -16 68q0 19 14.5 34t37.5 22.5t45 11t42 3.5q57 0 107 -94q22 6 37 6q26 0 49.5 -27.5t23.5 -54.5q0 -39 -63 -55q0 -4 0.5 -8.5t0.5 -5.5q21 -105 21 -188q0 -309 -300 -309q-52 0 -104 25t-78 70q-45 77 -45 144q0 66 42.5 114.5t101 70
t119.5 21.5q27 0 38 -12t11 -39q0 -20 -16 -27q-42 -25 -60 -52.5t-18 -69.5q0 -105 53 -105q27 0 42 36.5t15 90.5q0 123 -34 209q-110 0 -110 69z" />
    <glyph glyph-name="ntilde" unicode="&#xf1;" horiz-adv-x="542" 
d="M610 167q-1 -28 -45 -72.5t-105.5 -79.5t-106.5 -35q-140 0 -140 104q0 30 11.5 70t21.5 64l11 24q-30 -22 -48.5 -67.5t-18.5 -83.5q0 -35 13 -68q0 -1 0.5 -3t0.5 -4q0 -31 -81 -31q-75 0 -109 45.5t-34 154.5q0 98 34.5 182t78.5 84q50 0 101 -16t51 -46
q0 -10 -11.5 -21.5t-13.5 -24.5q85 73 161 73q39 0 79.5 -21t40.5 -57q0 -31 -33 -117.5t-35 -99.5q39 7 69 49l38 46q14 14 21 14q35 0 49 -63zM213 585q13 -2 58 -13t60 -11q22 0 33 3.5t11 8t1.5 8t8.5 3.5q30 0 50 -27t20 -56q0 -32 -25.5 -51t-65.5 -19q-19 0 -48 11.5
t-73 23.5t-99 12q-8 0 -21.5 -1t-19.5 -1q-25 0 -25 34q0 32 22.5 55t72.5 23q17 0 40 -3z" />
    <glyph glyph-name="ograve" unicode="&#xf2;" horiz-adv-x="514" 
d="M409 97q-41 -57 -90 -86t-122 -29q-84 0 -151.5 57.5t-67.5 139.5q0 115 59 184t172 69q21 0 49.5 -5.5t40.5 -13.5q13 7 30 7q42 0 72.5 -34t42 -72t11.5 -68q0 -36 -10 -59q9 -12 30 -12q25 0 51 21.5t29 21.5q49 -7 49 -47q0 -47 -32.5 -69.5t-80.5 -22.5
q-44 0 -82 18zM209 123q14 0 26 17.5t16 48.5q-11 8 -23.5 36.5t-18.5 56.5q-31 -51 -31 -94q0 -62 31 -65zM58 629q3 18 34 29t61 11q50 0 72.5 -19t33.5 -59q7 -24 49.5 -61t42.5 -65q0 -24 -34 -24q-50 0 -109.5 18.5t-106.5 57t-47 84.5q0 16 4 28z" />
    <glyph glyph-name="oacute" unicode="&#xf3;" horiz-adv-x="514" 
d="M409 97q-41 -57 -90 -86t-122 -29q-84 0 -151.5 57.5t-67.5 139.5q0 115 59 184t172 69q21 0 49.5 -5.5t40.5 -13.5q13 7 30 7q42 0 72.5 -34t42 -72t11.5 -68q0 -36 -10 -59q9 -12 30 -12q25 0 51 21.5t29 21.5q49 -7 49 -47q0 -47 -32.5 -69.5t-80.5 -22.5
q-44 0 -82 18zM209 123q14 0 26 17.5t16 48.5q-11 8 -23.5 36.5t-18.5 56.5q-31 -51 -31 -94q0 -62 31 -65zM512 636q4 -12 4 -28q0 -46 -47 -84.5t-106.5 -57t-109.5 -18.5q-34 0 -34 24q0 28 42.5 65t49.5 61q11 40 33.5 59t72.5 19q30 0 61 -11t34 -29z" />
    <glyph glyph-name="ocircumflex" unicode="&#xf4;" horiz-adv-x="514" 
d="M409 97q-41 -57 -90 -86t-122 -29q-84 0 -151.5 57.5t-67.5 139.5q0 115 59 184t172 69q21 0 49.5 -5.5t40.5 -13.5q13 7 30 7q42 0 72.5 -34t42 -72t11.5 -68q0 -36 -10 -59q9 -12 30 -12q25 0 51 21.5t29 21.5q49 -7 49 -47q0 -47 -32.5 -69.5t-80.5 -22.5
q-44 0 -82 18zM209 123q14 0 26 17.5t16 48.5q-11 8 -23.5 36.5t-18.5 56.5q-31 -51 -31 -94q0 -62 31 -65zM425 523q0 -1 15 -21t15 -29q0 -20 -33 -32.5t-60 -12.5q-23 0 -38.5 14.5t-22.5 33t-20.5 37.5t-31.5 25q-4 0 -20.5 -24.5t-38 -49t-37.5 -24.5q-24 0 -45 11.5
t-21 38.5q0 67 61.5 127t140.5 64q80 0 136 -158z" />
    <glyph glyph-name="otilde" unicode="&#xf5;" horiz-adv-x="514" 
d="M409 97q-41 -57 -90 -86t-122 -29q-84 0 -151.5 57.5t-67.5 139.5q0 115 59 184t172 69q21 0 49.5 -5.5t40.5 -13.5q13 7 30 7q42 0 72.5 -34t42 -72t11.5 -68q0 -36 -10 -59q9 -12 30 -12q25 0 51 21.5t29 21.5q49 -7 49 -47q0 -47 -32.5 -69.5t-80.5 -22.5
q-44 0 -82 18zM209 123q14 0 26 17.5t16 48.5q-11 8 -23.5 36.5t-18.5 56.5q-31 -51 -31 -94q0 -62 31 -65zM237 574q13 -2 58 -13t60 -11q22 0 33 3.5t11 8t1.5 8t8.5 3.5q30 0 50 -27t20 -56q0 -32 -25.5 -51t-65.5 -19q-19 0 -48 12t-73 23.5t-99 11.5q-8 0 -21.5 -1
t-19.5 -1q-25 0 -25 34q0 32 22.5 55t72.5 23q17 0 40 -3z" />
    <glyph glyph-name="odieresis" unicode="&#xf6;" horiz-adv-x="514" 
d="M409 97q-41 -57 -90 -86t-122 -29q-84 0 -151.5 57.5t-67.5 139.5q0 115 59 184t172 69q21 0 49.5 -5.5t40.5 -13.5q13 7 30 7q42 0 72.5 -34t42 -72t11.5 -68q0 -36 -10 -59q9 -12 30 -12q25 0 51 21.5t29 21.5q49 -7 49 -47q0 -47 -32.5 -69.5t-80.5 -22.5
q-44 0 -82 18zM209 123q14 0 26 17.5t16 48.5q-11 8 -23.5 36.5t-18.5 56.5q-31 -51 -31 -94q0 -62 31 -65zM313 666h13q56 0 99 -26t43 -72q0 -42 -31.5 -76t-72.5 -34q-48 0 -83.5 42.5t-35.5 93.5q0 68 68 72zM17 564q-1 5 -1 14q0 69 71 69q54 0 90 -32t36 -68
q0 -37 -22 -67t-57 -30q-34 0 -70 27.5t-47 86.5z" />
    <glyph glyph-name="divide" unicode="&#xf7;" horiz-adv-x="533" 
d="M287 73q4 -27 -13 -44t-51 -17q-32 0 -56.5 17.5t-29.5 42.5q-4 22 12 41.5t54 19.5q31 0 55 -17.5t29 -42.5zM239 325q-33 2 -56.5 18.5t-30.5 42.5q-3 18 11.5 39.5t51.5 21.5q34 0 58.5 -18t30.5 -47q4 -20 -13.5 -38.5t-51.5 -18.5zM290 189q-27 0 -139 1.5t-138 1.5
q-24 14 -30 39q-3 21 12 37t40 19q61 0 218.5 12t207.5 23q42 -12 48 -51q3 -19 -3.5 -33t-23 -22.5t-35.5 -14t-48 -8t-52.5 -3.5t-56.5 -1z" />
    <glyph glyph-name="oslash" unicode="&#xf8;" horiz-adv-x="514" 
d="M438 97q-41 -57 -90 -86t-122 -29q-23 0 -40 4q-10 -23 -22.5 -56.5t-20.5 -53t-18.5 -40t-23 -29.5t-28.5 -9q-26 0 -53 15.5t-42 42.5v1q0 16 95 184q-66 58 -66 138q0 115 59 184t172 69q24 0 53 -6q23 43 54 110q22 10 33 10q3 0 10 -0.5t22 -4t27.5 -9t24 -17.5
t15.5 -27q1 -1 1 -5t-10 -19t-26.5 -37l-22.5 -30q30 -25 47.5 -72t17.5 -79q0 -36 -10 -59q9 -12 30 -12q25 0 51 21.5t29 21.5q49 -7 49 -47q0 -47 -32.5 -69.5t-80.5 -22.5q-44 0 -82 18zM238 123q14 0 26 17.5t16 48.5q6 22 -6.5 51.5t-35.5 41.5q-31 -51 -31 -94
q0 -62 31 -65z" />
    <glyph glyph-name="ugrave" unicode="&#xf9;" 
d="M612 179q0 -45 -31.5 -85t-75 -64t-84.5 -38t-65 -14q-48 0 -73.5 15t-34.5 50q-53 -64 -133 -64q-73 2 -104 48t-31 158q0 44 5.5 82.5t18 74t36 56.5t55.5 21q70 0 105.5 -16t35.5 -61q0 -20 -6.5 -49.5t-14 -54.5t-13.5 -48t-5 -37.5t11 -15.5q7 -1 14 8t12.5 25.5
t8 27.5t5.5 25q3 15 7.5 45t6.5 43t7 34.5t10 30.5t13 20.5t18.5 15.5t24.5 4q62 0 113 -19q52 -20 52 -79q0 -21 -34 -120q-27 -77 -13 -78q15 -2 74 63q4 4 11 12t11 12.5t9 8t9 3.5q17 -1 31 -12t14 -28zM113 633q3 18 34 29t61 11q50 0 72.5 -19t33.5 -59
q7 -24 49.5 -61t42.5 -65q0 -24 -34 -24q-50 0 -109.5 18.5t-106.5 57t-47 84.5q0 16 4 28z" />
    <glyph glyph-name="uacute" unicode="&#xfa;" 
d="M612 179q0 -45 -31.5 -85t-75 -64t-84.5 -38t-65 -14q-48 0 -73.5 15t-34.5 50q-53 -64 -133 -64q-73 2 -104 48t-31 158q0 44 5.5 82.5t18 74t36 56.5t55.5 21q70 0 105.5 -16t35.5 -61q0 -20 -6.5 -49.5t-14 -54.5t-13.5 -48t-5 -37.5t11 -15.5q7 -1 14 8t12.5 25.5
t8 27.5t5.5 25q3 15 7.5 45t6.5 43t7 34.5t10 30.5t13 20.5t18.5 15.5t24.5 4q62 0 113 -19q52 -20 52 -79q0 -21 -34 -120q-27 -77 -13 -78q15 -2 74 63q4 4 11 12t11 12.5t9 8t9 3.5q17 -1 31 -12t14 -28zM480 632q4 -12 4 -28q0 -46 -47 -84.5t-106.5 -57t-109.5 -18.5
q-34 0 -34 24q0 28 42.5 65t49.5 61q11 40 33.5 59t72.5 19q30 0 61 -11t34 -29z" />
    <glyph glyph-name="ucircumflex" unicode="&#xfb;" 
d="M612 179q0 -45 -31.5 -85t-75 -64t-84.5 -38t-65 -14q-48 0 -73.5 15t-34.5 50q-53 -64 -133 -64q-73 2 -104 48t-31 158q0 44 5.5 82.5t18 74t36 56.5t55.5 21q70 0 105.5 -16t35.5 -61q0 -20 -6.5 -49.5t-14 -54.5t-13.5 -48t-5 -37.5t11 -15.5q7 -1 14 8t12.5 25.5
t8 27.5t5.5 25q3 15 7.5 45t6.5 43t7 34.5t10 30.5t13 20.5t18.5 15.5t24.5 4q62 0 113 -19q52 -20 52 -79q0 -21 -34 -120q-27 -77 -13 -78q15 -2 74 63q4 4 11 12t11 12.5t9 8t9 3.5q17 -1 31 -12t14 -28zM452 534q0 -1 15 -21t15 -29q0 -20 -33 -32.5t-60 -12.5
q-23 0 -38.5 14.5t-22.5 33t-20.5 37.5t-31.5 25q-4 0 -20.5 -24.5t-38 -49t-37.5 -24.5q-24 0 -45 11.5t-21 38.5q0 67 61.5 127t140.5 64q80 0 136 -158z" />
    <glyph glyph-name="udieresis" unicode="&#xfc;" 
d="M612 179q0 -45 -31.5 -85t-75 -64t-84.5 -38t-65 -14q-48 0 -73.5 15t-34.5 50q-53 -64 -133 -64q-73 2 -104 48t-31 158q0 44 5.5 82.5t18 74t36 56.5t55.5 21q70 0 105.5 -16t35.5 -61q0 -20 -6.5 -49.5t-14 -54.5t-13.5 -48t-5 -37.5t11 -15.5q7 -1 14 8t12.5 25.5
t8 27.5t5.5 25q3 15 7.5 45t6.5 43t7 34.5t10 30.5t13 20.5t18.5 15.5t24.5 4q62 0 113 -19q52 -20 52 -79q0 -21 -34 -120q-27 -77 -13 -78q15 -2 74 63q4 4 11 12t11 12.5t9 8t9 3.5q17 -1 31 -12t14 -28zM368 647h13q56 0 99 -26t43 -72q0 -42 -31.5 -76t-72.5 -34
q-48 0 -83.5 42.5t-35.5 93.5q0 68 68 72zM72 545q-1 5 -1 14q0 69 71 69q54 0 90 -32t36 -68q0 -37 -22 -67t-57 -30q-34 0 -70 27.5t-47 86.5z" />
    <glyph glyph-name="yacute" unicode="&#xfd;" horiz-adv-x="604" 
d="M513 30v-2q79 -16 133.5 -56t57.5 -105q2 -28 -24.5 -54t-56.5 -26q-23 -2 -49 11.5t-42 41.5q-23 39 -41 55.5t-42 22.5q24 -20 29 -26q-26 -70 -63 -114.5t-78 -44.5q-42 0 -92.5 61t-50.5 117q0 72 85 115q0 1 2 9.5t2 12.5q0 2 -1 3v1q-6 -3 -43 -27t-69 -37t-64 -13
q-34 0 -57.5 10.5t-36.5 27.5t-20 46.5t-9 57.5t-2 72q0 222 131 222q129 0 129 -84q0 -5 -0.5 -10t-0.5 -6q0 -26 -15.5 -102t-38.5 -76q29 0 55.5 43t45.5 112q10 60 36.5 90.5t76.5 30.5q74 0 102 -31t28 -109q0 -13 -1 -37t-1 -33v-2t-0.5 -3.5t-0.5 -5.5t-1 -9.5
t-1.5 -15t-2 -21.5t-2.5 -28t-3 -37t-4 -47zM510 600q4 -12 4 -28q0 -46 -47 -84.5t-106.5 -57t-109.5 -18.5q-34 0 -34 24q0 28 42.5 65t49.5 61q11 40 33.5 59t72.5 19q30 0 61 -11t34 -29z" />
    <glyph glyph-name="thorn" unicode="&#xfe;" horiz-adv-x="525" 
d="M197 63q-5 17 -5 33q0 43 42 47q19 34 19 54q0 7 -4 17.5t-5 16.5q-42 -3 -59.5 -25t-17.5 -65q0 -51 28 -171.5t28 -162.5q0 -70 -54 -70q-42 0 -88.5 33.5t-62.5 111.5q-2 11 -9.5 45.5t-10 50.5t-7 43.5t-6.5 51t-2 47.5t1 36q-1 7 -1 24q0 55 12.5 135t34.5 162
t58.5 139t78.5 57q47 0 112.5 -38.5t65.5 -79.5q0 -24 -22 -45q-43 -12 -89 -151q60 52 103 52q37 0 61 -12t35 -34t14.5 -43t3.5 -49q0 -61 -20 -129q-1 -3 -8 -8t-14.5 -9t-14.5 -7l-6 -3q47 2 92.5 36.5t65.5 73.5q8 16 23 16q21 0 37 -16.5t16 -39.5q0 -38 -42 -85
t-111 -82t-134 -35q-52 0 -86 15.5t-52 62.5z" />
    <glyph glyph-name="ydieresis" unicode="&#xff;" horiz-adv-x="604" 
d="M513 30v-2q79 -16 133.5 -56t57.5 -105q2 -28 -24.5 -54t-56.5 -26q-23 -2 -49 11.5t-42 41.5q-23 39 -41 55.5t-42 22.5q24 -20 29 -26q-26 -70 -63 -114.5t-78 -44.5q-42 0 -92.5 61t-50.5 117q0 72 85 115q0 1 2 9.5t2 12.5q0 2 -1 3v1q-6 -3 -43 -27t-69 -37t-64 -13
q-34 0 -57.5 10.5t-36.5 27.5t-20 46.5t-9 57.5t-2 72q0 222 131 222q129 0 129 -84q0 -5 -0.5 -10t-0.5 -6q0 -26 -15.5 -102t-38.5 -76q29 0 55.5 43t45.5 112q10 60 36.5 90.5t76.5 30.5q74 0 102 -31t28 -109q0 -13 -1 -37t-1 -33v-2t-0.5 -3.5t-0.5 -5.5t-1 -9.5
t-1.5 -15t-2 -21.5t-2.5 -28t-3 -37t-4 -47zM400 636h12q49 0 86.5 -25.5t37.5 -69.5q0 -40 -27.5 -73t-63.5 -33q-42 0 -73 41t-31 90q0 67 59 70zM141 537q-1 6 -1 14q0 67 62 67q47 0 79 -31.5t32 -65.5q0 -36 -19.5 -65t-50.5 -29q-30 0 -61.5 26.5t-40.5 83.5z" />
    <glyph glyph-name="Amacron" unicode="&#x100;" horiz-adv-x="922" 
d="M710 720v-1q48 -26 48 -66q0 -6 -5.5 -37t-5.5 -77q0 -85 13.5 -229.5t23.5 -180.5q1 -4 2.5 -8t2 -6t0.5 -3v-1q15 1 32 17t46 51.5t53 59.5q50 -6 59 -34q-11 -29 -33.5 -64.5t-58 -75t-88 -65.5t-110.5 -26q-13 0 -20 1v-1q-70 13 -92 70q-49 41 -178 124l-55 -70
q-76 -98 -125.5 -141t-96.5 -43q-48 0 -84.5 59.5t-36.5 99.5q0 22 22 40t67.5 47t79.5 63q-35 9 -55 36t-20 52q0 10 3 19q-38 11 -65 52t-27 106q0 67 43 117t121.5 79t179 43t226.5 14q76 0 134 -21zM260 432q-2 -3 -4 -10t-3 -11q40 -6 59 -13q29 46 41.5 81t23.5 93
q-96 -4 -121 -11q-43 -14 -44 -49q0 -22 4.5 -36.5t11.5 -20.5t14 -9.5l12 -6t6 -7.5zM524 446q-7 -40 -17 -79t-11 -55q10 -12 25 -22.5t24 -22.5q-8 34 -12 70t-5.5 67t-3.5 42zM440 860v2q-1 1 -1 3q0 15 8 33.5t19 18.5q210 11 329 33q46 -16 46 -65q0 -13 -5 -23
t-15.5 -17.5t-21.5 -12.5t-30 -8t-32.5 -5t-38 -3t-38 -1h-39.5q-29 0 -63 2.5t-74 13.5t-44 29z" />
    <glyph glyph-name="amacron" unicode="&#x101;" horiz-adv-x="533" 
d="M603 200q1 -2 1 -10q0 -53 -85.5 -128.5t-152.5 -75.5q-101 0 -119 58q-17 -27 -54 -48t-67 -23q-69 0 -114.5 39t-45.5 128q0 95 84.5 186.5t176.5 91.5q14 0 29 -3l1 7q1 8 1.5 10t2.5 9.5t3.5 10t5 8t7.5 7.5t10 4t13 2q46 0 106.5 -34t60.5 -63q0 -107 -42 -248
q16 2 36 19t77 76q17 17 32 17q10 0 20 -14t13 -26zM189 186q0 -24 8 -36.5t19 -12.5q9 0 15.5 6.5t6.5 17.5q3 121 8 154q-28 -21 -42.5 -56t-14.5 -73zM150 544v2q-1 1 -1 3q0 15 8 33.5t19 18.5q210 11 329 33q46 -16 46 -65q0 -13 -5 -23t-15.5 -17.5t-21.5 -12.5
t-30 -8t-32.5 -5t-38 -3t-38 -1h-39.5q-29 0 -63 2.5t-74 13.5t-44 29z" />
    <glyph glyph-name="Abreve" unicode="&#x102;" horiz-adv-x="922" 
d="M710 720v-1q48 -26 48 -66q0 -6 -5.5 -37t-5.5 -77q0 -85 13.5 -229.5t23.5 -180.5q1 -4 2.5 -8t2 -6t0.5 -3v-1q15 1 32 17t46 51.5t53 59.5q50 -6 59 -34q-11 -29 -33.5 -64.5t-58 -75t-88 -65.5t-110.5 -26q-13 0 -20 1v-1q-70 13 -92 70q-49 41 -178 124l-55 -70
q-76 -98 -125.5 -141t-96.5 -43q-48 0 -84.5 59.5t-36.5 99.5q0 22 22 40t67.5 47t79.5 63q-35 9 -55 36t-20 52q0 10 3 19q-38 11 -65 52t-27 106q0 67 43 117t121.5 79t179 43t226.5 14q76 0 134 -21zM260 432q-2 -3 -4 -10t-3 -11q40 -6 59 -13q29 46 41.5 81t23.5 93
q-96 -4 -121 -11q-43 -14 -44 -49q0 -22 4.5 -36.5t11.5 -20.5t14 -9.5l12 -6t6 -7.5zM524 446q-7 -40 -17 -79t-11 -55q10 -12 25 -22.5t24 -22.5q-8 34 -12 70t-5.5 67t-3.5 42zM840 960q3 -14 3 -26q0 -57 -53.5 -102t-124.5 -45q-95 0 -139 43.5t-44 104.5q0 70 68 70
q33 0 44 -17.5t8 -38.5t9 -38.5t47 -17.5q28 0 46 45q4 5 9.5 22t15.5 31.5t27 21.5q26 0 53 -15.5t31 -37.5z" />
    <glyph glyph-name="abreve" unicode="&#x103;" horiz-adv-x="533" 
d="M603 200q1 -2 1 -10q0 -53 -85.5 -128.5t-152.5 -75.5q-101 0 -119 58q-17 -27 -54 -48t-67 -23q-69 0 -114.5 39t-45.5 128q0 95 84.5 186.5t176.5 91.5q14 0 29 -3l1 7q1 8 1.5 10t2.5 9.5t3.5 10t5 8t7.5 7.5t10 4t13 2q46 0 106.5 -34t60.5 -63q0 -107 -42 -248
q16 2 36 19t77 76q17 17 32 17q10 0 20 -14t13 -26zM189 186q0 -24 8 -36.5t19 -12.5q9 0 15.5 6.5t6.5 17.5q3 121 8 154q-28 -21 -42.5 -56t-14.5 -73zM511 659q3 -13 3 -26q0 -57 -53.5 -102t-124.5 -45q-96 0 -139.5 44t-43.5 104q0 70 68 70q33 0 44 -17.5t8 -38.5
t9 -38.5t47 -17.5q28 0 46 45q4 5 9.5 22t15.5 31.5t27 21.5q26 0 53 -15.5t31 -37.5z" />
    <glyph glyph-name="Aogonek" unicode="&#x104;" horiz-adv-x="922" 
d="M710 720v-1q48 -26 48 -66q0 -6 -5.5 -37t-5.5 -77q0 -85 13.5 -229.5t23.5 -180.5q1 -4 2.5 -8t2 -6t0.5 -3v-1q15 1 32 17t46 51.5t53 59.5q50 -6 59 -34q-11 -29 -33.5 -64.5t-58 -75t-88 -65.5t-110.5 -26q-13 0 -20 1v-1q-70 13 -92 70q-49 41 -178 124l-55 -70
q-76 -98 -125.5 -141t-96.5 -43q-48 0 -84.5 59.5t-36.5 99.5q0 22 22 40t67.5 47t79.5 63q-35 9 -55 36t-20 52q0 10 3 19q-38 11 -65 52t-27 106q0 67 43 117t121.5 79t179 43t226.5 14q76 0 134 -21zM260 432q-2 -3 -4 -10t-3 -11q40 -6 59 -13q29 46 41.5 81t23.5 93
q-96 -4 -121 -11q-43 -14 -44 -49q0 -22 4.5 -36.5t11.5 -20.5t14 -9.5l12 -6t6 -7.5zM524 446q-7 -40 -17 -79t-11 -55q10 -12 25 -22.5t24 -22.5q-8 34 -12 70t-5.5 67t-3.5 42zM585 -157q-3 14 8.5 46.5t34.5 70.5t65.5 69.5t92.5 38.5q21 0 27 -40q1 -1 -1 -6
q-38 -44 -58.5 -83t-17.5 -53q2 -4 13 -4.5t22.5 -7t15.5 -25.5q3 -34 -31 -50t-73 -16q-38 0 -65 18t-33 42z" />
    <glyph glyph-name="aogonek" unicode="&#x105;" horiz-adv-x="533" 
d="M603 200q1 -2 1 -10q0 -53 -85.5 -128.5t-152.5 -75.5q-101 0 -119 58q-17 -27 -54 -48t-67 -23q-69 0 -114.5 39t-45.5 128q0 95 84.5 186.5t176.5 91.5q14 0 29 -3l1 7q1 8 1.5 10t2.5 9.5t3.5 10t5 8t7.5 7.5t10 4t13 2q46 0 106.5 -34t60.5 -63q0 -107 -42 -248
q16 2 36 19t77 76q17 17 32 17q10 0 20 -14t13 -26zM189 186q0 -24 8 -36.5t19 -12.5q9 0 15.5 6.5t6.5 17.5q3 121 8 154q-28 -21 -42.5 -56t-14.5 -73zM235 -144q-3 14 8.5 46.5t34.5 70.5t65.5 69.5t92.5 38.5q21 0 27 -40q1 -1 -1 -6q-38 -44 -58.5 -83t-17.5 -53
q2 -4 13 -4.5t22.5 -7t15.5 -25.5q3 -34 -31 -50t-73 -16q-38 0 -65 18t-33 42z" />
    <glyph glyph-name="Cacute" unicode="&#x106;" horiz-adv-x="692" 
d="M675 607q3 -18 3 -33q0 -61 -39.5 -97t-75.5 -36q-52 0 -114 36.5t-62 76.5t49 54q15 4 13 29q-49 -6 -84 -52.5t-50.5 -109.5t-15.5 -133q0 -37 6 -70.5t21 -68.5t47 -56t77 -21q70 0 126.5 20.5t84 44.5t47.5 44.5t24 20.5q19 0 28.5 -11t9.5 -46q0 -94 -107.5 -155.5
t-257.5 -61.5q-125 0 -210.5 36.5t-130 99t-62.5 155.5q-7 37 -7 63q0 107 66 206.5t178 161.5t237 62q75 0 128.5 -37.5t70.5 -121.5zM773 1008q4 -12 4 -28q0 -46 -47 -84.5t-106.5 -57t-109.5 -18.5q-34 0 -34 24q0 28 42.5 65t49.5 61q11 40 33.5 59t72.5 19
q30 0 61 -11t34 -29z" />
    <glyph glyph-name="cacute" unicode="&#x107;" horiz-adv-x="444" 
d="M183 228q0 -115 99 -115q60 0 101.5 38.5t83.5 109.5q5 12 17 12q18 0 34 -19.5t16 -31.5q0 -26 -26.5 -66.5t-68.5 -79.5t-101.5 -66.5t-116.5 -27.5q-111 0 -173 57.5t-62 173.5q0 94 81 155t197 61q151 0 151 -126q0 -55 -29.5 -88.5t-67.5 -33.5q-85 0 -107 30
q-12 18 -4.5 41t23.5 31q2 1 8 3t10 6q3 3 -3 12q-4 6 -7 9q-20 0 -37.5 -19.5t-17.5 -65.5zM410 638q4 -12 4 -28q0 -46 -47 -84.5t-106.5 -57t-109.5 -18.5q-34 0 -34 24q0 28 42.5 65t49.5 61q11 40 33.5 59t72.5 19q30 0 61 -11t34 -29z" />
    <glyph glyph-name="Ccircumflex" unicode="&#x108;" horiz-adv-x="692" 
d="M675 607q3 -18 3 -33q0 -61 -39.5 -97t-75.5 -36q-52 0 -114 36.5t-62 76.5t49 54q15 4 13 29q-49 -6 -84 -52.5t-50.5 -109.5t-15.5 -133q0 -37 6 -70.5t21 -68.5t47 -56t77 -21q70 0 126.5 20.5t84 44.5t47.5 44.5t24 20.5q19 0 28.5 -11t9.5 -46q0 -94 -107.5 -155.5
t-257.5 -61.5q-125 0 -210.5 36.5t-130 99t-62.5 155.5q-7 37 -7 63q0 107 66 206.5t178 161.5t237 62q75 0 128.5 -37.5t70.5 -121.5zM695 912q0 -1 15 -21t15 -29q0 -20 -33 -32.5t-60 -12.5q-23 0 -38.5 14.5t-22.5 33t-20.5 37.5t-31.5 25q-4 0 -20.5 -24.5t-38 -49
t-37.5 -24.5q-24 0 -45 11.5t-21 38.5q0 67 61.5 127t140.5 64q80 0 136 -158z" />
    <glyph glyph-name="ccircumflex" unicode="&#x109;" horiz-adv-x="444" 
d="M183 228q0 -115 99 -115q60 0 101.5 38.5t83.5 109.5q5 12 17 12q18 0 34 -19.5t16 -31.5q0 -26 -26.5 -66.5t-68.5 -79.5t-101.5 -66.5t-116.5 -27.5q-111 0 -173 57.5t-62 173.5q0 94 81 155t197 61q151 0 151 -126q0 -55 -29.5 -88.5t-67.5 -33.5q-85 0 -107 30
q-12 18 -4.5 41t23.5 31q2 1 8 3t10 6q3 3 -3 12q-4 6 -7 9q-20 0 -37.5 -19.5t-17.5 -65.5zM426 549q0 -1 15 -21t15 -29q0 -20 -33 -32.5t-60 -12.5q-23 0 -38.5 14.5t-22.5 33t-20.5 37.5t-31.5 25q-4 0 -20.5 -24.5t-38 -49t-37.5 -24.5q-24 0 -45 11.5t-21 38.5
q0 67 61.5 127t140.5 64q80 0 136 -158z" />
    <glyph glyph-name="Cdotaccent" unicode="&#x10a;" horiz-adv-x="692" 
d="M675 607q3 -18 3 -33q0 -61 -39.5 -97t-75.5 -36q-52 0 -114 36.5t-62 76.5t49 54q15 4 13 29q-49 -6 -84 -52.5t-50.5 -109.5t-15.5 -133q0 -37 6 -70.5t21 -68.5t47 -56t77 -21q70 0 126.5 20.5t84 44.5t47.5 44.5t24 20.5q19 0 28.5 -11t9.5 -46q0 -94 -107.5 -155.5
t-257.5 -61.5q-125 0 -210.5 36.5t-130 99t-62.5 155.5q-7 37 -7 63q0 107 66 206.5t178 161.5t237 62q75 0 128.5 -37.5t70.5 -121.5zM572 823q-127 15 -127 140q0 32 16 47.5t53 15.5q54 0 94.5 -33t40.5 -69q0 -37 -17 -69.5t-53 -32.5q-1 0 -3 0.5t-4 0.5z" />
    <glyph glyph-name="cdotaccent" unicode="&#x10b;" horiz-adv-x="444" 
d="M317 481q-27 4 -47 11q-64 22 -76 89q-10 52 3 77.5t61 25.5q46 0 87 -26.5t47 -58.5q11 -47 -75 -118zM183 228q0 -115 99 -115q60 0 101.5 38.5t83.5 109.5q5 12 17 12q18 0 34 -19.5t16 -31.5q0 -26 -26.5 -66.5t-68.5 -79.5t-101.5 -66.5t-116.5 -27.5
q-111 0 -173 57.5t-62 173.5q0 94 81 155t197 61q151 0 151 -126q0 -55 -29.5 -88.5t-67.5 -33.5q-85 0 -107 30q-12 18 -4.5 41t23.5 31q2 1 8 3t10 6q3 3 -3 12q-4 6 -7 9q-20 0 -37.5 -19.5t-17.5 -65.5z" />
    <glyph glyph-name="Ccaron" unicode="&#x10c;" horiz-adv-x="692" 
d="M675 607q3 -18 3 -33q0 -61 -39.5 -97t-75.5 -36q-52 0 -114 36.5t-62 76.5t49 54q15 4 13 29q-49 -6 -84 -52.5t-50.5 -109.5t-15.5 -133q0 -37 6 -70.5t21 -68.5t47 -56t77 -21q70 0 126.5 20.5t84 44.5t47.5 44.5t24 20.5q19 0 28.5 -11t9.5 -46q0 -94 -107.5 -155.5
t-257.5 -61.5q-125 0 -210.5 36.5t-130 99t-62.5 155.5q-7 37 -7 63q0 107 66 206.5t178 161.5t237 62q75 0 128.5 -37.5t70.5 -121.5zM784 1004q-16 -17 -45.5 -55t-49 -59.5t-51.5 -40.5t-67 -19q-37 0 -63 22q-50 33 -83 79t-33 69q0 22 28.5 43t46.5 21q37 0 55 -17.5
t19.5 -39t6.5 -39t20 -17.5q10 0 20.5 14t21 32.5t33.5 39.5t54 31q25 0 57.5 -19.5t32.5 -36.5q0 -5 -3 -8z" />
    <glyph glyph-name="ccaron" unicode="&#x10d;" horiz-adv-x="444" 
d="M183 228q0 -115 99 -115q60 0 101.5 38.5t83.5 109.5q5 12 17 12q18 0 34 -19.5t16 -31.5q0 -26 -26.5 -66.5t-68.5 -79.5t-101.5 -66.5t-116.5 -27.5q-111 0 -173 57.5t-62 173.5q0 94 81 155t197 61q151 0 151 -126q0 -55 -29.5 -88.5t-67.5 -33.5q-85 0 -107 30
q-12 18 -4.5 41t23.5 31q2 1 8 3t10 6q3 3 -3 12q-4 6 -7 9q-20 0 -37.5 -19.5t-17.5 -65.5zM469 625q-16 -17 -45.5 -55t-49 -59.5t-51.5 -40.5t-67 -19q-37 0 -63 22q-50 33 -83 79t-33 69q0 22 28.5 43t46.5 21q37 0 55 -17.5t19.5 -39t6.5 -39t20 -17.5q10 0 20.5 14
t21 32.5t33.5 39.5t54 31q25 0 57.5 -19.5t32.5 -36.5q0 -5 -3 -8z" />
    <glyph glyph-name="Dcaron" unicode="&#x10e;" horiz-adv-x="1013" 
d="M265 635q-40 0 -81 -6t-82 -18.5t-67 -37t-26 -57.5q0 -22 13 -44q-21 -32 -66.5 -49t-70.5 -17q-33 0 -55.5 30.5t-22.5 89.5q0 67 43 116t117.5 76.5t161.5 40.5t187 13q63 0 121.5 -5.5t123.5 -19.5t120 -36t106.5 -59t87 -84.5t57 -114.5t21.5 -148
q0 -159 -120.5 -245.5t-319.5 -88.5q-9 -42 -89 -42q-98 0 -146.5 59t-48.5 169q0 109 35 241t106 229q-56 8 -105 8zM535 93q26 0 49.5 7t49.5 25.5t41 58.5t15 98q0 56 -12 116q-18 90 -95 149q-33 -44 -56 -109t-32 -128.5t-12 -100.5t-3 -59q0 -37 2 -48q30 -9 53 -9z
M862 933q-16 -17 -45.5 -55t-49 -59.5t-51.5 -40.5t-67 -19q-37 0 -63 22q-50 33 -83 79t-33 69q0 22 28.5 43t46.5 21q37 0 55 -17.5t19.5 -39t6.5 -39t20 -17.5q10 0 20.5 14t21 32.5t33.5 39.5t54 31q25 0 57.5 -19.5t32.5 -36.5q0 -5 -3 -8z" />
    <glyph glyph-name="dcaron" unicode="&#x10f;" horiz-adv-x="513" 
d="M162 215q0 -29 14.5 -63.5t37.5 -34.5q27 0 45 36t18 95q0 67 -16 124t-39 92.5t-46 63t-39 50t-16 40.5q0 43 63 75.5t117 37.5q52 0 96 -71t67 -168.5t23 -188.5q0 -58 -16.5 -113.5t-49.5 -104.5t-90.5 -78.5t-130.5 -29.5q-113 0 -167 55.5t-54 182.5
q0 70 57.5 135.5t146.5 65.5q46 0 46 -49q0 -19 -16.5 -41.5t-33.5 -50t-17 -60.5zM464 826q44 -4 80.5 -28.5t47.5 -59.5q11 -58 -40 -115.5t-109 -52.5q-41 2 -64 25q-6 5 -6.5 14t4.5 13q35 22 43 39t-1.5 27t-24.5 26.5t-18 32.5q-5 34 21.5 57.5t66.5 21.5z" />
    <glyph glyph-name="Dcroat" unicode="&#x110;" horiz-adv-x="1013" 
d="M265 635q-40 0 -81 -6t-82 -18.5t-67 -37t-26 -57.5q0 -22 13 -44q-21 -32 -66.5 -49t-70.5 -17q-33 0 -55.5 30.5t-22.5 89.5q0 67 43 116t117.5 76.5t161.5 40.5t187 13q63 0 121.5 -5.5t123.5 -19.5t120 -36t106.5 -59t87 -84.5t57 -114.5t21.5 -148
q0 -159 -120.5 -245.5t-319.5 -88.5q-9 -42 -89 -42q-98 0 -146.5 59t-48.5 169q0 109 35 241t106 229q-56 8 -105 8zM535 93q26 0 49.5 7t49.5 25.5t41 58.5t15 98q0 56 -12 116q-18 90 -95 149q-33 -44 -56 -109t-32 -128.5t-12 -100.5t-3 -59q0 -37 2 -48q30 -9 53 -9z
M168 329v1q-1 2 -1 4q0 15 8 33.5t19 18.5q210 11 329 33q46 -16 46 -65q0 -13 -5 -23t-15.5 -17.5t-21.5 -12.5t-30 -8t-32.5 -5t-38 -3t-38 -1h-39.5q-29 0 -63 2.5t-74 13.5t-44 29z" />
    <glyph glyph-name="dcroat" unicode="&#x111;" horiz-adv-x="513" 
d="M180 567q-51 -16 -51 -47q-1 -18 13.5 -32.5t42.5 -22.5q152 10 231 29t79 61q0 28 -24 45t-59 19q-119 -39 -232 -52zM162 215q0 -29 14.5 -63.5t37.5 -34.5q27 0 45 36t18 95q0 67 -16 124t-39 92.5t-46 63t-39 50t-16 40.5q0 43 63 75.5t117 37.5q52 0 96 -71
t67 -168.5t23 -188.5q0 -58 -16.5 -113.5t-49.5 -104.5t-90.5 -78.5t-130.5 -29.5q-113 0 -167 55.5t-54 182.5q0 70 57.5 135.5t146.5 65.5q46 0 46 -49q0 -19 -16.5 -41.5t-33.5 -50t-17 -60.5z" />
    <glyph glyph-name="Emacron" unicode="&#x112;" horiz-adv-x="616" 
d="M466 378q1 -3 1 -12q0 -30 -26 -52.5t-69 -22.5q-22 0 -46 11q-70 -27 -70 -81q0 -8 2.5 -19.5t10.5 -30t28 -31.5t50 -15q57 0 103 14t76 33.5t56 39t54.5 33.5t58.5 14q14 0 28 -10.5t14 -22.5q0 -14 -14 -41t-49 -62.5t-83.5 -67t-127.5 -53t-172 -21.5
q-35 0 -70.5 3.5t-77 12t-76.5 25t-64 39.5t-46 58.5t-17 79.5q0 63 44 100.5t130 74.5q-38 18 -59 52.5t-21 77.5q0 40 20.5 81t62.5 79t118 62t174 24q100 -8 166 -47.5t66 -95.5q0 -57 -52.5 -94.5t-132.5 -37.5q-45 0 -79.5 18.5t-40.5 43.5q0 17 39 41.5t39 30.5
q0 7 -6 11l-6 3q-42 0 -71 -33t-29 -72q0 -62 73 -102q17 -7 36.5 -10.5t29 -5t16.5 -6.5t9 -16zM217 841l-1 1v4q0 15 8 33.5t19 18.5q210 11 329 33q46 -16 46 -65q0 -13 -5 -23t-15.5 -17.5t-21.5 -12.5t-30 -8t-32.5 -5t-38 -3t-38 -1h-39.5q-29 0 -63 2.5t-74 13.5
t-44 29z" />
    <glyph glyph-name="emacron" unicode="&#x113;" horiz-adv-x="441" 
d="M456 237q2 5 15 5q29 0 41.5 -6.5t12.5 -25.5q0 -48 -47.5 -101.5t-121 -90t-142.5 -36.5q-112 0 -173 60t-61 163q0 98 71 158t195 60q78 0 123.5 -33.5t45.5 -91.5q0 -53 -55.5 -100.5t-143.5 -71.5q28 -40 104.5 -0.5t135.5 111.5zM174 217q26 9 39.5 30.5t13.5 37.5
q0 20 -6 20q-17 0 -33 -22t-16 -50q0 -2 2 -16zM19 491l-1 1v4q0 15 8 33.5t19 18.5q210 11 329 33q46 -16 46 -65q0 -13 -5 -23t-15.5 -17.5t-21.5 -12.5t-30 -8t-32.5 -5t-38 -3t-38 -1h-39.5q-29 0 -63 2.5t-74 13.5t-44 29z" />
    <glyph glyph-name="Ebreve" unicode="&#x114;" horiz-adv-x="616" 
d="M466 378q1 -3 1 -12q0 -30 -26 -52.5t-69 -22.5q-22 0 -46 11q-70 -27 -70 -81q0 -8 2.5 -19.5t10.5 -30t28 -31.5t50 -15q57 0 103 14t76 33.5t56 39t54.5 33.5t58.5 14q14 0 28 -10.5t14 -22.5q0 -14 -14 -41t-49 -62.5t-83.5 -67t-127.5 -53t-172 -21.5
q-35 0 -70.5 3.5t-77 12t-76.5 25t-64 39.5t-46 58.5t-17 79.5q0 63 44 100.5t130 74.5q-38 18 -59 52.5t-21 77.5q0 40 20.5 81t62.5 79t118 62t174 24q100 -8 166 -47.5t66 -95.5q0 -57 -52.5 -94.5t-132.5 -37.5q-45 0 -79.5 18.5t-40.5 43.5q0 17 39 41.5t39 30.5
q0 7 -6 11l-6 3q-42 0 -71 -33t-29 -72q0 -62 73 -102q17 -7 36.5 -10.5t29 -5t16.5 -6.5t9 -16zM665 958q3 -13 3 -26q0 -57 -53.5 -102t-124.5 -45q-96 0 -139.5 43.5t-43.5 104.5q0 70 68 70q33 0 44 -17.5t8 -38.5t9 -38.5t47 -17.5q28 0 46 45q4 5 9.5 22t15.5 31.5
t27 21.5q26 0 53 -15.5t31 -37.5z" />
    <glyph glyph-name="ebreve" unicode="&#x115;" horiz-adv-x="441" 
d="M456 237q2 5 15 5q29 0 41.5 -6.5t12.5 -25.5q0 -48 -47.5 -101.5t-121 -90t-142.5 -36.5q-112 0 -173 60t-61 163q0 98 71 158t195 60q78 0 123.5 -33.5t45.5 -91.5q0 -53 -55.5 -100.5t-143.5 -71.5q28 -40 104.5 -0.5t135.5 111.5zM174 217q26 9 39.5 30.5t13.5 37.5
q0 20 -6 20q-17 0 -33 -22t-16 -50q0 -2 2 -16zM417 633q3 -14 3 -26q0 -57 -53.5 -102t-124.5 -45q-96 0 -139.5 44t-43.5 104q0 70 68 70q33 0 44 -17.5t8 -38.5t9 -38.5t47 -17.5q28 0 46 45q4 5 9.5 22t15.5 31.5t27 21.5q26 0 53 -15.5t31 -37.5z" />
    <glyph glyph-name="Edotaccent" unicode="&#x116;" horiz-adv-x="616" 
d="M466 378q1 -3 1 -12q0 -30 -26 -52.5t-69 -22.5q-22 0 -46 11q-70 -27 -70 -81q0 -8 2.5 -19.5t10.5 -30t28 -31.5t50 -15q57 0 103 14t76 33.5t56 39t54.5 33.5t58.5 14q14 0 28 -10.5t14 -22.5q0 -14 -14 -41t-49 -62.5t-83.5 -67t-127.5 -53t-172 -21.5
q-35 0 -70.5 3.5t-77 12t-76.5 25t-64 39.5t-46 58.5t-17 79.5q0 63 44 100.5t130 74.5q-38 18 -59 52.5t-21 77.5q0 40 20.5 81t62.5 79t118 62t174 24q100 -8 166 -47.5t66 -95.5q0 -57 -52.5 -94.5t-132.5 -37.5q-45 0 -79.5 18.5t-40.5 43.5q0 17 39 41.5t39 30.5
q0 7 -6 11l-6 3q-42 0 -71 -33t-29 -72q0 -62 73 -102q17 -7 36.5 -10.5t29 -5t16.5 -6.5t9 -16zM419 790q-127 15 -127 140q0 32 16 47.5t53 15.5q54 0 94.5 -33t40.5 -69q0 -37 -17 -69.5t-53 -32.5q-2 0 -4 1h-3z" />
    <glyph glyph-name="edotaccent" unicode="&#x117;" horiz-adv-x="441" 
d="M456 237q2 5 15 5q29 0 41.5 -6.5t12.5 -25.5q0 -48 -47.5 -101.5t-121 -90t-142.5 -36.5q-112 0 -173 60t-61 163q0 98 71 158t195 60q78 0 123.5 -33.5t45.5 -91.5q0 -53 -55.5 -100.5t-143.5 -71.5q28 -40 104.5 -0.5t135.5 111.5zM174 217q26 9 39.5 30.5t13.5 37.5
q0 20 -6 20q-17 0 -33 -22t-16 -50q0 -2 2 -16zM294 451q-127 15 -127 140q0 32 16 47.5t53 15.5q54 0 94.5 -33t40.5 -69q0 -37 -17 -69.5t-53 -32.5q-1 0 -3 0.5t-4 0.5z" />
    <glyph glyph-name="Eogonek" unicode="&#x118;" horiz-adv-x="616" 
d="M466 378q1 -3 1 -12q0 -30 -26 -52.5t-69 -22.5q-22 0 -46 11q-70 -27 -70 -81q0 -8 2.5 -19.5t10.5 -30t28 -31.5t50 -15q57 0 103 14t76 33.5t56 39t54.5 33.5t58.5 14q14 0 28 -10.5t14 -22.5q0 -14 -14 -41t-49 -62.5t-83.5 -67t-127.5 -53t-172 -21.5
q-35 0 -70.5 3.5t-77 12t-76.5 25t-64 39.5t-46 58.5t-17 79.5q0 63 44 100.5t130 74.5q-38 18 -59 52.5t-21 77.5q0 40 20.5 81t62.5 79t118 62t174 24q100 -8 166 -47.5t66 -95.5q0 -57 -52.5 -94.5t-132.5 -37.5q-45 0 -79.5 18.5t-40.5 43.5q0 17 39 41.5t39 30.5
q0 7 -6 11l-6 3q-42 0 -71 -33t-29 -72q0 -62 73 -102q17 -7 36.5 -10.5t29 -5t16.5 -6.5t9 -16zM208 -176q-3 14 8.5 46.5t34.5 70.5t65.5 69.5t92.5 38.5q21 0 27 -40q1 -1 -1 -6q-38 -44 -58.5 -83t-17.5 -53q2 -4 13 -4.5t22.5 -7t15.5 -25.5q3 -34 -31 -50t-73 -16
q-38 0 -65 18t-33 42z" />
    <glyph glyph-name="eogonek" unicode="&#x119;" horiz-adv-x="441" 
d="M456 237q2 5 15 5q29 0 41.5 -6.5t12.5 -25.5q0 -48 -47.5 -101.5t-121 -90t-142.5 -36.5q-112 0 -173 60t-61 163q0 98 71 158t195 60q78 0 123.5 -33.5t45.5 -91.5q0 -53 -55.5 -100.5t-143.5 -71.5q28 -40 104.5 -0.5t135.5 111.5zM174 217q26 9 39.5 30.5t13.5 37.5
q0 20 -6 20q-17 0 -33 -22t-16 -50q0 -2 2 -16zM153 -143q-3 14 8.5 46.5t34.5 70.5t65.5 69.5t92.5 38.5q21 0 27 -40q1 -1 -1 -6q-38 -44 -58.5 -83t-17.5 -53q2 -4 13 -4.5t22.5 -7t15.5 -25.5q3 -34 -31 -50t-73 -16q-38 0 -65 18t-33 42z" />
    <glyph glyph-name="Ecaron" unicode="&#x11a;" horiz-adv-x="616" 
d="M466 378q1 -3 1 -12q0 -30 -26 -52.5t-69 -22.5q-22 0 -46 11q-70 -27 -70 -81q0 -8 2.5 -19.5t10.5 -30t28 -31.5t50 -15q57 0 103 14t76 33.5t56 39t54.5 33.5t58.5 14q14 0 28 -10.5t14 -22.5q0 -14 -14 -41t-49 -62.5t-83.5 -67t-127.5 -53t-172 -21.5
q-35 0 -70.5 3.5t-77 12t-76.5 25t-64 39.5t-46 58.5t-17 79.5q0 63 44 100.5t130 74.5q-38 18 -59 52.5t-21 77.5q0 40 20.5 81t62.5 79t118 62t174 24q100 -8 166 -47.5t66 -95.5q0 -57 -52.5 -94.5t-132.5 -37.5q-45 0 -79.5 18.5t-40.5 43.5q0 17 39 41.5t39 30.5
q0 7 -6 11l-6 3q-42 0 -71 -33t-29 -72q0 -62 73 -102q17 -7 36.5 -10.5t29 -5t16.5 -6.5t9 -16zM673 963q-16 -17 -45.5 -55t-49 -59.5t-51.5 -40.5t-67 -19q-37 0 -63 22q-50 33 -83 79t-33 69q0 22 28.5 43t46.5 21q37 0 55 -17.5t19.5 -39t6.5 -39t20 -17.5
q10 0 20.5 14t21 32.5t33.5 39.5t54 31q25 0 57.5 -19.5t32.5 -36.5q0 -5 -3 -8z" />
    <glyph glyph-name="ecaron" unicode="&#x11b;" horiz-adv-x="441" 
d="M456 237q2 5 15 5q29 0 41.5 -6.5t12.5 -25.5q0 -48 -47.5 -101.5t-121 -90t-142.5 -36.5q-112 0 -173 60t-61 163q0 98 71 158t195 60q78 0 123.5 -33.5t45.5 -91.5q0 -53 -55.5 -100.5t-143.5 -71.5q28 -40 104.5 -0.5t135.5 111.5zM174 217q26 9 39.5 30.5t13.5 37.5
q0 20 -6 20q-17 0 -33 -22t-16 -50q0 -2 2 -16zM445 629q-16 -17 -45.5 -55t-49 -59.5t-51.5 -40.5t-67 -19q-37 0 -63 22q-50 33 -83 79t-33 69q0 22 28.5 43t46.5 21q37 0 55 -17.5t19.5 -39t6.5 -39t20 -17.5q10 0 20.5 14t21 32.5t33.5 39.5t54 31q25 0 57.5 -19.5
t32.5 -36.5q0 -5 -3 -8z" />
    <glyph glyph-name="Gcircumflex" unicode="&#x11c;" horiz-adv-x="745" 
d="M398 -298q-69 0 -142.5 58t-73.5 115q0 28 32 60t76 58q-170 0 -243.5 69t-73.5 199q0 125 68.5 233.5t194 175t279.5 66.5q60 0 106.5 -51.5t46.5 -129.5q0 -67 -35.5 -118.5t-68.5 -51.5q-36 0 -114 50t-78 88q0 20 39.5 42t39.5 34q0 5 -3 11t-8 4q-38 -6 -71 -45.5
t-53 -95.5t-31.5 -116.5t-11.5 -111.5q0 -57 17.5 -89t70.5 -32q24 0 88 30q-1 17 -1 45q0 41 4.5 66t16.5 34.5t21 11.5t27 2h6q37 0 105 -25t73 -57q2 -14 2 -25q-10 -48 -15.5 -118t-8.5 -118.5t-18 -103t-42 -87.5t-82.5 -55t-138.5 -22zM441 15q-54 -16 -97 -20
q10 -10 20 -41t29 -52t57 -21q3 0 3 11q0 10 -2 30t-5 47.5t-5 45.5zM685 852q0 -1 15 -21t15 -29q0 -20 -33 -32.5t-60 -12.5q-23 0 -38.5 14.5t-22.5 33t-20.5 37.5t-31.5 25q-4 0 -20.5 -24.5t-38 -49t-37.5 -24.5q-24 0 -45 11.5t-21 38.5q0 67 61.5 127t140.5 64
q80 0 136 -158z" />
    <glyph glyph-name="gcircumflex" unicode="&#x11d;" horiz-adv-x="568" 
d="M-22 -122q0 26 30 59.5t68 51.5q-49 11 -80 50.5t-31 110.5q0 94 84 181t177 87q11 0 14 -1q9 52 27.5 72.5t51.5 20.5q20 0 65 -17t86 -46.5t41 -55.5q0 -8 -2 -32l-57 -359q-9 -44 -21.5 -79t-32.5 -69.5t-46 -57t-63.5 -36.5t-84.5 -14q-65 0 -145.5 42.5t-80.5 91.5z
M178 186q0 -24 8 -36.5t19 -12.5q9 0 15.5 6.5t6.5 17.5v45q0 57 5 97q-54 -42 -54 -117zM266 -102q0 1 -3 0q-27 -8 -35 34q-6 35 0 101q-29 -26 -62 -39q6 -8 15.5 -37t26.5 -47t50 -18q8 0 8 6zM521 605q0 -1 15 -21t15 -29q0 -20 -33 -32.5t-60 -12.5q-23 0 -38.5 14.5
t-22.5 33t-20.5 37.5t-31.5 25q-4 0 -20.5 -24.5t-38 -49t-37.5 -24.5q-24 0 -45 11.5t-21 38.5q0 67 61.5 127t140.5 64q80 0 136 -158z" />
    <glyph glyph-name="Gbreve" unicode="&#x11e;" horiz-adv-x="745" 
d="M398 -298q-69 0 -142.5 58t-73.5 115q0 28 32 60t76 58q-170 0 -243.5 69t-73.5 199q0 125 68.5 233.5t194 175t279.5 66.5q60 0 106.5 -51.5t46.5 -129.5q0 -67 -35.5 -118.5t-68.5 -51.5q-36 0 -114 50t-78 88q0 20 39.5 42t39.5 34q0 5 -3 11t-8 4q-38 -6 -71 -45.5
t-53 -95.5t-31.5 -116.5t-11.5 -111.5q0 -57 17.5 -89t70.5 -32q24 0 88 30q-1 17 -1 45q0 41 4.5 66t16.5 34.5t21 11.5t27 2h6q37 0 105 -25t73 -57q2 -14 2 -25q-10 -48 -15.5 -118t-8.5 -118.5t-18 -103t-42 -87.5t-82.5 -55t-138.5 -22zM441 15q-54 -16 -97 -20
q10 -10 20 -41t29 -52t57 -21q3 0 3 11q0 10 -2 30t-5 47.5t-5 45.5zM687 944q3 -13 3 -26q0 -57 -53.5 -102t-124.5 -45q-96 0 -139.5 43.5t-43.5 104.5q0 70 68 70q33 0 44 -17.5t8 -38.5t9 -38.5t47 -17.5q28 0 46 45q4 5 9.5 22t15.5 31.5t27 21.5q26 0 53 -15.5
t31 -37.5z" />
    <glyph glyph-name="gbreve" unicode="&#x11f;" horiz-adv-x="568" 
d="M-22 -122q0 26 30 59.5t68 51.5q-49 11 -80 50.5t-31 110.5q0 94 84 181t177 87q11 0 14 -1q9 52 27.5 72.5t51.5 20.5q20 0 65 -17t86 -46.5t41 -55.5q0 -8 -2 -32l-57 -359q-9 -44 -21.5 -79t-32.5 -69.5t-46 -57t-63.5 -36.5t-84.5 -14q-65 0 -145.5 42.5t-80.5 91.5z
M178 186q0 -24 8 -36.5t19 -12.5q9 0 15.5 6.5t6.5 17.5v45q0 57 5 97q-54 -42 -54 -117zM266 -102q0 1 -3 0q-27 -8 -35 34q-6 35 0 101q-29 -26 -62 -39q6 -8 15.5 -37t26.5 -47t50 -18q8 0 8 6zM596 695q3 -13 3 -26q0 -57 -53.5 -102t-124.5 -45q-95 0 -139 44t-44 104
q0 70 68 70q33 0 44 -17.5t8 -38.5t9 -38.5t47 -17.5q28 0 46 45q4 5 9.5 22t15.5 31.5t27 21.5q26 0 53 -15.5t31 -37.5z" />
    <glyph glyph-name="Gdotaccent" unicode="&#x120;" horiz-adv-x="745" 
d="M398 -298q-69 0 -142.5 58t-73.5 115q0 28 32 60t76 58q-170 0 -243.5 69t-73.5 199q0 125 68.5 233.5t194 175t279.5 66.5q60 0 106.5 -51.5t46.5 -129.5q0 -67 -35.5 -118.5t-68.5 -51.5q-36 0 -114 50t-78 88q0 20 39.5 42t39.5 34q0 5 -3 11t-8 4q-38 -6 -71 -45.5
t-53 -95.5t-31.5 -116.5t-11.5 -111.5q0 -57 17.5 -89t70.5 -32q24 0 88 30q-1 17 -1 45q0 41 4.5 66t16.5 34.5t21 11.5t27 2h6q37 0 105 -25t73 -57q2 -14 2 -25q-10 -48 -15.5 -118t-8.5 -118.5t-18 -103t-42 -87.5t-82.5 -55t-138.5 -22zM441 15q-54 -16 -97 -20
q10 -10 20 -41t29 -52t57 -21q3 0 3 11q0 10 -2 30t-5 47.5t-5 45.5zM589 768q-127 15 -127 140q0 32 16 47.5t53 15.5q54 0 94.5 -33t40.5 -69q0 -37 -17 -69.5t-53 -32.5q-2 0 -4 1h-3z" />
    <glyph glyph-name="gdotaccent" unicode="&#x121;" horiz-adv-x="568" 
d="M-22 -122q0 26 30 59.5t68 51.5q-49 11 -80 50.5t-31 110.5q0 94 84 181t177 87q11 0 14 -1q9 52 27.5 72.5t51.5 20.5q20 0 65 -17t86 -46.5t41 -55.5q0 -8 -2 -32l-57 -359q-9 -44 -21.5 -79t-32.5 -69.5t-46 -57t-63.5 -36.5t-84.5 -14q-65 0 -145.5 42.5t-80.5 91.5z
M178 186q0 -24 8 -36.5t19 -12.5q9 0 15.5 6.5t6.5 17.5v45q0 57 5 97q-54 -42 -54 -117zM266 -102q0 1 -3 0q-27 -8 -35 34q-6 35 0 101q-29 -26 -62 -39q6 -8 15.5 -37t26.5 -47t50 -18q8 0 8 6zM433 510q-127 15 -127 140q0 32 16 47.5t53 15.5q54 0 94.5 -33t40.5 -69
q0 -37 -17 -69.5t-53 -32.5q-2 0 -4 1h-3z" />
    <glyph glyph-name="Gcommaaccent" unicode="&#x122;" horiz-adv-x="745" 
d="M398 -298q-69 0 -142.5 58t-73.5 115q0 28 32 60t76 58q-170 0 -243.5 69t-73.5 199q0 125 68.5 233.5t194 175t279.5 66.5q60 0 106.5 -51.5t46.5 -129.5q0 -67 -35.5 -118.5t-68.5 -51.5q-36 0 -114 50t-78 88q0 20 39.5 42t39.5 34q0 5 -3 11t-8 4q-38 -6 -71 -45.5
t-53 -95.5t-31.5 -116.5t-11.5 -111.5q0 -57 17.5 -89t70.5 -32q24 0 88 30q-1 17 -1 45q0 41 4.5 66t16.5 34.5t21 11.5t27 2h6q37 0 105 -25t73 -57q2 -14 2 -25q-10 -48 -15.5 -118t-8.5 -118.5t-18 -103t-42 -87.5t-82.5 -55t-138.5 -22zM441 15q-54 -16 -97 -20
q10 -10 20 -41t29 -52t57 -21q3 0 3 11q0 10 -2 30t-5 47.5t-5 45.5zM276 -468q-3 13 -23.5 35.5t-20.5 41.5q0 33 25 52t70 19q57 0 98.5 -37.5t41.5 -88.5q0 -55 -47 -97.5t-113 -64.5q-28 2 -50 18t-28 37q-1 0 -2 -1q-1 0 -1 1q0 3 25.5 38.5t25.5 43.5q0 2 -1 3z" />
    <glyph glyph-name="gcommaaccent" unicode="&#x123;" horiz-adv-x="568" 
d="M-22 -122q0 26 30 59.5t68 51.5q-49 11 -80 50.5t-31 110.5q0 94 84 181t177 87q11 0 14 -1q9 52 27.5 72.5t51.5 20.5q20 0 65 -17t86 -46.5t41 -55.5q0 -8 -2 -32l-57 -359q-9 -44 -21.5 -79t-32.5 -69.5t-46 -57t-63.5 -36.5t-84.5 -14q-65 0 -145.5 42.5t-80.5 91.5z
M178 186q0 -24 8 -36.5t19 -12.5q9 0 15.5 6.5t6.5 17.5v45q0 57 5 97q-54 -42 -54 -117zM266 -102q0 1 -3 0q-27 -8 -35 34q-6 35 0 101q-29 -26 -62 -39q6 -8 15.5 -37t26.5 -47t50 -18q8 0 8 6zM550 602q11 -56 -47 -77q-24 -6 -37 -6q-53 0 -95.5 31t-51.5 70
q-14 65 38 124t121 69q24 0 47 -12t26 -33v2q8 -4 -1 -16t-25 -29.5t-20 -27.5q-7 -20 1.5 -34t24 -29.5t19.5 -31.5z" />
    <glyph glyph-name="Hcircumflex" unicode="&#x124;" horiz-adv-x="866" 
d="M827 180q2 3 11 14t15 18t14.5 13.5t14.5 6.5q15 0 30 -11t15 -23q0 -30 -27.5 -72.5t-69 -81t-98.5 -66t-109 -27.5q-79 0 -110 37t-31 103q0 36 6 75q-4 0 -10 0.5t-9 0.5q-33 0 -75 -7q-12 -59 -22.5 -99.5t-27 -83t-36.5 -67.5t-49 -41t-66 -16q-104 0 -163 63.5
t-59 149.5q0 64 56.5 119t122.5 65q8 78 4 135t-1 128t20 126q27 81 141 81q143 0 143 -57q0 -59 -13.5 -170.5t-30.5 -187.5q61 16 102 16q37 209 68 291t90 99q78 0 133.5 -25.5t55.5 -64.5q0 -42 -69.5 -256t-69.5 -252q0 -7 1 -12t1 -6t-1 -2v-1q14 1 26.5 10.5t37 36.5
t39.5 41zM125 11q5 0 8.5 6t5.5 18.5t3 24t2.5 30.5t2.5 29h-4q-25 0 -38.5 -19t-13.5 -45q0 -19 9 -31.5t25 -12.5zM698 835q0 -1 15 -21t15 -29q0 -20 -33 -32.5t-60 -12.5q-23 0 -38.5 14.5t-22.5 33t-20.5 37.5t-31.5 25q-4 0 -20.5 -24.5t-38 -49t-37.5 -24.5
q-24 0 -45 11.5t-21 38.5q0 67 61.5 127t140.5 64q80 0 136 -158z" />
    <glyph glyph-name="hcircumflex" unicode="&#x125;" horiz-adv-x="515" 
d="M589 185q0 -37 -44.5 -86.5t-110 -86t-118.5 -36.5q-110 0 -110 102q0 63 29 157q-2 -2 -7.5 -4t-10.5 -4.5t-11.5 -16t-11 -35.5t-8.5 -65t-5 -102q-1 -17 -21 -26t-44 -9q-73 0 -103.5 48.5t-30.5 119.5q0 10 2 30.5t2 29.5q0 34 4 87.5t16 127.5t29 136.5t48 106.5
t69 44q63 0 125 -38t62 -87q0 -17 -18 -30q-25 -13 -50 -67.5t-40 -121.5q86 48 125 48q43 0 65 -22t22 -59q0 -30 -22 -101t-22 -97v-7q57 21 93 66q8 11 21 23t16 12q1 0 11.5 0.5t14 0t12 -2.5t12 -6t7 -11t3.5 -18zM378 806q0 -1 15 -21t15 -29q0 -20 -33 -32.5
t-60 -12.5q-23 0 -38.5 14.5t-22.5 33t-20.5 37.5t-31.5 25q-4 0 -20.5 -24.5t-38 -49t-37.5 -24.5q-24 0 -45 11.5t-21 38.5q0 67 61.5 127t140.5 64q80 0 136 -158z" />
    <glyph glyph-name="Hbar" unicode="&#x126;" horiz-adv-x="972" 
d="M653 473q-5 41 -163 27q-121 -16 -158 -32q-56 -25 -51 -73q9 -39 39 -45q125 37 286 61q15 0 32 23.5t15 38.5zM828 180q2 3 11 14t15 18t14.5 13.5t14.5 6.5q15 0 30 -11t15 -23q0 -30 -27.5 -72.5t-69 -81t-98.5 -66t-109 -27.5q-78 0 -109.5 37t-31.5 103q0 36 6 75
q-4 0 -10 0.5t-9 0.5q-33 0 -75 -7q-12 -59 -22.5 -99.5t-27 -83t-36.5 -67.5t-49 -41t-66 -16q-104 0 -163 63.5t-59 149.5q0 64 56.5 119t122.5 65q8 78 4 135t-1 128t20 126q27 81 141 81q143 0 143 -57q0 -59 -13.5 -170.5t-30.5 -187.5q61 16 102 16q37 209 68 291
t90 99q78 0 133.5 -25.5t55.5 -64.5q0 -42 -69.5 -256t-69.5 -252q0 -7 1 -12t1 -6t-1 -2v-1q14 1 26.5 10.5t37 36.5t39.5 41zM126 11q5 0 8.5 6t5.5 18.5t3 24t2.5 30.5t2.5 29h-4q-25 0 -38.5 -19t-13.5 -45q0 -19 9 -31.5t25 -12.5z" />
    <glyph glyph-name="hbar" unicode="&#x127;" horiz-adv-x="515" 
d="M589 185q0 -37 -44.5 -86.5t-110 -86t-118.5 -36.5q-110 0 -110 102q0 63 29 157q-2 -2 -7.5 -4t-10.5 -4.5t-11.5 -16t-11 -35.5t-8.5 -65t-5 -102q-1 -17 -21 -26t-44 -9q-73 0 -103.5 48.5t-30.5 119.5q0 10 2 30.5t2 29.5q0 110 25 246q-68 0 -68 49q0 43 75 43h13
q49 164 121 164q63 0 125 -38t62 -87q0 -17 -18 -30q-13 -7 -22 -19q42 1 81 6q38 -15 38 -53q0 -29 -35 -45t-93 -16q-32 0 -42 2q-6 -18 -17 -64q86 48 125 48q43 0 65 -22t22 -59q0 -30 -22 -101t-22 -97v-7q58 21 93 66q14 18 25.5 26t14.5 8.5t13 0.5q44 0 44 -37z" />
    <glyph glyph-name="Itilde" unicode="&#x128;" horiz-adv-x="750" 
d="M437 563q2 7 6.5 21t6.5 22q-227 -7 -227 -120q0 -24 4 -38t10.5 -18t12.5 -5.5t10 -6t4 -14.5q0 -36 -45.5 -58t-89.5 -22q-110 0 -110 126q0 73 57 129.5t150 89t197 49t211 16.5q16 0 32 -3.5t35 -12.5t31 -31t12 -54q0 -34 -16 -59q-71 -161 -71 -404q0 -44 3 -86
q11 -68 11 -73q0 -21 -13 -31t-45 -10q-84 0 -116 52q-35 41 -55 159t-20 226q0 98 15 156zM548 918q13 -2 58 -13t60 -11q22 0 33 3.5t11 8t1.5 8t8.5 3.5q30 0 50 -27t20 -56q0 -32 -25.5 -51t-65.5 -19q-19 0 -48 12t-73 23.5t-99 11.5q-8 0 -21.5 -1t-19.5 -1
q-25 0 -25 34q0 32 22.5 55t72.5 23q18 0 40 -3z" />
    <glyph glyph-name="itilde" unicode="&#x129;" horiz-adv-x="291" 
d="M108 559q13 -2 58 -13t60 -11q22 0 33 3.5t11 8t1.5 8t8.5 3.5q30 0 50 -27t20 -56q0 -32 -25.5 -51t-65.5 -19q-19 0 -48 11.5t-73 23.5t-99 12q-8 0 -21.5 -1t-19.5 -1q-25 0 -25 34q0 32 22.5 55t72.5 23q18 0 40 -3zM358 184q1 -3 1 -13q0 -36 -46 -82.5t-106.5 -78
t-99.5 -31.5q-74 0 -102 47t-28 156q0 94 32 165t97 71q47 0 78.5 -11.5t43 -29.5t14.5 -29.5t3 -22.5q0 -9 -2 -18t-4.5 -16t-9 -24.5t-11.5 -30.5t-7.5 -25.5t-5.5 -38t-5 -38.5q24 11 111 98q8 6 17 3t18 -17.5t12 -33.5z" />
    <glyph glyph-name="Imacron" unicode="&#x12a;" horiz-adv-x="750" 
d="M437 563q2 7 6.5 21t6.5 22q-227 -7 -227 -120q0 -24 4 -38t10.5 -18t12.5 -5.5t10 -6t4 -14.5q0 -36 -45.5 -58t-89.5 -22q-110 0 -110 126q0 73 57 129.5t150 89t197 49t211 16.5q16 0 32 -3.5t35 -12.5t31 -31t12 -54q0 -34 -16 -59q-71 -161 -71 -404q0 -44 3 -86
q11 -68 11 -73q0 -21 -13 -31t-45 -10q-84 0 -116 52q-35 41 -55 159t-20 226q0 98 15 156zM312 840v2q-1 1 -1 3q0 15 8 33.5t19 18.5q210 11 329 33q46 -16 46 -65q0 -13 -5 -23t-15.5 -17.5t-21.5 -12.5t-30 -8t-32.5 -5t-38 -3t-38 -1h-39.5q-29 0 -63 2.5t-74 13.5
t-44 29z" />
    <glyph glyph-name="imacron" unicode="&#x12b;" horiz-adv-x="291" 
d="M-45 501l-1 1v4q0 15 8 33.5t19 18.5q210 11 329 33q46 -16 46 -65q0 -13 -5 -23t-15.5 -17.5t-21.5 -12.5t-30 -8t-32.5 -5t-38 -3t-38 -1h-39.5q-29 0 -63 2.5t-74 13.5t-44 29zM358 184q1 -3 1 -13q0 -36 -46 -82.5t-106.5 -78t-99.5 -31.5q-74 0 -102 47t-28 156
q0 94 32 165t97 71q47 0 78.5 -11.5t43 -29.5t14.5 -29.5t3 -22.5q0 -9 -2 -18t-4.5 -16t-9 -24.5t-11.5 -30.5t-7.5 -25.5t-5.5 -38t-5 -38.5q24 11 111 98q8 6 17 3t18 -17.5t12 -33.5z" />
    <glyph glyph-name="Ibreve" unicode="&#x12c;" horiz-adv-x="750" 
d="M437 563q2 7 6.5 21t6.5 22q-227 -7 -227 -120q0 -24 4 -38t10.5 -18t12.5 -5.5t10 -6t4 -14.5q0 -36 -45.5 -58t-89.5 -22q-110 0 -110 126q0 73 57 129.5t150 89t197 49t211 16.5q16 0 32 -3.5t35 -12.5t31 -31t12 -54q0 -34 -16 -59q-71 -161 -71 -404q0 -44 3 -86
q11 -68 11 -73q0 -21 -13 -31t-45 -10q-84 0 -116 52q-35 41 -55 159t-20 226q0 98 15 156zM805 951q3 -14 3 -26q0 -57 -53.5 -102t-124.5 -45q-96 0 -139.5 44t-43.5 104q0 70 68 70q33 0 44 -17.5t8 -38.5t9 -38.5t47 -17.5q28 0 46 45q4 5 9.5 22t15.5 31.5t27 21.5
q26 0 53 -15.5t31 -37.5z" />
    <glyph glyph-name="ibreve" unicode="&#x12d;" horiz-adv-x="291" 
d="M337 623q3 -13 3 -26q0 -57 -53.5 -102t-124.5 -45q-96 0 -139.5 44t-43.5 104q0 70 68 70q33 0 44 -17.5t8 -38.5t9 -38.5t47 -17.5q28 0 46 45q4 5 9.5 22t15.5 31.5t27 21.5q26 0 53 -15.5t31 -37.5zM358 184q1 -3 1 -13q0 -36 -46 -82.5t-106.5 -78t-99.5 -31.5
q-74 0 -102 47t-28 156q0 94 32 165t97 71q47 0 78.5 -11.5t43 -29.5t14.5 -29.5t3 -22.5q0 -9 -2 -18t-4.5 -16t-9 -24.5t-11.5 -30.5t-7.5 -25.5t-5.5 -38t-5 -38.5q24 11 111 98q8 6 17 3t18 -17.5t12 -33.5z" />
    <glyph glyph-name="Iogonek" unicode="&#x12e;" horiz-adv-x="636" 
d="M400 563q2 7 6.5 21t6.5 22q-227 -7 -227 -120q0 -24 4 -38t10 -18t12.5 -5.5t10.5 -6t4 -14.5q0 -36 -45.5 -58t-89.5 -22q-110 0 -110 126q0 73 57 129.5t150 89t197 49t211 16.5q16 0 32 -3.5t35 -12.5t31 -31t12 -54q0 -34 -16 -59q-71 -161 -71 -404q0 -44 3 -86
q11 -68 11 -73q0 -21 -13 -31t-45 -10q-84 0 -116 52q-35 41 -55 159t-20 226q0 98 15 156zM409 -201q-3 14 8.5 46.5t34.5 70.5t65.5 69.5t92.5 38.5q21 0 27 -40q1 -1 -1 -6q-38 -44 -58.5 -83t-17.5 -53q2 -4 13 -4.5t22.5 -7t15.5 -25.5q3 -34 -31 -50t-73 -16
q-38 0 -65 18t-33 42z" />
    <glyph glyph-name="iogonek" unicode="&#x12f;" horiz-adv-x="277" 
d="M348 184q1 -3 1 -13q0 -36 -46 -82.5t-106.5 -78t-99.5 -31.5q-74 0 -102 47t-28 156q0 94 32 165t97 71q47 0 78.5 -11.5t43 -29.5t14.5 -29.5t3 -22.5q0 -9 -2 -18t-4.5 -16t-9 -24.5t-11.5 -30.5t-7.5 -25.5t-5.5 -38t-5 -38.5q24 11 111 98q8 6 17 3t18 -17.5
t12 -33.5zM160 457q-26 0 -45 3.5t-39.5 14.5t-31 35.5t-10.5 61.5q0 59 35 106t74 47q43 0 106.5 -35t63.5 -67q0 -13 -18 -24q-13 -7 -27 -31t-25 -48t-33 -43.5t-50 -19.5zM-132 -205q-3 14 8.5 46.5t34.5 70.5t65.5 69.5t92.5 38.5q21 0 27 -40q1 -1 -1 -6
q-38 -44 -58.5 -83t-17.5 -53q2 -4 13 -4.5t22.5 -7t15.5 -25.5q3 -34 -31 -50t-73 -16q-38 0 -65 18t-33 42z" />
    <glyph glyph-name="Idotaccent" unicode="&#x130;" horiz-adv-x="750" 
d="M437 563q2 7 6.5 21t6.5 22q-227 -7 -227 -120q0 -24 4 -38t10.5 -18t12.5 -5.5t10 -6t4 -14.5q0 -36 -45.5 -58t-89.5 -22q-110 0 -110 126q0 73 57 129.5t150 89t197 49t211 16.5q16 0 32 -3.5t35 -12.5t31 -31t12 -54q0 -34 -16 -59q-71 -161 -71 -404q0 -44 3 -86
q11 -68 11 -73q0 -21 -13 -31t-45 -10q-84 0 -116 52q-35 41 -55 159t-20 226q0 98 15 156zM594 770q-127 15 -127 140q0 32 16 47.5t53 15.5q54 0 94.5 -33t40.5 -69q0 -37 -17 -69.5t-53 -32.5q-1 0 -3 0.5t-4 0.5z" />
    <glyph glyph-name="dotlessi" unicode="&#x131;" horiz-adv-x="275" 
d="M345 184q1 -3 1 -13q0 -36 -46 -82.5t-106.5 -78t-99.5 -31.5q-74 0 -102 47t-28 156q0 94 32 165t97 71q47 0 78.5 -11.5t43 -29.5t14.5 -29.5t3 -22.5q0 -9 -2 -18t-4.5 -16t-9 -24.5t-11.5 -30.5t-7.5 -25.5t-5.5 -38t-5 -38.5q24 11 111 98q8 6 17 3t18 -17.5
t12 -33.5z" />
    <glyph glyph-name="IJ" unicode="&#x132;" horiz-adv-x="872" 
d="M280 563q2 7 6.5 21t6.5 22q-227 -7 -227 -120q0 -24 4 -38t10.5 -18t12.5 -5.5t10 -6t4 -14.5q0 -36 -45.5 -58t-89.5 -22q-110 0 -110 126q0 73 57 129.5t150 89t197 49t211 16.5q16 0 32 -3.5t35 -12.5t31 -31t12 -54q0 -34 -16 -59q-71 -161 -71 -404q0 -44 3 -86
q11 -68 11 -73q0 -21 -13 -31t-45 -10q-84 0 -116 52q-35 41 -55 159t-20 226q0 98 15 156zM488 -195v1h-8q-61 0 -102.5 24t-41.5 65q0 40 30.5 76t63.5 36q18 0 40 -21.5t30 -47.5q53 8 73 68t20 174q0 37 -4.5 120.5t-4.5 128.5q0 75 13 142.5t46 117.5t80 50
q56 0 114 -30t71 -82q0 -1 0.5 -3t0.5 -3q0 -19 -27.5 -108.5t-31.5 -128.5q-6 -59 -7.5 -169t-9.5 -171q-10 -66 -42.5 -114t-81 -74.5t-103 -38.5t-118.5 -12z" />
    <glyph glyph-name="ij" unicode="&#x133;" horiz-adv-x="573" 
d="M342 184q1 -3 1 -13q0 -36 -46 -82.5t-106.5 -78t-99.5 -31.5q-74 0 -102 47t-28 156q0 94 32 165t97 71q47 0 78.5 -11.5t43 -29.5t14.5 -29.5t3 -22.5q0 -9 -2 -18t-4.5 -16t-9 -24.5t-11.5 -30.5t-7.5 -25.5t-5.5 -38t-5 -38.5q24 11 111 98q8 6 17 3t18 -17.5
t12 -33.5zM154 457q-26 0 -45 3.5t-39.5 14.5t-31 35.5t-10.5 61.5q0 59 35 106t74 47q43 0 106.5 -35t63.5 -67q0 -13 -18 -24q-13 -7 -27 -31t-25 -48t-33 -43.5t-50 -19.5zM638 183v-7q0 -51 -149 -189q-6 -123 -67 -205.5t-161 -82.5q-14 0 -25 2.5t-26.5 11.5t-24 32.5
t-8.5 59.5q0 10 1.5 19.5t3.5 17.5t6.5 17.5t7.5 15.5t10 15l10.5 13.5t12 13.5t11.5 12l13 13l12 12l3 3q0 -22 8 -37q2 0 2 5q0 13 -2.5 91t-2.5 107q0 66 3.5 113t14 92.5t33.5 69t58 23.5q39 0 66 -10.5t39.5 -22t19 -35t7 -34.5t0.5 -36q0 -28 -2.5 -76.5t-2.5 -52.5
q11 15 43.5 45.5t49.5 30.5q26 0 36 -47zM349 551q-5 20 -5 45q0 55 28 90.5t66 35.5q40 0 102.5 -24t62.5 -53q0 -6 -10 -22t-29.5 -49.5t-36.5 -68.5q-11 -23 -20.5 -28.5t-29.5 -5.5q-49 0 -82.5 16t-45.5 64z" />
    <glyph glyph-name="Jcircumflex" unicode="&#x134;" horiz-adv-x="774" 
d="M312 -9q43 0 74.5 60.5t47.5 149t27 178.5t22.5 160.5t25.5 83.5q-2 -1 -11 -1q-269 0 -269 -120q0 -31 6.5 -46t14 -16t14 -5.5t6.5 -16.5q0 -37 -45.5 -58t-89.5 -21q-110 0 -110 128q0 71 53 126.5t142 88t197 49t227 16.5q109 -8 109 -63q0 -92 -30 -309.5
t-70 -286.5q-50 -91 -157 -149t-220 -58q-69 0 -129.5 22t-110.5 75.5t-65 132.5q-4 17 -4 41q0 63 38 97t98 34q50 0 82 -22.5t32 -56.5q0 -20 -18.5 -50.5t-37.5 -51.5q21 -42 65 -76.5t86 -34.5zM777 860q0 -1 15 -21t15 -29q0 -20 -33 -32.5t-60 -12.5q-23 0 -38.5 14.5
t-22.5 33t-20.5 37.5t-31.5 25q-4 0 -20.5 -24.5t-38 -49t-37.5 -24.5q-24 0 -45 11.5t-21 38.5q0 67 61.5 127t140.5 64q80 0 136 -158z" />
    <glyph glyph-name="jcircumflex" unicode="&#x135;" horiz-adv-x="292" 
d="M361 183v-7q0 -51 -149 -189q-6 -123 -67 -205.5t-161 -82.5q-14 0 -25 2.5t-26.5 11.5t-24 32.5t-8.5 59.5q0 10 1.5 19.5t3.5 17.5t6.5 17.5t7.5 15.5t10 15l10.5 13.5t12 13.5t11.5 12l13 13l12 12l3 3q0 -22 8 -37q2 0 2 5q0 13 -2.5 91t-2.5 107q0 66 3.5 113
t14 92.5t33.5 69t58 23.5q39 0 66 -10.5t39.5 -22t19 -35t7 -34.5t0.5 -36q0 -28 -2.5 -76.5t-2.5 -52.5q11 15 43.5 45.5t49.5 30.5q26 0 36 -47zM300 512q0 -1 15 -21t15 -29q0 -20 -33 -32.5t-60 -12.5q-23 0 -38.5 14.5t-22.5 33t-20.5 37.5t-31.5 25q-4 0 -20.5 -24.5
t-38 -49t-37.5 -24.5q-24 0 -45 11.5t-21 38.5q0 67 61.5 127t140.5 64q80 0 136 -158z" />
    <glyph glyph-name="Kcommaaccent" unicode="&#x136;" horiz-adv-x="993" 
d="M734 637q-53 -90 -68 -150l-23 -76l-14 -72h11q18 0 25 11q18 26 37.5 76.5t37.5 94.5t43 87.5t65.5 69t95.5 25.5q9 0 33 -2q37 -7 89.5 -31.5t52.5 -50.5q0 -14 -30 -20q-37 -15 -67.5 -46.5t-53 -67.5t-46 -72t-57.5 -68t-76 -49q59 -23 87 -53q14 -17 37.5 -79
t43.5 -66q4 2 17.5 6.5t25 9.5t19.5 13q3 6 16 6q16 0 32 -8.5t16 -20.5q0 -22 -52 -54t-114 -54.5t-93 -22.5q-40 6 -65 28t-33.5 51t-16 63t-14 63t-26.5 51t-54 28q-7 -68 -7 -109q0 -80 24 -109q4 -9 4 -22q0 -26 -25 -40.5t-63 -14.5q-83 0 -136 50.5t-53 147.5
q0 239 104 472q-3 0 -11 0.5t-14 0.5q-38 0 -79 -5t-89.5 -17t-79 -38.5t-30.5 -64.5q0 -30 6.5 -45t14 -16t14 -6t6.5 -17q0 -25 -24 -43.5t-53.5 -26.5t-56.5 -8q-109 0 -109 127q0 68 52.5 122.5t140.5 88t194 52t222 20.5q20 0 41.5 -3t54.5 -11.5t54 -32t21 -57.5
q0 -8 -4 -15zM588 -198q-3 13 -23.5 35.5t-20.5 41.5q0 33 25 52t70 19q57 0 98.5 -37.5t41.5 -88.5q0 -55 -47 -97.5t-113 -64.5q-28 2 -50 18t-28 37q-1 0 -2 -1q-1 0 -1 1q0 3 25.5 38.5t25.5 43.5q0 2 -1 3z" />
    <glyph glyph-name="kcommaaccent" unicode="&#x137;" horiz-adv-x="525" 
d="M354 -23q-66 0 -102.5 37t-64.5 119q-4 -7 -1.5 -50.5t2.5 -45.5q0 -69 -74 -69q-41 0 -81 30t-46 64q-5 25 -5 41q0 9 2 46t2 52q0 18 3.5 65.5t15.5 126.5t29.5 147.5t51.5 119.5t76 51q53 0 115 -47.5t62 -85.5q0 -9 -15 -19q-29 -14 -61 -93t-42 -154q3 5 13.5 29.5
t19.5 39.5t33 29t57 14q39 0 65 -10.5t36 -28.5t13.5 -32t3.5 -32q0 -92 -152 -134q18 -5 36 0q37 -35 54 -48t27 -13q4 0 10 3q27 18 50 43.5t35 41t20 15.5q17 0 35.5 -13t18.5 -29q-2 -35 -45.5 -85.5t-100.5 -87.5t-96 -37zM194 -183q-3 13 -23.5 35.5t-20.5 41.5
q0 33 25 52t70 19q57 0 98.5 -37.5t41.5 -88.5q0 -55 -47 -97.5t-113 -64.5q-28 2 -50 18t-28 37q-1 0 -2 -1q-1 0 -1 1q0 3 25.5 38.5t25.5 43.5q0 2 -1 3z" />
    <glyph glyph-name="kgreenlandic" unicode="&#x138;" horiz-adv-x="525" 
d="M354 -23q-66 0 -102.5 37t-64.5 119q-4 -7 -1.5 -50.5t2.5 -45.5q0 -69 -74 -69q-41 0 -81 30t-46 64q-5 25 -5 41q0 9 2 46t2 52q0 185 40 230q23 24 70 35t90.5 6t59.5 -24q7 -6 2 -23q-3 -6 -7 -15q-9 -17 -14 -53q-1 -4 -2 -14q-2 -19 -4 -31q3 5 13.5 29.5
t19.5 39.5t33 29t57 14q39 0 65 -10.5t36 -28.5t13.5 -32t3.5 -32q0 -92 -152 -134q18 -5 36 0q37 -35 54 -48t27 -13q4 0 10 3q27 18 50 43.5t35 41t20 15.5q17 0 35.5 -13t18.5 -29q-2 -35 -45.5 -85.5t-100.5 -87.5t-96 -37z" />
    <glyph glyph-name="Lacute" unicode="&#x139;" horiz-adv-x="598" 
d="M337 133q55 -8 101.5 -26t81.5 -40t70.5 -44.5t86 -42.5t110.5 -30q2 0 32.5 11.5t58.5 11.5q54 0 80 -34.5t26 -62.5q0 -34 -9.5 -66t-30 -61.5t-58 -47.5t-88.5 -18q-77 0 -144 20t-112 49.5t-87.5 64t-73 64t-65 49.5t-67.5 20q-23 -27 -54 -45t-49 -18
q-47 0 -89.5 37.5t-64.5 84t-22 80.5q0 71 150 71q3 16 13.5 62.5t18 89t7.5 67.5q0 5 41 11q-67 0 -99 22t-32 70q0 18 42 18q34 0 49 -2q-1 11 -1 31q0 100 57 147t185 47q78 0 136 -37t58 -108q0 -46 -39.5 -83t-133.5 -72q-12 -135 -85 -290zM454 599q-19 -9 -19 -55
q1 1 17.5 8.5t16.5 16.5t-3.5 16.5t-7 10.5t-4.5 3zM728 940q4 -12 4 -28q0 -46 -47 -84.5t-106.5 -57t-109.5 -18.5q-34 0 -34 24q0 28 42.5 65t49.5 61q11 40 33.5 59t72.5 19q30 0 61 -11t34 -29z" />
    <glyph glyph-name="lacute" unicode="&#x13a;" horiz-adv-x="313" 
d="M369 186q0 -73 -86.5 -140.5t-174.5 -67.5q-59 0 -92.5 43.5t-33.5 133.5q0 70 9 157t26.5 179t51.5 154t77 62q62 0 122.5 -38.5t60.5 -84.5q0 -15 -20 -30q-46 -24 -82 -173t-36 -235q0 -32 11 -32q20 0 48.5 28t52.5 56t33 28q16 0 24.5 -11.5t8.5 -28.5zM505 890
q4 -12 4 -28q0 -46 -47 -84.5t-106.5 -57t-109.5 -18.5q-34 0 -34 24q0 28 42.5 65t49.5 61q11 40 33.5 59t72.5 19q30 0 61 -11t34 -29z" />
    <glyph glyph-name="Lcommaaccent" unicode="&#x13b;" horiz-adv-x="598" 
d="M337 133q55 -8 101.5 -26t81.5 -40t70.5 -44.5t86 -42.5t110.5 -30q2 0 32.5 11.5t58.5 11.5q54 0 80 -34.5t26 -62.5q0 -34 -9.5 -66t-30 -61.5t-58 -47.5t-88.5 -18q-77 0 -144 20t-112 49.5t-87.5 64t-73 64t-65 49.5t-67.5 20q-23 -27 -54 -45t-49 -18
q-47 0 -89.5 37.5t-64.5 84t-22 80.5q0 71 150 71q3 16 13.5 62.5t18 89t7.5 67.5q0 5 41 11q-67 0 -99 22t-32 70q0 18 42 18q34 0 49 -2q-1 11 -1 31q0 100 57 147t185 47q78 0 136 -37t58 -108q0 -46 -39.5 -83t-133.5 -72q-12 -135 -85 -290zM454 599q-19 -9 -19 -55
q1 1 17.5 8.5t16.5 16.5t-3.5 16.5t-7 10.5t-4.5 3zM192 -307q-3 13 -23.5 35.5t-20.5 41.5q0 33 25 52t70 19q57 0 98.5 -37.5t41.5 -88.5q0 -55 -47 -97.5t-113 -64.5q-28 2 -50 18t-28 37q-1 0 -2 -1q-1 0 -1 1q0 3 25.5 38.5t25.5 43.5q0 2 -1 3z" />
    <glyph glyph-name="lcommaaccent" unicode="&#x13c;" horiz-adv-x="317" 
d="M362 186q0 -73 -86.5 -140.5t-174.5 -67.5q-59 0 -92.5 43.5t-33.5 133.5q0 70 9 157t26.5 179t51.5 154t77 62q62 0 122.5 -38.5t60.5 -84.5q0 -15 -20 -30q-46 -24 -82 -173t-36 -235q0 -32 11 -32q20 0 48.5 28t52.5 56t33 28q16 0 24.5 -11.5t8.5 -28.5zM83 -176
q-3 13 -23.5 35.5t-20.5 41.5q0 33 25 52t70 19q57 0 98.5 -37.5t41.5 -88.5q0 -55 -47 -97.5t-113 -64.5q-28 2 -50 18t-28 37q-1 0 -2 -1q-1 0 -1 1q0 3 25.5 38.5t25.5 43.5q0 2 -1 3z" />
    <glyph glyph-name="Lcaron" unicode="&#x13d;" horiz-adv-x="598" 
d="M337 133q55 -8 101.5 -26t81.5 -40t70.5 -44.5t86 -42.5t110.5 -30q2 0 32.5 11.5t58.5 11.5q54 0 80 -34.5t26 -62.5q0 -34 -9.5 -66t-30 -61.5t-58 -47.5t-88.5 -18q-77 0 -144 20t-112 49.5t-87.5 64t-73 64t-65 49.5t-67.5 20q-23 -27 -54 -45t-49 -18
q-47 0 -89.5 37.5t-64.5 84t-22 80.5q0 71 150 71q3 16 13.5 62.5t18 89t7.5 67.5q0 5 41 11q-67 0 -99 22t-32 70q0 18 42 18q34 0 49 -2q-1 11 -1 31q0 100 57 147t185 47q78 0 136 -37t58 -108q0 -46 -39.5 -83t-133.5 -72q-12 -135 -85 -290zM454 599q-19 -9 -19 -55
q1 1 17.5 8.5t16.5 16.5t-3.5 16.5t-7 10.5t-4.5 3zM736 833q49 -4 89 -31.5t53 -66.5q12 -64 -45 -128t-121 -58q-45 2 -71 28q-6 6 -6.5 15.5t4.5 14.5q31 20 43 35t7.5 27t-14.5 21.5t-22 24.5t-15 30q-6 38 23.5 64t74.5 24z" />
    <glyph glyph-name="lcaron" unicode="&#x13e;" horiz-adv-x="313" 
d="M369 186q0 -73 -86.5 -140.5t-174.5 -67.5q-59 0 -92.5 43.5t-33.5 133.5q0 70 9 157t26.5 179t51.5 154t77 62q62 0 122.5 -38.5t60.5 -84.5q0 -15 -20 -30q-46 -24 -82 -173t-36 -235q0 -32 11 -32q20 0 48.5 28t52.5 56t33 28q16 0 24.5 -11.5t8.5 -28.5zM403 752
q49 -4 89 -31.5t53 -66.5q12 -64 -45 -128t-121 -58q-45 2 -71 28q-6 6 -6.5 15.5t4.5 14.5q31 20 43 35t7.5 27t-14.5 21.5t-22 24.5t-15 30q-6 38 23.5 64t74.5 24z" />
    <glyph glyph-name="Ldot" unicode="&#x13f;" horiz-adv-x="598" 
d="M337 133q55 -8 101.5 -26t81.5 -40t70.5 -44.5t86 -42.5t110.5 -30q2 0 32.5 11.5t58.5 11.5q54 0 80 -34.5t26 -62.5q0 -34 -9.5 -66t-30 -61.5t-58 -47.5t-88.5 -18q-77 0 -144 20t-112 49.5t-87.5 64t-73 64t-65 49.5t-67.5 20q-23 -27 -54 -45t-49 -18
q-47 0 -89.5 37.5t-64.5 84t-22 80.5q0 71 150 71q3 16 13.5 62.5t18 89t7.5 67.5q0 5 41 11q-67 0 -99 22t-32 70q0 18 42 18q34 0 49 -2q-1 11 -1 31q0 100 57 147t185 47q78 0 136 -37t58 -108q0 -46 -39.5 -83t-133.5 -72q-12 -135 -85 -290zM454 599q-19 -9 -19 -55
q1 1 17.5 8.5t16.5 16.5t-3.5 16.5t-7 10.5t-4.5 3zM656 313q0 -2 0.5 -6.5t0.5 -6.5q0 -43 -25 -75.5t-68 -32.5q-49 0 -82 28t-39 69q1 43 27.5 64.5t85.5 21.5q83 -6 100 -62z" />
    <glyph glyph-name="ldot" unicode="&#x140;" horiz-adv-x="313" 
d="M369 186q0 -73 -86.5 -140.5t-174.5 -67.5q-59 0 -92.5 43.5t-33.5 133.5q0 70 9 157t26.5 179t51.5 154t77 62q62 0 122.5 -38.5t60.5 -84.5q0 -15 -20 -30q-46 -24 -82 -173t-36 -235q0 -32 11 -32q20 0 48.5 28t52.5 56t33 28q16 0 24.5 -11.5t8.5 -28.5zM388 345v-10
q0 -32 -18.5 -56t-50.5 -24q-37 0 -60.5 21t-28.5 51q1 32 20.5 48t63.5 16q61 -5 74 -46z" />
    <glyph glyph-name="Lslash" unicode="&#x141;" horiz-adv-x="598" 
d="M337 133q55 -8 101.5 -26t81.5 -40t70.5 -44.5t86 -42.5t110.5 -30q2 0 32.5 11.5t58.5 11.5q54 0 80 -34.5t26 -62.5q0 -34 -9.5 -66t-30 -61.5t-58 -47.5t-88.5 -18q-77 0 -144 20t-112 49.5t-87.5 64t-73 64t-65 49.5t-67.5 20q-23 -27 -54 -45t-49 -18
q-47 0 -89.5 37.5t-64.5 84t-22 80.5q0 71 150 71q3 16 13.5 62.5t18 89t7.5 67.5q0 5 41 11q-67 0 -99 22t-32 70q0 18 42 18q34 0 49 -2q-1 11 -1 31q0 100 57 147t185 47q78 0 136 -37t58 -108q0 -46 -39.5 -83t-133.5 -72q-12 -135 -85 -290zM454 599q-19 -9 -19 -55
q1 1 17.5 8.5t16.5 16.5t-3.5 16.5t-7 10.5t-4.5 3zM229 338q99 -8 231 12q32 -9 50 -31.5t9 -50.5q-10 -44 -100.5 -50t-213.5 14q-23 12 -32.5 30t-4.5 36q11 36 61 40z" />
    <glyph glyph-name="lslash" unicode="&#x142;" horiz-adv-x="317" 
d="M369 186q0 -73 -86.5 -140.5t-174.5 -67.5q-59 0 -92.5 43.5t-33.5 133.5q0 49 4 101q-1 -1 -2.5 -0.5t-2.5 0.5q-12 0 -24 10t-12 28q0 26 49 45q8 70 20 131t30 116.5t44.5 88t57.5 32.5q62 0 122.5 -38.5t60.5 -84.5q0 -15 -20 -30q-29 -15 -62 -103q19 -1 32.5 -13.5
t13.5 -30.5q0 -37 -77 -71q-25 -119 -25 -190q0 -32 11 -32q20 0 48.5 28t52.5 56t33 28q16 0 24.5 -11.5t8.5 -28.5z" />
    <glyph glyph-name="Nacute" unicode="&#x143;" horiz-adv-x="957" 
d="M797 632q38 75 60.5 96t62.5 21q29 0 63 -2q37 -3 80.5 -32.5t43.5 -62.5q0 -19 -43 -84q-97 -152 -141 -337q-9 -39 -14.5 -80.5t-7 -66t-5.5 -48t-13 -35t-28 -18.5t-50 -7q-55 0 -79.5 24t-30.5 74q-29 19 -63.5 69t-53.5 87.5t-21 45.5q0 -82 -35.5 -151t-90.5 -112
t-117.5 -66.5t-119.5 -23.5q-103 0 -161 51.5t-79 155.5q-4 20 -4 44q0 65 38.5 99t108.5 34q46 0 79 -19t40 -48q-2 -18 -24 -61.5t-22 -64.5q0 -51 65 -51q51 2 76 62q20 48 52 237q4 27 6 38q3 17 13 84t19.5 104t23.5 59q-2 0 -23.5 -2t-32 -3t-34 -5t-37 -8.5t-32 -13
t-29 -19t-18 -26t-7.5 -33.5q0 -17 2 -22q4 -23 12 -34.5t15 -12.5t12.5 -6t5.5 -16q0 -37 -47 -57.5t-93 -20.5q-44 0 -76 36.5t-32 105.5q0 71 53.5 124t142.5 81.5t187 42t205 13.5q66 0 92.5 -22t26.5 -63q0 -32 -19 -121.5t-19 -137.5q0 -77 23 -124q28 211 94 329z
M1028 962q4 -12 4 -28q0 -46 -47 -84.5t-106.5 -57t-109.5 -18.5q-34 0 -34 24q0 28 42.5 65t49.5 61q11 40 33.5 59t72.5 19q30 0 61 -11t34 -29z" />
    <glyph glyph-name="nacute" unicode="&#x144;" horiz-adv-x="542" 
d="M610 167q-1 -28 -45 -72.5t-105.5 -79.5t-106.5 -35q-140 0 -140 104q0 30 11.5 70t21.5 64l11 24q-30 -22 -48.5 -67.5t-18.5 -83.5q0 -35 13 -68q0 -1 0.5 -3t0.5 -4q0 -31 -81 -31q-75 0 -109 45.5t-34 154.5q0 98 34.5 182t78.5 84q50 0 101 -16t51 -46
q0 -10 -11.5 -21.5t-13.5 -24.5q85 73 161 73q39 0 79.5 -21t40.5 -57q0 -31 -33 -117.5t-35 -99.5q39 7 69 49l38 46q14 14 21 14q35 0 49 -63zM484 642q4 -12 4 -28q0 -46 -47 -84.5t-106.5 -57t-109.5 -18.5q-34 0 -34 24q0 28 42.5 65t49.5 61q11 40 33.5 59t72.5 19
q30 0 61 -11t34 -29z" />
    <glyph glyph-name="Ncommaaccent" unicode="&#x145;" horiz-adv-x="957" 
d="M797 632q38 75 60.5 96t62.5 21q29 0 63 -2q37 -3 80.5 -32.5t43.5 -62.5q0 -19 -43 -84q-97 -152 -141 -337q-9 -39 -14.5 -80.5t-7 -66t-5.5 -48t-13 -35t-28 -18.5t-50 -7q-55 0 -79.5 24t-30.5 74q-29 19 -63.5 69t-53.5 87.5t-21 45.5q0 -82 -35.5 -151t-90.5 -112
t-117.5 -66.5t-119.5 -23.5q-103 0 -161 51.5t-79 155.5q-4 20 -4 44q0 65 38.5 99t108.5 34q46 0 79 -19t40 -48q-2 -18 -24 -61.5t-22 -64.5q0 -51 65 -51q51 2 76 62q20 48 52 237q4 27 6 38q3 17 13 84t19.5 104t23.5 59q-2 0 -23.5 -2t-32 -3t-34 -5t-37 -8.5t-32 -13
t-29 -19t-18 -26t-7.5 -33.5q0 -17 2 -22q4 -23 12 -34.5t15 -12.5t12.5 -6t5.5 -16q0 -37 -47 -57.5t-93 -20.5q-44 0 -76 36.5t-32 105.5q0 71 53.5 124t142.5 81.5t187 42t205 13.5q66 0 92.5 -22t26.5 -63q0 -32 -19 -121.5t-19 -137.5q0 -77 23 -124q28 211 94 329z
M490 -160q-3 13 -23.5 35.5t-20.5 41.5q0 33 25 52t70 19q57 0 98.5 -37.5t41.5 -88.5q0 -55 -47 -97.5t-113 -64.5q-28 2 -50 18t-28 37q-1 0 -2 -1q-1 0 -1 1q0 3 25.5 38.5t25.5 43.5q0 2 -1 3z" />
    <glyph glyph-name="ncommaaccent" unicode="&#x146;" horiz-adv-x="542" 
d="M610 167q-1 -28 -45 -72.5t-105.5 -79.5t-106.5 -35q-140 0 -140 104q0 30 11.5 70t21.5 64l11 24q-30 -22 -48.5 -67.5t-18.5 -83.5q0 -35 13 -68q0 -1 0.5 -3t0.5 -4q0 -31 -81 -31q-75 0 -109 45.5t-34 154.5q0 98 34.5 182t78.5 84q50 0 101 -16t51 -46
q0 -10 -11.5 -21.5t-13.5 -24.5q85 73 161 73q39 0 79.5 -21t40.5 -57q0 -31 -33 -117.5t-35 -99.5q39 7 69 49l38 46q14 14 21 14q35 0 49 -63zM142 -193q-3 13 -23.5 35.5t-20.5 41.5q0 33 25 52t70 19q57 0 98.5 -37.5t41.5 -88.5q0 -55 -47 -97.5t-113 -64.5
q-28 2 -50 18t-28 37q-1 0 -2 -1q-1 0 -1 1q0 3 25.5 38.5t25.5 43.5q0 2 -1 3z" />
    <glyph glyph-name="Ncaron" unicode="&#x147;" horiz-adv-x="957" 
d="M797 632q38 75 60.5 96t62.5 21q29 0 63 -2q37 -3 80.5 -32.5t43.5 -62.5q0 -19 -43 -84q-97 -152 -141 -337q-9 -39 -14.5 -80.5t-7 -66t-5.5 -48t-13 -35t-28 -18.5t-50 -7q-55 0 -79.5 24t-30.5 74q-29 19 -63.5 69t-53.5 87.5t-21 45.5q0 -82 -35.5 -151t-90.5 -112
t-117.5 -66.5t-119.5 -23.5q-103 0 -161 51.5t-79 155.5q-4 20 -4 44q0 65 38.5 99t108.5 34q46 0 79 -19t40 -48q-2 -18 -24 -61.5t-22 -64.5q0 -51 65 -51q51 2 76 62q20 48 52 237q4 27 6 38q3 17 13 84t19.5 104t23.5 59q-2 0 -23.5 -2t-32 -3t-34 -5t-37 -8.5t-32 -13
t-29 -19t-18 -26t-7.5 -33.5q0 -17 2 -22q4 -23 12 -34.5t15 -12.5t12.5 -6t5.5 -16q0 -37 -47 -57.5t-93 -20.5q-44 0 -76 36.5t-32 105.5q0 71 53.5 124t142.5 81.5t187 42t205 13.5q66 0 92.5 -22t26.5 -63q0 -32 -19 -121.5t-19 -137.5q0 -77 23 -124q28 211 94 329z
M953 952q-16 -17 -45.5 -55t-49 -59.5t-51.5 -40.5t-67 -19q-37 0 -63 22q-50 33 -83 79t-33 69q0 22 28.5 43t46.5 21q37 0 55 -17.5t19.5 -39t6.5 -39t20 -17.5q10 0 20.5 14t21 32.5t33.5 39.5t54 31q25 0 57.5 -19.5t32.5 -36.5q0 -5 -3 -8z" />
    <glyph glyph-name="ncaron" unicode="&#x148;" horiz-adv-x="542" 
d="M610 167q-1 -28 -45 -72.5t-105.5 -79.5t-106.5 -35q-140 0 -140 104q0 30 11.5 70t21.5 64l11 24q-30 -22 -48.5 -67.5t-18.5 -83.5q0 -35 13 -68q0 -1 0.5 -3t0.5 -4q0 -31 -81 -31q-75 0 -109 45.5t-34 154.5q0 98 34.5 182t78.5 84q50 0 101 -16t51 -46
q0 -10 -11.5 -21.5t-13.5 -24.5q85 73 161 73q39 0 79.5 -21t40.5 -57q0 -31 -33 -117.5t-35 -99.5q39 7 69 49l38 46q14 14 21 14q35 0 49 -63zM471 612q-16 -17 -45.5 -55t-49 -59.5t-51.5 -40.5t-67 -19q-37 0 -63 22q-50 33 -83 79t-33 69q0 22 28.5 43t46.5 21
q37 0 55 -17.5t19.5 -39t6.5 -39t20 -17.5q10 0 20.5 14t21 32.5t33.5 39.5t54 31q25 0 57.5 -19.5t32.5 -36.5q0 -5 -3 -8z" />
    <glyph glyph-name="napostrophe" unicode="&#x149;" horiz-adv-x="542" 
d="M607 167q-1 -28 -45 -72.5t-105.5 -79.5t-106.5 -35q-140 0 -140 104q0 30 11.5 70t22.5 64l10 24q-30 -22 -48.5 -67.5t-18.5 -83.5q0 -35 13 -68q0 -1 0.5 -3t0.5 -4q0 -31 -81 -31q-75 0 -109 45.5t-34 154.5q0 98 34.5 182t78.5 84q50 0 101 -16t51 -46
q0 -10 -11.5 -21.5t-13.5 -24.5q85 73 161 73q39 0 79.5 -21t40.5 -57q0 -31 -33 -117.5t-35 -99.5q39 7 69 49l38 46q14 14 21 14q35 0 49 -63zM-45 512q-2 8 -16 24t-14 29q0 23 17 36t48 13q39 0 68 -25.5t29 -61.5q0 -38 -32 -67.5t-78 -45.5q-19 1 -34.5 12.5
t-19.5 26.5q-1 0 -1 -0.5t-1 -0.5t-1 1q0 2 18 26.5t18 30.5q0 1 -1 2z" />
    <glyph glyph-name="Eng" unicode="&#x14a;" horiz-adv-x="705" 
d="M414 540q24 96 54.5 137.5t94.5 41.5q29 0 84 -35.5t55 -80.5q0 -22 -15 -57q-26 -62 -43.5 -144.5t-17.5 -151.5q0 -63 14.5 -192.5t14.5 -181.5q0 -45 -2 -69.5t-11.5 -52.5t-28 -41.5t-52 -23t-83.5 -9.5q-41 0 -107.5 18t-125 55.5t-58.5 79.5q0 44 35.5 92t81.5 48
q24 0 43.5 -16t43 -44.5t39.5 -41.5q9 -11 23 -11q5 0 17 2t17 2q-30 0 -81 98t-107.5 220.5t-86.5 157.5q-7 -65 -7 -102q0 -53 17 -150t17 -112q0 -16 -10.5 -23t-37.5 -7q-59 0 -95.5 24t-49.5 88q-50 154 -50 363q0 159 35.5 232.5t86.5 73.5q34 0 89 -23t66 -56
q17 -62 32.5 -101.5t24 -55.5t35 -55t43.5 -67q-2 40 -2 56q0 54 8 115z" />
    <glyph glyph-name="eng" unicode="&#x14b;" horiz-adv-x="515" 
d="M564 199q0 -1 0.5 -4t0.5 -4q0 -32 -41 -84.5t-99 -102.5q-9 -127 -66 -208.5t-157 -81.5q-33 0 -58.5 24.5t-25.5 90.5q0 70 46 164q-18 -8 -64 -8q-15 0 -33.5 7t-40.5 24t-36.5 54.5t-14.5 89.5q0 291 98 291q50 0 101 -16t51 -46q0 -9 -11.5 -20.5t-13.5 -25.5
q35 34 81 54.5t75 20.5q21 0 50.5 -9t38.5 -21q11 -16 11 -62q0 -28 -5.5 -82.5t-5.5 -71.5q2 8 37 40.5t44 32.5q14 0 24 -14.5t14 -31.5zM170 92q0 -36 12 -67q14 23 26 35q0 6 -6 49.5t-8 75.5q-24 -46 -24 -93z" />
    <glyph glyph-name="Omacron" unicode="&#x14c;" horiz-adv-x="832" 
d="M598 760q159 -73 201 -287q10 -46 10 -93q0 -66 -23 -139q20 -11 25 -11q18 0 35.5 3.5t34.5 3.5q31 0 54.5 -25.5t23.5 -56.5q0 -32 -42.5 -49.5t-91.5 -17.5q-85 0 -120 21q-140 -157 -380 -157q-65 0 -131 24t-118.5 75.5t-66.5 118.5q-8 43 -8 77q0 90 39 177
t97.5 148.5t126 99t124.5 37.5q8 0 10 -1q26 71 104 71q42 0 96 -19zM400 475q-9 35 -14 101q-54 -28 -96 -120t-42 -191q0 -168 119 -168q84 0 148 128q-82 105 -115 250zM536 550q0 -20 19 -69.5t26 -56.5q0 1 0.5 9.5t0.5 17t-0.5 21.5t-2 24.5t-4 23.5t-7 20.5t-11 14
t-15.5 5.5q-6 0 -6 -10zM386 841v1q-1 2 -1 4q0 15 8 33.5t19 18.5q210 11 329 33q46 -16 46 -65q0 -13 -5 -23t-15.5 -17.5t-21.5 -12.5t-30 -8t-32.5 -5t-38 -3t-38 -1h-39.5q-29 0 -63 2.5t-74 13.5t-44 29z" />
    <glyph glyph-name="omacron" unicode="&#x14d;" horiz-adv-x="514" 
d="M409 97q-41 -57 -90 -86t-122 -29q-84 0 -151.5 57.5t-67.5 139.5q0 115 59 184t172 69q21 0 49.5 -5.5t40.5 -13.5q13 7 30 7q42 0 72.5 -34t42 -72t11.5 -68q0 -36 -10 -59q9 -12 30 -12q25 0 51 21.5t29 21.5q49 -7 49 -47q0 -47 -32.5 -69.5t-80.5 -22.5
q-44 0 -82 18zM209 123q14 0 26 17.5t16 48.5q-11 8 -23.5 36.5t-18.5 56.5q-31 -51 -31 -94q0 -62 31 -65zM85 503l-1 1v4q0 15 8 33.5t19 18.5q210 11 329 33q46 -16 46 -65q0 -13 -5 -23t-15.5 -17.5t-21.5 -12.5t-30 -8t-32.5 -5t-38 -3t-38 -1h-39.5q-29 0 -63 2.5
t-74 13.5t-44 29z" />
    <glyph glyph-name="Obreve" unicode="&#x14e;" horiz-adv-x="832" 
d="M598 760q159 -73 201 -287q10 -46 10 -93q0 -66 -23 -139q20 -11 25 -11q18 0 35.5 3.5t34.5 3.5q31 0 54.5 -25.5t23.5 -56.5q0 -32 -42.5 -49.5t-91.5 -17.5q-85 0 -120 21q-140 -157 -380 -157q-65 0 -131 24t-118.5 75.5t-66.5 118.5q-8 43 -8 77q0 90 39 177
t97.5 148.5t126 99t124.5 37.5q8 0 10 -1q26 71 104 71q42 0 96 -19zM400 475q-9 35 -14 101q-54 -28 -96 -120t-42 -191q0 -168 119 -168q84 0 148 128q-82 105 -115 250zM536 550q0 -20 19 -69.5t26 -56.5q0 1 0.5 9.5t0.5 17t-0.5 21.5t-2 24.5t-4 23.5t-7 20.5t-11 14
t-15.5 5.5q-6 0 -6 -10zM788 983q3 -13 3 -26q0 -57 -53.5 -102t-124.5 -45q-95 0 -139 44t-44 104q0 70 68 70q33 0 44 -17.5t8 -38.5t9 -38.5t47 -17.5q28 0 46 45q4 5 9.5 22t15.5 31.5t27 21.5q26 0 53 -15.5t31 -37.5z" />
    <glyph glyph-name="obreve" unicode="&#x14f;" horiz-adv-x="514" 
d="M409 97q-41 -57 -90 -86t-122 -29q-84 0 -151.5 57.5t-67.5 139.5q0 115 59 184t172 69q21 0 49.5 -5.5t40.5 -13.5q13 7 30 7q42 0 72.5 -34t42 -72t11.5 -68q0 -36 -10 -59q9 -12 30 -12q25 0 51 21.5t29 21.5q49 -7 49 -47q0 -47 -32.5 -69.5t-80.5 -22.5
q-44 0 -82 18zM209 123q14 0 26 17.5t16 48.5q-11 8 -23.5 36.5t-18.5 56.5q-31 -51 -31 -94q0 -62 31 -65zM498 616q3 -13 3 -26q0 -57 -53.5 -102t-124.5 -45q-95 0 -139 43.5t-44 104.5q0 70 68 70q33 0 44 -17.5t8 -38.5t9 -38.5t47 -17.5q28 0 46 45q4 5 9.5 22
t15.5 31.5t27 21.5q26 0 53 -15.5t31 -37.5z" />
    </font>
</defs>
</svg>
